%TF.GenerationSoftware,KiCad,Pcbnew,9.0.0*%
%TF.CreationDate,2026-05-02T22:01:51+01:00*%
%TF.ProjectId,nrf,6e72662e-6b69-4636-9164-5f7063625858,rev?*%
%TF.SameCoordinates,Original*%
%TF.FileFunction,Copper,L2,Bot*%
%TF.FilePolarity,Positive*%
%FSLAX46Y46*%
G04 Gerber Fmt 4.6, Leading zero omitted, Abs format (unit mm)*
G04 Created by KiCad (PCBNEW 9.0.0) date 2026-05-02 22:01:51*
%MOMM*%
%LPD*%
G01*
G04 APERTURE LIST*
G04 Aperture macros list*
%AMRoundRect*
0 Rectangle with rounded corners*
0 $1 Rounding radius*
0 $2 $3 $4 $5 $6 $7 $8 $9 X,Y pos of 4 corners*
0 Add a 4 corners polygon primitive as box body*
4,1,4,$2,$3,$4,$5,$6,$7,$8,$9,$2,$3,0*
0 Add four circle primitives for the rounded corners*
1,1,$1+$1,$2,$3*
1,1,$1+$1,$4,$5*
1,1,$1+$1,$6,$7*
1,1,$1+$1,$8,$9*
0 Add four rect primitives between the rounded corners*
20,1,$1+$1,$2,$3,$4,$5,0*
20,1,$1+$1,$4,$5,$6,$7,0*
20,1,$1+$1,$6,$7,$8,$9,0*
20,1,$1+$1,$8,$9,$2,$3,0*%
G04 Aperture macros list end*
%TA.AperFunction,ComponentPad*%
%ADD10R,1.700000X1.700000*%
%TD*%
%TA.AperFunction,ComponentPad*%
%ADD11RoundRect,0.250000X0.350000X0.625000X-0.350000X0.625000X-0.350000X-0.625000X0.350000X-0.625000X0*%
%TD*%
%TA.AperFunction,ComponentPad*%
%ADD12O,1.200000X1.750000*%
%TD*%
%TA.AperFunction,ComponentPad*%
%ADD13O,1.700000X1.700000*%
%TD*%
%TA.AperFunction,ComponentPad*%
%ADD14C,1.905000*%
%TD*%
%TA.AperFunction,ComponentPad*%
%ADD15RoundRect,0.250000X0.600000X0.750000X-0.600000X0.750000X-0.600000X-0.750000X0.600000X-0.750000X0*%
%TD*%
%TA.AperFunction,ComponentPad*%
%ADD16O,1.700000X2.000000*%
%TD*%
%TA.AperFunction,SMDPad,CuDef*%
%ADD17R,1.400000X1.600000*%
%TD*%
%TA.AperFunction,ViaPad*%
%ADD18C,0.500000*%
%TD*%
%TA.AperFunction,ViaPad*%
%ADD19C,0.800000*%
%TD*%
%TA.AperFunction,Conductor*%
%ADD20C,0.250000*%
%TD*%
%TA.AperFunction,Conductor*%
%ADD21C,0.400000*%
%TD*%
%TA.AperFunction,Conductor*%
%ADD22C,0.762000*%
%TD*%
%TA.AperFunction,Conductor*%
%ADD23C,0.203200*%
%TD*%
G04 APERTURE END LIST*
D10*
%TO.P,J10,1,Pin_1*%
%TO.N,Net-(J10-Pin_1)*%
X189900000Y-99300000D03*
%TD*%
%TO.P,J9,1,Pin_1*%
%TO.N,Net-(J9-Pin_1)*%
X189900000Y-92500000D03*
%TD*%
D11*
%TO.P,J8,1,Pin_1*%
%TO.N,/Vsolar*%
X147500000Y-84800000D03*
D12*
%TO.P,J8,2,Pin_2*%
%TO.N,GND*%
X145500000Y-84800000D03*
%TD*%
D11*
%TO.P,J5,1,Pin_1*%
%TO.N,GND*%
X154500000Y-84800000D03*
D12*
%TO.P,J5,2,Pin_2*%
%TO.N,/uC_vNTC*%
X152500000Y-84800000D03*
%TD*%
D10*
%TO.P,J3,1,Pin_1*%
%TO.N,+2V8*%
X144800000Y-90020000D03*
D13*
%TO.P,J3,2,Pin_2*%
%TO.N,/uC_SWCLK*%
X144800000Y-92560000D03*
%TO.P,J3,3,Pin_3*%
%TO.N,GND*%
X144800000Y-95100000D03*
%TO.P,J3,4,Pin_4*%
%TO.N,/uC_SWDIO*%
X144800000Y-97640000D03*
%TO.P,J3,5,Pin_5*%
%TO.N,/~{uC_RESET}*%
X144800000Y-100180000D03*
%TD*%
D10*
%TO.P,J2,1,Pin_1*%
%TO.N,+2V8*%
X165030000Y-100100000D03*
D13*
%TO.P,J2,2,Pin_2*%
%TO.N,/uC_USART2_Tx*%
X167570000Y-100100000D03*
%TO.P,J2,3,Pin_3*%
%TO.N,/uC_USART2_Rx*%
X170110000Y-100100000D03*
%TO.P,J2,4,Pin_4*%
%TO.N,GND*%
X172650000Y-100100000D03*
%TD*%
D10*
%TO.P,J1,1,Pin_1*%
%TO.N,GND*%
X160800000Y-82375000D03*
D13*
%TO.P,J1,2,Pin_2*%
%TO.N,+2V8*%
X160800000Y-79835000D03*
%TO.P,J1,3,Pin_3*%
%TO.N,/uC_SPI_CE*%
X163340000Y-82375000D03*
%TO.P,J1,4,Pin_4*%
%TO.N,/uC_SPI1_CSN*%
X163340000Y-79835000D03*
%TO.P,J1,5,Pin_5*%
%TO.N,/uC_SPI1_SCK*%
X165880000Y-82375000D03*
%TO.P,J1,6,Pin_6*%
%TO.N,/uC_SPI1_MOSI*%
X165880000Y-79835000D03*
%TO.P,J1,7,Pin_7*%
%TO.N,/uC_SPI1_MISO*%
X168420000Y-82375000D03*
%TO.P,J1,8,Pin_8*%
%TO.N,/uC_RF_IRQ*%
X168420000Y-79835000D03*
%TD*%
D14*
%TO.P,U1,1,Pin_1*%
%TO.N,+2V8*%
X169296051Y-94796051D03*
%TO.P,U1,2,Pin_2*%
%TO.N,/DOCI*%
X165703949Y-94796051D03*
%TO.P,U1,3,Pin_3*%
%TO.N,GND*%
X165703949Y-91203949D03*
%TD*%
D15*
%TO.P,J6,1,Pin_1*%
%TO.N,GND*%
X189950000Y-86150000D03*
D16*
%TO.P,J6,2,Pin_2*%
%TO.N,+BATT*%
X187450000Y-86150000D03*
%TD*%
D11*
%TO.P,J7,1,Pin_1*%
%TO.N,Net-(J7-Pin_1)*%
X181900000Y-84800000D03*
D12*
%TO.P,J7,2,Pin_2*%
%TO.N,Net-(J7-Pin_2)*%
X179900000Y-84800000D03*
%TD*%
D17*
%TO.P,SW1,1,1*%
%TO.N,GND*%
X183750000Y-89000000D03*
X183750000Y-97000000D03*
%TO.P,SW1,2,2*%
%TO.N,/~{uC_RESET}*%
X188250000Y-89000000D03*
X188250000Y-97000000D03*
%TD*%
D18*
%TO.N,/~{uC_RESET}*%
X159025000Y-94100000D03*
D19*
%TO.N,+2V8*%
X154100000Y-88500000D03*
X154800000Y-92300000D03*
D18*
X171975000Y-89100000D03*
%TO.N,/uC_LEDHIGH*%
X180900000Y-96200000D03*
X155800000Y-88400000D03*
%TO.N,/Vsolar*%
X171800000Y-81200000D03*
X172700000Y-81200000D03*
X171800000Y-80600000D03*
X170900000Y-80600000D03*
X170900000Y-81200000D03*
X172700000Y-80600000D03*
%TO.N,/uC_vPV*%
X149900000Y-88600000D03*
X159675000Y-94125000D03*
%TO.N,/uC_vBAT*%
X172600000Y-90200000D03*
X161625000Y-88500000D03*
D19*
%TO.N,/uC_RF_IRQ*%
X157200000Y-91600000D03*
X163200000Y-90200000D03*
%TD*%
D20*
%TO.N,/~{uC_RESET}*%
X188250000Y-96250000D02*
X187400000Y-95400000D01*
X154500000Y-93900000D02*
X158825000Y-93900000D01*
X173500000Y-93000000D02*
X162600000Y-93000000D01*
X177500000Y-97000000D02*
X173500000Y-93000000D01*
X148220000Y-100180000D02*
X154500000Y-93900000D01*
X159025000Y-94450000D02*
X159025000Y-94100000D01*
X188250000Y-89000000D02*
X188250000Y-97000000D01*
X181800000Y-97000000D02*
X177500000Y-97000000D01*
X158825000Y-93900000D02*
X159025000Y-94100000D01*
X159575000Y-95000000D02*
X159025000Y-94450000D01*
X188250000Y-97000000D02*
X188250000Y-96250000D01*
X162600000Y-93000000D02*
X160600000Y-95000000D01*
X187400000Y-95400000D02*
X182600000Y-95400000D01*
X182200000Y-95800000D02*
X182200000Y-96600000D01*
X182200000Y-96600000D02*
X181800000Y-97000000D01*
X144800000Y-100180000D02*
X148220000Y-100180000D01*
X182600000Y-95400000D02*
X182200000Y-95800000D01*
X160600000Y-95000000D02*
X159575000Y-95000000D01*
D21*
%TO.N,+2V8*%
X169296051Y-94796051D02*
X169296051Y-96703949D01*
X154800000Y-89200000D02*
X154800000Y-92300000D01*
X169296051Y-96703949D02*
X168300000Y-97700000D01*
X154100000Y-88500000D02*
X154800000Y-89200000D01*
X170075000Y-87200000D02*
X171975000Y-89100000D01*
X155400000Y-87200000D02*
X170075000Y-87200000D01*
X166200000Y-97700000D02*
X165030000Y-98870000D01*
X154100000Y-88500000D02*
X155400000Y-87200000D01*
X165030000Y-98870000D02*
X165030000Y-100100000D01*
X168300000Y-97700000D02*
X166200000Y-97700000D01*
D20*
%TO.N,/uC_LEDHIGH*%
X155900000Y-88500000D02*
X155900000Y-92200000D01*
X155800000Y-88400000D02*
X155900000Y-88500000D01*
X173700000Y-92600000D02*
X177300000Y-96200000D01*
X177300000Y-96200000D02*
X180900000Y-96200000D01*
X156300000Y-92600000D02*
X173700000Y-92600000D01*
X155900000Y-92200000D02*
X156300000Y-92600000D01*
D22*
%TO.N,/Vsolar*%
X155575000Y-82200000D02*
X159075000Y-85700000D01*
X169400000Y-85700000D02*
X171800000Y-83300000D01*
X159075000Y-85700000D02*
X169400000Y-85700000D01*
X148900000Y-82200000D02*
X155575000Y-82200000D01*
X171800000Y-83300000D02*
X171800000Y-81200000D01*
X147500000Y-84800000D02*
X147500000Y-83600000D01*
X147500000Y-83600000D02*
X148900000Y-82200000D01*
D20*
%TO.N,/uC_vPV*%
X159208884Y-93400000D02*
X159675000Y-93866116D01*
X149900000Y-88600000D02*
X149900000Y-88900000D01*
X159675000Y-93866116D02*
X159675000Y-94125000D01*
X149900000Y-88900000D02*
X154400000Y-93400000D01*
X154400000Y-93400000D02*
X159208884Y-93400000D01*
%TO.N,/uC_vBAT*%
X161625000Y-88500000D02*
X168900000Y-88500000D01*
X168900000Y-88500000D02*
X170600000Y-90200000D01*
X170600000Y-90200000D02*
X172600000Y-90200000D01*
D23*
%TO.N,/uC_RF_IRQ*%
X161800000Y-91600000D02*
X157200000Y-91600000D01*
X163200000Y-90200000D02*
X161800000Y-91600000D01*
%TD*%
%TA.AperFunction,Conductor*%
%TO.N,/Vsolar*%
G36*
X170951052Y-80336225D02*
G01*
X170987675Y-80346038D01*
X171017580Y-80358425D01*
X171050414Y-80377381D01*
X171076097Y-80397088D01*
X171102910Y-80423901D01*
X171122613Y-80449576D01*
X171122617Y-80449583D01*
X171127867Y-80458676D01*
X171142479Y-80479196D01*
X171150389Y-80488324D01*
X171173212Y-80514663D01*
X171173211Y-80514663D01*
X171224099Y-80550900D01*
X171224102Y-80550902D01*
X171256461Y-80563857D01*
X171288960Y-80576868D01*
X171288962Y-80576868D01*
X171288966Y-80576870D01*
X171363286Y-80583967D01*
X171431894Y-80570745D01*
X171431896Y-80570744D01*
X171498256Y-80536533D01*
X171498259Y-80536529D01*
X171498262Y-80536528D01*
X171548816Y-80488324D01*
X171548816Y-80488323D01*
X171548821Y-80488319D01*
X171572133Y-80458676D01*
X171577387Y-80449576D01*
X171597083Y-80423905D01*
X171623906Y-80397081D01*
X171649570Y-80377388D01*
X171682422Y-80358421D01*
X171712321Y-80346039D01*
X171712329Y-80346037D01*
X171714065Y-80345571D01*
X171748950Y-80336225D01*
X171781041Y-80332000D01*
X171818959Y-80332000D01*
X171851044Y-80336224D01*
X171851052Y-80336225D01*
X171887675Y-80346038D01*
X171917580Y-80358425D01*
X171950414Y-80377381D01*
X171976097Y-80397088D01*
X172002910Y-80423901D01*
X172022613Y-80449576D01*
X172022617Y-80449583D01*
X172027867Y-80458676D01*
X172042479Y-80479196D01*
X172050389Y-80488324D01*
X172073212Y-80514663D01*
X172073211Y-80514663D01*
X172124099Y-80550900D01*
X172124102Y-80550902D01*
X172156461Y-80563857D01*
X172188960Y-80576868D01*
X172188962Y-80576868D01*
X172188966Y-80576870D01*
X172263286Y-80583967D01*
X172331894Y-80570745D01*
X172331896Y-80570744D01*
X172398256Y-80536533D01*
X172398259Y-80536529D01*
X172398262Y-80536528D01*
X172448816Y-80488324D01*
X172448816Y-80488323D01*
X172448821Y-80488319D01*
X172472133Y-80458676D01*
X172477387Y-80449576D01*
X172497083Y-80423905D01*
X172523906Y-80397081D01*
X172549570Y-80377388D01*
X172582422Y-80358421D01*
X172612321Y-80346039D01*
X172612329Y-80346037D01*
X172614065Y-80345571D01*
X172648950Y-80336225D01*
X172681041Y-80332000D01*
X172718959Y-80332000D01*
X172751044Y-80336224D01*
X172751052Y-80336225D01*
X172787675Y-80346038D01*
X172817580Y-80358425D01*
X172850414Y-80377381D01*
X172876097Y-80397088D01*
X172902910Y-80423901D01*
X172922616Y-80449582D01*
X172941572Y-80482415D01*
X172953959Y-80512319D01*
X172963774Y-80548946D01*
X172968000Y-80581039D01*
X172968000Y-80618957D01*
X172963774Y-80651053D01*
X172953960Y-80687676D01*
X172941574Y-80717578D01*
X172910300Y-80771746D01*
X172897910Y-80800681D01*
X172881442Y-80856767D01*
X172881441Y-80856774D01*
X172879810Y-80925339D01*
X172879810Y-80925343D01*
X172890977Y-80971369D01*
X172896282Y-80993236D01*
X172910299Y-81028248D01*
X172941573Y-81082416D01*
X172953959Y-81112319D01*
X172963774Y-81148946D01*
X172968000Y-81181042D01*
X172968000Y-81218956D01*
X172963774Y-81251052D01*
X172953959Y-81287679D01*
X172941572Y-81317583D01*
X172922616Y-81350416D01*
X172902910Y-81376097D01*
X172876097Y-81402910D01*
X172850416Y-81422616D01*
X172817583Y-81441572D01*
X172787679Y-81453959D01*
X172751052Y-81463774D01*
X172718956Y-81468000D01*
X172681043Y-81468000D01*
X172648947Y-81463774D01*
X172612320Y-81453959D01*
X172582419Y-81441574D01*
X172560753Y-81429066D01*
X172560750Y-81429064D01*
X172560746Y-81429062D01*
X172537832Y-81418597D01*
X172537829Y-81418596D01*
X172537827Y-81418595D01*
X172493481Y-81403247D01*
X172431289Y-81397310D01*
X172362133Y-81407253D01*
X172362126Y-81407255D01*
X172294223Y-81438265D01*
X172294220Y-81438268D01*
X172259578Y-81468286D01*
X172241415Y-81484024D01*
X172241413Y-81484026D01*
X172201054Y-81546824D01*
X172201053Y-81546826D01*
X172181366Y-81613870D01*
X172176000Y-81651195D01*
X172176000Y-83176000D01*
X172156315Y-83243039D01*
X172103511Y-83288794D01*
X172052000Y-83300000D01*
X171518312Y-83300000D01*
X171451273Y-83280315D01*
X171405518Y-83227511D01*
X171395574Y-83158353D01*
X171399335Y-83141065D01*
X171418633Y-83075340D01*
X171424000Y-83038010D01*
X171424000Y-81651199D01*
X171423694Y-81647997D01*
X171421606Y-81626126D01*
X171419243Y-81613868D01*
X171412722Y-81580035D01*
X171412720Y-81580030D01*
X171386770Y-81523207D01*
X171386769Y-81523206D01*
X171343582Y-81468288D01*
X171343580Y-81468286D01*
X171343178Y-81468000D01*
X171315563Y-81448335D01*
X171282761Y-81424976D01*
X171216737Y-81402126D01*
X171142163Y-81398574D01*
X171142162Y-81398574D01*
X171129216Y-81401714D01*
X171074267Y-81415044D01*
X171039249Y-81429063D01*
X171017578Y-81441575D01*
X170987679Y-81453959D01*
X170987674Y-81453961D01*
X170951053Y-81463774D01*
X170918958Y-81468000D01*
X170881043Y-81468000D01*
X170848948Y-81463774D01*
X170812320Y-81453959D01*
X170782415Y-81441572D01*
X170749582Y-81422616D01*
X170723901Y-81402910D01*
X170697088Y-81376097D01*
X170677381Y-81350414D01*
X170658425Y-81317580D01*
X170646038Y-81287675D01*
X170636225Y-81251052D01*
X170632000Y-81218959D01*
X170632000Y-81181038D01*
X170636224Y-81148948D01*
X170643384Y-81122225D01*
X170646039Y-81112319D01*
X170658425Y-81082417D01*
X170689699Y-81028250D01*
X170689700Y-81028249D01*
X170702083Y-80999331D01*
X170718556Y-80943232D01*
X170720189Y-80874662D01*
X170703716Y-80806761D01*
X170689700Y-80771750D01*
X170658422Y-80717575D01*
X170646038Y-80687676D01*
X170636223Y-80651047D01*
X170632000Y-80618958D01*
X170632000Y-80581039D01*
X170636225Y-80548947D01*
X170639551Y-80536533D01*
X170646038Y-80512319D01*
X170658420Y-80482424D01*
X170677387Y-80449572D01*
X170697083Y-80423905D01*
X170723903Y-80397085D01*
X170749572Y-80377387D01*
X170782423Y-80358421D01*
X170812315Y-80346040D01*
X170848952Y-80336223D01*
X170881041Y-80332000D01*
X170918959Y-80332000D01*
X170951052Y-80336225D01*
G37*
%TD.AperFunction*%
%TD*%
%TA.AperFunction,Conductor*%
%TO.N,GND*%
G36*
X192942539Y-78020185D02*
G01*
X192988294Y-78072989D01*
X192999500Y-78124500D01*
X192999500Y-101875500D01*
X192979815Y-101942539D01*
X192927011Y-101988294D01*
X192875500Y-101999500D01*
X143124500Y-101999500D01*
X143057461Y-101979815D01*
X143011706Y-101927011D01*
X143000500Y-101875500D01*
X143000500Y-100083720D01*
X143822500Y-100083720D01*
X143822500Y-100276279D01*
X143860062Y-100465118D01*
X143860066Y-100465132D01*
X143933746Y-100643013D01*
X143933753Y-100643026D01*
X144040725Y-100803119D01*
X144040728Y-100803123D01*
X144176876Y-100939271D01*
X144176880Y-100939274D01*
X144336973Y-101046246D01*
X144336986Y-101046253D01*
X144412424Y-101077500D01*
X144514874Y-101119936D01*
X144703720Y-101157499D01*
X144703724Y-101157500D01*
X144703725Y-101157500D01*
X144896276Y-101157500D01*
X144896277Y-101157499D01*
X145085126Y-101119936D01*
X145263020Y-101046250D01*
X145423120Y-100939274D01*
X145559274Y-100803120D01*
X145666250Y-100643020D01*
X145684070Y-100600000D01*
X145721743Y-100509048D01*
X145765584Y-100454644D01*
X145831878Y-100432579D01*
X145836304Y-100432500D01*
X148270223Y-100432500D01*
X148270225Y-100432500D01*
X148363030Y-100394059D01*
X149519648Y-99237441D01*
X164052500Y-99237441D01*
X164052500Y-100962558D01*
X164059898Y-100999749D01*
X164088077Y-101041922D01*
X164130250Y-101070101D01*
X164130252Y-101070102D01*
X164158205Y-101075662D01*
X164167441Y-101077500D01*
X164167442Y-101077500D01*
X165892559Y-101077500D01*
X165899957Y-101076028D01*
X165929748Y-101070102D01*
X165971922Y-101041922D01*
X166000102Y-100999748D01*
X166007500Y-100962558D01*
X166007500Y-100003720D01*
X166592500Y-100003720D01*
X166592500Y-100196279D01*
X166630062Y-100385118D01*
X166630066Y-100385132D01*
X166703746Y-100563013D01*
X166703753Y-100563026D01*
X166810725Y-100723119D01*
X166810728Y-100723123D01*
X166946876Y-100859271D01*
X166946880Y-100859274D01*
X167106973Y-100966246D01*
X167106986Y-100966253D01*
X167255806Y-101027896D01*
X167284874Y-101039936D01*
X167436527Y-101070101D01*
X167473720Y-101077499D01*
X167473724Y-101077500D01*
X167473725Y-101077500D01*
X167666276Y-101077500D01*
X167666277Y-101077499D01*
X167855126Y-101039936D01*
X168033020Y-100966250D01*
X168193120Y-100859274D01*
X168329274Y-100723120D01*
X168436250Y-100563020D01*
X168509936Y-100385126D01*
X168547500Y-100196275D01*
X168547500Y-100003725D01*
X168547499Y-100003720D01*
X169132500Y-100003720D01*
X169132500Y-100196279D01*
X169170062Y-100385118D01*
X169170066Y-100385132D01*
X169243746Y-100563013D01*
X169243753Y-100563026D01*
X169350725Y-100723119D01*
X169350728Y-100723123D01*
X169486876Y-100859271D01*
X169486880Y-100859274D01*
X169646973Y-100966246D01*
X169646986Y-100966253D01*
X169795806Y-101027896D01*
X169824874Y-101039936D01*
X169976527Y-101070101D01*
X170013720Y-101077499D01*
X170013724Y-101077500D01*
X170013725Y-101077500D01*
X170206276Y-101077500D01*
X170206277Y-101077499D01*
X170395126Y-101039936D01*
X170573020Y-100966250D01*
X170733120Y-100859274D01*
X170869274Y-100723120D01*
X170976250Y-100563020D01*
X171049936Y-100385126D01*
X171069457Y-100286983D01*
X171101841Y-100225075D01*
X171162557Y-100190501D01*
X171232326Y-100194240D01*
X171288999Y-100235106D01*
X171313547Y-100291779D01*
X171333242Y-100416127D01*
X171333242Y-100416130D01*
X171398904Y-100618217D01*
X171495379Y-100807557D01*
X171620272Y-100979459D01*
X171620276Y-100979464D01*
X171770535Y-101129723D01*
X171770540Y-101129727D01*
X171942442Y-101254620D01*
X172131782Y-101351095D01*
X172333871Y-101416757D01*
X172400000Y-101427231D01*
X172400000Y-100533012D01*
X172457007Y-100565925D01*
X172584174Y-100600000D01*
X172715826Y-100600000D01*
X172842993Y-100565925D01*
X172900000Y-100533012D01*
X172900000Y-101427230D01*
X172966126Y-101416757D01*
X172966129Y-101416757D01*
X173168217Y-101351095D01*
X173357557Y-101254620D01*
X173529459Y-101129727D01*
X173529464Y-101129723D01*
X173679723Y-100979464D01*
X173679727Y-100979459D01*
X173804620Y-100807557D01*
X173901095Y-100618217D01*
X173966757Y-100416129D01*
X173966757Y-100416126D01*
X173977231Y-100350000D01*
X173083012Y-100350000D01*
X173115925Y-100292993D01*
X173150000Y-100165826D01*
X173150000Y-100034174D01*
X173115925Y-99907007D01*
X173083012Y-99850000D01*
X173977231Y-99850000D01*
X173966757Y-99783873D01*
X173966757Y-99783870D01*
X173901095Y-99581782D01*
X173804620Y-99392442D01*
X173679727Y-99220540D01*
X173679723Y-99220535D01*
X173529464Y-99070276D01*
X173529459Y-99070272D01*
X173357557Y-98945379D01*
X173168215Y-98848903D01*
X172966124Y-98783241D01*
X172900000Y-98772768D01*
X172900000Y-99666988D01*
X172842993Y-99634075D01*
X172715826Y-99600000D01*
X172584174Y-99600000D01*
X172457007Y-99634075D01*
X172400000Y-99666988D01*
X172400000Y-98772768D01*
X172399999Y-98772768D01*
X172333875Y-98783241D01*
X172131784Y-98848903D01*
X171942442Y-98945379D01*
X171770540Y-99070272D01*
X171770535Y-99070276D01*
X171620276Y-99220535D01*
X171620272Y-99220540D01*
X171495379Y-99392442D01*
X171398904Y-99581782D01*
X171333242Y-99783869D01*
X171333242Y-99783872D01*
X171313547Y-99908220D01*
X171283618Y-99971355D01*
X171224306Y-100008286D01*
X171154443Y-100007288D01*
X171096211Y-99968678D01*
X171069457Y-99913013D01*
X171060189Y-99866424D01*
X171049936Y-99814874D01*
X171002313Y-99699901D01*
X170976253Y-99636986D01*
X170976246Y-99636973D01*
X170869274Y-99476880D01*
X170869271Y-99476876D01*
X170733123Y-99340728D01*
X170733119Y-99340725D01*
X170573026Y-99233753D01*
X170573013Y-99233746D01*
X170395132Y-99160066D01*
X170395128Y-99160064D01*
X170395126Y-99160064D01*
X170395122Y-99160063D01*
X170395118Y-99160062D01*
X170206279Y-99122500D01*
X170206275Y-99122500D01*
X170013725Y-99122500D01*
X170013720Y-99122500D01*
X169824881Y-99160062D01*
X169824867Y-99160066D01*
X169646986Y-99233746D01*
X169646973Y-99233753D01*
X169486880Y-99340725D01*
X169486876Y-99340728D01*
X169350728Y-99476876D01*
X169350725Y-99476880D01*
X169243753Y-99636973D01*
X169243746Y-99636986D01*
X169170066Y-99814867D01*
X169170062Y-99814881D01*
X169132500Y-100003720D01*
X168547499Y-100003720D01*
X168509936Y-99814874D01*
X168462313Y-99699901D01*
X168436253Y-99636986D01*
X168436246Y-99636973D01*
X168329274Y-99476880D01*
X168329271Y-99476876D01*
X168193123Y-99340728D01*
X168193119Y-99340725D01*
X168033026Y-99233753D01*
X168033013Y-99233746D01*
X167855132Y-99160066D01*
X167855128Y-99160064D01*
X167855126Y-99160064D01*
X167855122Y-99160063D01*
X167855118Y-99160062D01*
X167666279Y-99122500D01*
X167666275Y-99122500D01*
X167473725Y-99122500D01*
X167473720Y-99122500D01*
X167284881Y-99160062D01*
X167284867Y-99160066D01*
X167106986Y-99233746D01*
X167106973Y-99233753D01*
X166946880Y-99340725D01*
X166946876Y-99340728D01*
X166810728Y-99476876D01*
X166810725Y-99476880D01*
X166703753Y-99636973D01*
X166703746Y-99636986D01*
X166630066Y-99814867D01*
X166630062Y-99814881D01*
X166592500Y-100003720D01*
X166007500Y-100003720D01*
X166007500Y-99237442D01*
X166000102Y-99200252D01*
X166000101Y-99200250D01*
X165971922Y-99158077D01*
X165929749Y-99129898D01*
X165892559Y-99122500D01*
X165892558Y-99122500D01*
X165540017Y-99122500D01*
X165472978Y-99102815D01*
X165427223Y-99050011D01*
X165417279Y-98980853D01*
X165446304Y-98917297D01*
X165452336Y-98910819D01*
X165925714Y-98437441D01*
X188922500Y-98437441D01*
X188922500Y-100162558D01*
X188929898Y-100199749D01*
X188958077Y-100241922D01*
X189000250Y-100270101D01*
X189000252Y-100270102D01*
X189028205Y-100275662D01*
X189037441Y-100277500D01*
X189037442Y-100277500D01*
X190762559Y-100277500D01*
X190769957Y-100276028D01*
X190799748Y-100270102D01*
X190841922Y-100241922D01*
X190870102Y-100199748D01*
X190877500Y-100162558D01*
X190877500Y-98437442D01*
X190870102Y-98400252D01*
X190869447Y-98399271D01*
X190841922Y-98358077D01*
X190799749Y-98329898D01*
X190762559Y-98322500D01*
X190762558Y-98322500D01*
X189037442Y-98322500D01*
X189037441Y-98322500D01*
X189000250Y-98329898D01*
X188958077Y-98358077D01*
X188929898Y-98400250D01*
X188922500Y-98437441D01*
X165925714Y-98437441D01*
X166299336Y-98063819D01*
X166360659Y-98030334D01*
X166387017Y-98027500D01*
X168343114Y-98027500D01*
X168343116Y-98027500D01*
X168426410Y-98005181D01*
X168501090Y-97962065D01*
X168615311Y-97847844D01*
X182550000Y-97847844D01*
X182556401Y-97907372D01*
X182556403Y-97907379D01*
X182606645Y-98042086D01*
X182606649Y-98042093D01*
X182692809Y-98157187D01*
X182692812Y-98157190D01*
X182807906Y-98243350D01*
X182807913Y-98243354D01*
X182942620Y-98293596D01*
X182942627Y-98293598D01*
X183002155Y-98299999D01*
X183002172Y-98300000D01*
X183500000Y-98300000D01*
X184000000Y-98300000D01*
X184497828Y-98300000D01*
X184497844Y-98299999D01*
X184557372Y-98293598D01*
X184557379Y-98293596D01*
X184692086Y-98243354D01*
X184692093Y-98243350D01*
X184807187Y-98157190D01*
X184807190Y-98157187D01*
X184893350Y-98042093D01*
X184893354Y-98042086D01*
X184943596Y-97907379D01*
X184943598Y-97907372D01*
X184949999Y-97847844D01*
X184950000Y-97847827D01*
X184950000Y-97250000D01*
X184000000Y-97250000D01*
X184000000Y-98300000D01*
X183500000Y-98300000D01*
X183500000Y-97250000D01*
X182550000Y-97250000D01*
X182550000Y-97847844D01*
X168615311Y-97847844D01*
X169558116Y-96905039D01*
X169601232Y-96830359D01*
X169623551Y-96747065D01*
X169623551Y-96660833D01*
X169623551Y-95915311D01*
X169643236Y-95848272D01*
X169696040Y-95802517D01*
X169709233Y-95797379D01*
X169710627Y-95796927D01*
X169862095Y-95719750D01*
X169999624Y-95619829D01*
X170119829Y-95499624D01*
X170219750Y-95362095D01*
X170296927Y-95210627D01*
X170349458Y-95048952D01*
X170371940Y-94907007D01*
X170376051Y-94881054D01*
X170376051Y-94711047D01*
X170357358Y-94593030D01*
X170349458Y-94543150D01*
X170317723Y-94445478D01*
X170296928Y-94381477D01*
X170296927Y-94381474D01*
X170219749Y-94230006D01*
X170119829Y-94092478D01*
X169999624Y-93972273D01*
X169862095Y-93872352D01*
X169797457Y-93839417D01*
X169710627Y-93795174D01*
X169710624Y-93795173D01*
X169548953Y-93742644D01*
X169381054Y-93716051D01*
X169381049Y-93716051D01*
X169211053Y-93716051D01*
X169211048Y-93716051D01*
X169043148Y-93742644D01*
X168881477Y-93795173D01*
X168881474Y-93795174D01*
X168730006Y-93872352D01*
X168681751Y-93907412D01*
X168592478Y-93972273D01*
X168592476Y-93972275D01*
X168592475Y-93972275D01*
X168472275Y-94092475D01*
X168472275Y-94092476D01*
X168472273Y-94092478D01*
X168466445Y-94100500D01*
X168372352Y-94230006D01*
X168295174Y-94381474D01*
X168295173Y-94381477D01*
X168242644Y-94543148D01*
X168216051Y-94711047D01*
X168216051Y-94881054D01*
X168242644Y-95048953D01*
X168295173Y-95210624D01*
X168295174Y-95210627D01*
X168361628Y-95341049D01*
X168372352Y-95362095D01*
X168472273Y-95499624D01*
X168592478Y-95619829D01*
X168730007Y-95719750D01*
X168788930Y-95749773D01*
X168881472Y-95796926D01*
X168881474Y-95796926D01*
X168881475Y-95796927D01*
X168882864Y-95797378D01*
X168883325Y-95797693D01*
X168885975Y-95798791D01*
X168885744Y-95799347D01*
X168940541Y-95836813D01*
X168967742Y-95901171D01*
X168968551Y-95915311D01*
X168968551Y-96516932D01*
X168948866Y-96583971D01*
X168932232Y-96604613D01*
X168200664Y-97336181D01*
X168139341Y-97369666D01*
X168112983Y-97372500D01*
X166243116Y-97372500D01*
X166156884Y-97372500D01*
X166101354Y-97387379D01*
X166073589Y-97394819D01*
X165998911Y-97437934D01*
X165998908Y-97437936D01*
X164767936Y-98668908D01*
X164767934Y-98668911D01*
X164724819Y-98743589D01*
X164702500Y-98826885D01*
X164702500Y-98998500D01*
X164682815Y-99065539D01*
X164630011Y-99111294D01*
X164578500Y-99122500D01*
X164167441Y-99122500D01*
X164130250Y-99129898D01*
X164088077Y-99158077D01*
X164059898Y-99200250D01*
X164052500Y-99237441D01*
X149519648Y-99237441D01*
X154568270Y-94188819D01*
X154629593Y-94155334D01*
X154655951Y-94152500D01*
X158529291Y-94152500D01*
X158596330Y-94172185D01*
X158634133Y-94210287D01*
X158644189Y-94226210D01*
X158651793Y-94254587D01*
X158704520Y-94345913D01*
X158745959Y-94387352D01*
X158753342Y-94399042D01*
X158759282Y-94419880D01*
X158769666Y-94438897D01*
X158772500Y-94465255D01*
X158772500Y-94500226D01*
X158774280Y-94504523D01*
X158810941Y-94593030D01*
X159360941Y-95143030D01*
X159431970Y-95214059D01*
X159524775Y-95252500D01*
X159524777Y-95252500D01*
X160650223Y-95252500D01*
X160650225Y-95252500D01*
X160743030Y-95214059D01*
X161246042Y-94711047D01*
X164623949Y-94711047D01*
X164623949Y-94881054D01*
X164650542Y-95048953D01*
X164703071Y-95210624D01*
X164703072Y-95210627D01*
X164769526Y-95341049D01*
X164780250Y-95362095D01*
X164880171Y-95499624D01*
X165000376Y-95619829D01*
X165137905Y-95719750D01*
X165196832Y-95749775D01*
X165289372Y-95796927D01*
X165289375Y-95796928D01*
X165370210Y-95823192D01*
X165451048Y-95849458D01*
X165528810Y-95861774D01*
X165618946Y-95876051D01*
X165618951Y-95876051D01*
X165788952Y-95876051D01*
X165870347Y-95863158D01*
X165956850Y-95849458D01*
X166112788Y-95798791D01*
X166118522Y-95796928D01*
X166118525Y-95796927D01*
X166141252Y-95785347D01*
X166269993Y-95719750D01*
X166407522Y-95619829D01*
X166527727Y-95499624D01*
X166627648Y-95362095D01*
X166704825Y-95210627D01*
X166757356Y-95048952D01*
X166779838Y-94907007D01*
X166783949Y-94881054D01*
X166783949Y-94711047D01*
X166765256Y-94593030D01*
X166757356Y-94543150D01*
X166725621Y-94445478D01*
X166704826Y-94381477D01*
X166704825Y-94381474D01*
X166627647Y-94230006D01*
X166527727Y-94092478D01*
X166407522Y-93972273D01*
X166269993Y-93872352D01*
X166205355Y-93839417D01*
X166118525Y-93795174D01*
X166118522Y-93795173D01*
X165956851Y-93742644D01*
X165788952Y-93716051D01*
X165788947Y-93716051D01*
X165618951Y-93716051D01*
X165618946Y-93716051D01*
X165451046Y-93742644D01*
X165289375Y-93795173D01*
X165289372Y-93795174D01*
X165137904Y-93872352D01*
X165089649Y-93907412D01*
X165000376Y-93972273D01*
X165000374Y-93972275D01*
X165000373Y-93972275D01*
X164880173Y-94092475D01*
X164880173Y-94092476D01*
X164880171Y-94092478D01*
X164874343Y-94100500D01*
X164780250Y-94230006D01*
X164703072Y-94381474D01*
X164703071Y-94381477D01*
X164650542Y-94543148D01*
X164623949Y-94711047D01*
X161246042Y-94711047D01*
X162668270Y-93288819D01*
X162729593Y-93255334D01*
X162755951Y-93252500D01*
X173344049Y-93252500D01*
X173411088Y-93272185D01*
X173431730Y-93288819D01*
X177285941Y-97143030D01*
X177356970Y-97214059D01*
X177449775Y-97252500D01*
X177449777Y-97252500D01*
X181850223Y-97252500D01*
X181850225Y-97252500D01*
X181943030Y-97214059D01*
X182390865Y-96766223D01*
X182452186Y-96732740D01*
X182521877Y-96737724D01*
X182540979Y-96750000D01*
X184950000Y-96750000D01*
X184950000Y-96152172D01*
X184949999Y-96152155D01*
X184943598Y-96092627D01*
X184943596Y-96092620D01*
X184893354Y-95957913D01*
X184893352Y-95957910D01*
X184813178Y-95850812D01*
X184788760Y-95785347D01*
X184803611Y-95717074D01*
X184853016Y-95667668D01*
X184912444Y-95652500D01*
X187244049Y-95652500D01*
X187311088Y-95672185D01*
X187331730Y-95688819D01*
X187526825Y-95883914D01*
X187560310Y-95945237D01*
X187555326Y-96014929D01*
X187513454Y-96070862D01*
X187508035Y-96074697D01*
X187458077Y-96108077D01*
X187429898Y-96150250D01*
X187422500Y-96187441D01*
X187422500Y-97812558D01*
X187429898Y-97849749D01*
X187458077Y-97891922D01*
X187500250Y-97920101D01*
X187500252Y-97920102D01*
X187525468Y-97925118D01*
X187537441Y-97927500D01*
X187537442Y-97927500D01*
X188962559Y-97927500D01*
X188969957Y-97926028D01*
X188999748Y-97920102D01*
X189041922Y-97891922D01*
X189070102Y-97849748D01*
X189077500Y-97812558D01*
X189077500Y-96187442D01*
X189070102Y-96150252D01*
X189068113Y-96147275D01*
X189041922Y-96108077D01*
X188999749Y-96079898D01*
X188962559Y-96072500D01*
X188962558Y-96072500D01*
X188626500Y-96072500D01*
X188559461Y-96052815D01*
X188513706Y-96000011D01*
X188502500Y-95948500D01*
X188502500Y-91637441D01*
X188922500Y-91637441D01*
X188922500Y-93362558D01*
X188929898Y-93399749D01*
X188958077Y-93441922D01*
X189000250Y-93470101D01*
X189000252Y-93470102D01*
X189028205Y-93475662D01*
X189037441Y-93477500D01*
X189037442Y-93477500D01*
X190762559Y-93477500D01*
X190769957Y-93476028D01*
X190799748Y-93470102D01*
X190841922Y-93441922D01*
X190870102Y-93399748D01*
X190877500Y-93362558D01*
X190877500Y-91637442D01*
X190870102Y-91600252D01*
X190870101Y-91600250D01*
X190841922Y-91558077D01*
X190799749Y-91529898D01*
X190762559Y-91522500D01*
X190762558Y-91522500D01*
X189037442Y-91522500D01*
X189037441Y-91522500D01*
X189000250Y-91529898D01*
X188958077Y-91558077D01*
X188929898Y-91600250D01*
X188922500Y-91637441D01*
X188502500Y-91637441D01*
X188502500Y-90051500D01*
X188522185Y-89984461D01*
X188574989Y-89938706D01*
X188626500Y-89927500D01*
X188962559Y-89927500D01*
X188969957Y-89926028D01*
X188999748Y-89920102D01*
X189041922Y-89891922D01*
X189070102Y-89849748D01*
X189077500Y-89812558D01*
X189077500Y-88187442D01*
X189070102Y-88150252D01*
X189054428Y-88126794D01*
X189041922Y-88108077D01*
X188999749Y-88079898D01*
X188962559Y-88072500D01*
X188962558Y-88072500D01*
X187537442Y-88072500D01*
X187537441Y-88072500D01*
X187500250Y-88079898D01*
X187458077Y-88108077D01*
X187429898Y-88150250D01*
X187422500Y-88187441D01*
X187422500Y-89812558D01*
X187429898Y-89849749D01*
X187458077Y-89891922D01*
X187500250Y-89920101D01*
X187500252Y-89920102D01*
X187528205Y-89925662D01*
X187537441Y-89927500D01*
X187537442Y-89927500D01*
X187873500Y-89927500D01*
X187940539Y-89947185D01*
X187986294Y-89999989D01*
X187997500Y-90051500D01*
X187997500Y-95341049D01*
X187977815Y-95408088D01*
X187925011Y-95453843D01*
X187855853Y-95463787D01*
X187792297Y-95434762D01*
X187785819Y-95428730D01*
X187543030Y-95185941D01*
X187450226Y-95147500D01*
X187450225Y-95147500D01*
X182650225Y-95147500D01*
X182549775Y-95147500D01*
X182549773Y-95147500D01*
X182456969Y-95185941D01*
X181985941Y-95656969D01*
X181947500Y-95749773D01*
X181947500Y-96444049D01*
X181927815Y-96511088D01*
X181911181Y-96531730D01*
X181731730Y-96711181D01*
X181670407Y-96744666D01*
X181644049Y-96747500D01*
X181215346Y-96747500D01*
X181148307Y-96727815D01*
X181102552Y-96675011D01*
X181092608Y-96605853D01*
X181121633Y-96542297D01*
X181139861Y-96525123D01*
X181145905Y-96520484D01*
X181145913Y-96520480D01*
X181220480Y-96445913D01*
X181273207Y-96354587D01*
X181300500Y-96252727D01*
X181300500Y-96147273D01*
X181273207Y-96045413D01*
X181220480Y-95954087D01*
X181145913Y-95879520D01*
X181054587Y-95826793D01*
X180952727Y-95799500D01*
X180847273Y-95799500D01*
X180745413Y-95826793D01*
X180745410Y-95826794D01*
X180654085Y-95879521D01*
X180622426Y-95911181D01*
X180561103Y-95944666D01*
X180534745Y-95947500D01*
X177455951Y-95947500D01*
X177388912Y-95927815D01*
X177368270Y-95911181D01*
X174457090Y-93000001D01*
X175897498Y-93000001D01*
X175898938Y-93015077D01*
X175899500Y-93026867D01*
X175899500Y-93086615D01*
X175914684Y-93182482D01*
X175914684Y-93182483D01*
X175915286Y-93186288D01*
X175917422Y-93208650D01*
X175920474Y-93219046D01*
X175921723Y-93226929D01*
X175921725Y-93226937D01*
X175926597Y-93257699D01*
X175939775Y-93298255D01*
X175980127Y-93422445D01*
X176058768Y-93576788D01*
X176068498Y-93590180D01*
X176071898Y-93594860D01*
X176072516Y-93596058D01*
X176075831Y-93600273D01*
X176160586Y-93716928D01*
X176160588Y-93716930D01*
X176193285Y-93749627D01*
X176202082Y-93760813D01*
X176219978Y-93776320D01*
X176283075Y-93839417D01*
X176338946Y-93880009D01*
X176343246Y-93883133D01*
X176360486Y-93898072D01*
X176376658Y-93907408D01*
X176423212Y-93941232D01*
X176525610Y-93993405D01*
X176542004Y-94002871D01*
X176548807Y-94005225D01*
X176577555Y-94019873D01*
X176742299Y-94073402D01*
X176913389Y-94100500D01*
X176913390Y-94100500D01*
X176942304Y-94100500D01*
X176947541Y-94101253D01*
X176963349Y-94100500D01*
X177086607Y-94100500D01*
X177086611Y-94100500D01*
X177139632Y-94092102D01*
X177156902Y-94091280D01*
X177179609Y-94085770D01*
X177257701Y-94073402D01*
X177337579Y-94047447D01*
X177360593Y-94041865D01*
X177374968Y-94035299D01*
X177422445Y-94019873D01*
X177540837Y-93959549D01*
X177551251Y-93954795D01*
X177553967Y-93952859D01*
X177576788Y-93941232D01*
X177716928Y-93839414D01*
X177839414Y-93716928D01*
X177860383Y-93688065D01*
X177866625Y-93681522D01*
X177878013Y-93663801D01*
X177941232Y-93576788D01*
X177969167Y-93521961D01*
X177979943Y-93505196D01*
X177988130Y-93484743D01*
X178019873Y-93422445D01*
X178049179Y-93332250D01*
X178057843Y-93310611D01*
X178060222Y-93298263D01*
X178073402Y-93257701D01*
X178100500Y-93086611D01*
X178100500Y-92913389D01*
X178073402Y-92742299D01*
X178060223Y-92701739D01*
X178057843Y-92689389D01*
X178049179Y-92667749D01*
X178019873Y-92577555D01*
X177988130Y-92515256D01*
X177979943Y-92494804D01*
X177969163Y-92478030D01*
X177941232Y-92423212D01*
X177878010Y-92336195D01*
X177866625Y-92318478D01*
X177860377Y-92311925D01*
X177855514Y-92305232D01*
X177839414Y-92283072D01*
X177716928Y-92160586D01*
X177638666Y-92103725D01*
X177576792Y-92058770D01*
X177576784Y-92058766D01*
X177562141Y-92051305D01*
X177553970Y-92047141D01*
X177551251Y-92045205D01*
X177540836Y-92040448D01*
X177538468Y-92039242D01*
X177538450Y-92039234D01*
X177422449Y-91980128D01*
X177381718Y-91966894D01*
X177381718Y-91966893D01*
X177374968Y-91964699D01*
X177360593Y-91958135D01*
X177337580Y-91952552D01*
X177333074Y-91951088D01*
X177257706Y-91926599D01*
X177257698Y-91926597D01*
X177184583Y-91915015D01*
X177184583Y-91915016D01*
X177179604Y-91914227D01*
X177156902Y-91908720D01*
X177139630Y-91907897D01*
X177132916Y-91906834D01*
X177132914Y-91906833D01*
X177132912Y-91906833D01*
X177086615Y-91899500D01*
X177086611Y-91899500D01*
X176963349Y-91899500D01*
X176947541Y-91898747D01*
X176942304Y-91899500D01*
X176913389Y-91899500D01*
X176885678Y-91903889D01*
X176742301Y-91926597D01*
X176577561Y-91980124D01*
X176577545Y-91980131D01*
X176556438Y-91990883D01*
X176556439Y-91990884D01*
X176548797Y-91994777D01*
X176542004Y-91997129D01*
X176525626Y-92006584D01*
X176522721Y-92008065D01*
X176522719Y-92008065D01*
X176423214Y-92058766D01*
X176381913Y-92088772D01*
X176381912Y-92088771D01*
X176376638Y-92092602D01*
X176360486Y-92101928D01*
X176343268Y-92116847D01*
X176338951Y-92119984D01*
X176338945Y-92119990D01*
X176283071Y-92160586D01*
X176223103Y-92220553D01*
X176223102Y-92220552D01*
X176219949Y-92223704D01*
X176202082Y-92239187D01*
X176193297Y-92250357D01*
X176188070Y-92255585D01*
X176160591Y-92283066D01*
X176160585Y-92283073D01*
X176077212Y-92397821D01*
X176077213Y-92397822D01*
X176075808Y-92399754D01*
X176072516Y-92403942D01*
X176071902Y-92405132D01*
X176068507Y-92409806D01*
X176068504Y-92409808D01*
X176058771Y-92423205D01*
X175980128Y-92577552D01*
X175926597Y-92742301D01*
X175921725Y-92773063D01*
X175921725Y-92773065D01*
X175920476Y-92780948D01*
X175917422Y-92791350D01*
X175915288Y-92813697D01*
X175914685Y-92817504D01*
X175914684Y-92817516D01*
X175899500Y-92913389D01*
X175899500Y-92973123D01*
X175898939Y-92984908D01*
X175897498Y-93000001D01*
X174457090Y-93000001D01*
X173843030Y-92385941D01*
X173750226Y-92347500D01*
X173750225Y-92347500D01*
X166911863Y-92347500D01*
X166844824Y-92327815D01*
X166799069Y-92275011D01*
X166789125Y-92205853D01*
X166811545Y-92150615D01*
X166946235Y-91965228D01*
X167050031Y-91761519D01*
X167120683Y-91544077D01*
X167134958Y-91453949D01*
X166136961Y-91453949D01*
X166169874Y-91396942D01*
X166203949Y-91269775D01*
X166203949Y-91138123D01*
X166169874Y-91010956D01*
X166136961Y-90953949D01*
X167134958Y-90953949D01*
X167120683Y-90863820D01*
X167050031Y-90646378D01*
X166946237Y-90442672D01*
X166811851Y-90257706D01*
X166650191Y-90096046D01*
X166465225Y-89961660D01*
X166261517Y-89857866D01*
X166044073Y-89787214D01*
X165953949Y-89772939D01*
X165953949Y-90770937D01*
X165896942Y-90738024D01*
X165769775Y-90703949D01*
X165638123Y-90703949D01*
X165510956Y-90738024D01*
X165453949Y-90770937D01*
X165453949Y-89772939D01*
X165453948Y-89772939D01*
X165363824Y-89787214D01*
X165146380Y-89857866D01*
X164942672Y-89961660D01*
X164757706Y-90096046D01*
X164596046Y-90257706D01*
X164461660Y-90442672D01*
X164357866Y-90646378D01*
X164287214Y-90863820D01*
X164272940Y-90953949D01*
X165270937Y-90953949D01*
X165238024Y-91010956D01*
X165203949Y-91138123D01*
X165203949Y-91269775D01*
X165238024Y-91396942D01*
X165270937Y-91453949D01*
X164272940Y-91453949D01*
X164287214Y-91544077D01*
X164357866Y-91761519D01*
X164461662Y-91965228D01*
X164596353Y-92150615D01*
X164619833Y-92216421D01*
X164604008Y-92284475D01*
X164553902Y-92333170D01*
X164496035Y-92347500D01*
X157390268Y-92347500D01*
X157323229Y-92327815D01*
X157277474Y-92275011D01*
X157267530Y-92205853D01*
X157296555Y-92142297D01*
X157355333Y-92104523D01*
X157358140Y-92103734D01*
X157403607Y-92091552D01*
X157523893Y-92022105D01*
X157622105Y-91923893D01*
X157641038Y-91891099D01*
X157691605Y-91842884D01*
X157748425Y-91829100D01*
X161845569Y-91829100D01*
X161845570Y-91829100D01*
X161845571Y-91829100D01*
X161870233Y-91818884D01*
X161929775Y-91794222D01*
X162974204Y-90749791D01*
X163035525Y-90716308D01*
X163093975Y-90717698D01*
X163130553Y-90727500D01*
X163130555Y-90727500D01*
X163269445Y-90727500D01*
X163269447Y-90727500D01*
X163403607Y-90691552D01*
X163523893Y-90622105D01*
X163622105Y-90523893D01*
X163691552Y-90403607D01*
X163727500Y-90269447D01*
X163727500Y-90130553D01*
X163691552Y-89996393D01*
X163651777Y-89927500D01*
X163622107Y-89876110D01*
X163622103Y-89876105D01*
X163523894Y-89777896D01*
X163523889Y-89777892D01*
X163403609Y-89708449D01*
X163403608Y-89708448D01*
X163403607Y-89708448D01*
X163269447Y-89672500D01*
X163130553Y-89672500D01*
X162996393Y-89708448D01*
X162996390Y-89708449D01*
X162876110Y-89777892D01*
X162876105Y-89777896D01*
X162777896Y-89876105D01*
X162777892Y-89876110D01*
X162708449Y-89996390D01*
X162708448Y-89996393D01*
X162672500Y-90130553D01*
X162672500Y-90269446D01*
X162682300Y-90306021D01*
X162680637Y-90375871D01*
X162650206Y-90425795D01*
X161741422Y-91334581D01*
X161680099Y-91368066D01*
X161653741Y-91370900D01*
X157748425Y-91370900D01*
X157681386Y-91351215D01*
X157641038Y-91308900D01*
X157622105Y-91276107D01*
X157523893Y-91177895D01*
X157523892Y-91177894D01*
X157523889Y-91177892D01*
X157403609Y-91108449D01*
X157403608Y-91108448D01*
X157403607Y-91108448D01*
X157269447Y-91072500D01*
X157130553Y-91072500D01*
X156996393Y-91108448D01*
X156996390Y-91108449D01*
X156876110Y-91177892D01*
X156876105Y-91177896D01*
X156777896Y-91276105D01*
X156777892Y-91276110D01*
X156708449Y-91396390D01*
X156708448Y-91396393D01*
X156672500Y-91530553D01*
X156672500Y-91669447D01*
X156705934Y-91794222D01*
X156708448Y-91803606D01*
X156708449Y-91803609D01*
X156777892Y-91923889D01*
X156777894Y-91923892D01*
X156777895Y-91923893D01*
X156876107Y-92022105D01*
X156996393Y-92091552D01*
X157041826Y-92103725D01*
X157101486Y-92140090D01*
X157132015Y-92202937D01*
X157123720Y-92272312D01*
X157079235Y-92326190D01*
X157012683Y-92347465D01*
X157009732Y-92347500D01*
X156455951Y-92347500D01*
X156388912Y-92327815D01*
X156368270Y-92311181D01*
X156188819Y-92131730D01*
X156155334Y-92070407D01*
X156152500Y-92044049D01*
X156152500Y-88623678D01*
X156156493Y-88592462D01*
X156160718Y-88576217D01*
X156173207Y-88554587D01*
X156200500Y-88452727D01*
X156200500Y-88447273D01*
X161224500Y-88447273D01*
X161224500Y-88552727D01*
X161251793Y-88654587D01*
X161304520Y-88745913D01*
X161379087Y-88820480D01*
X161470413Y-88873207D01*
X161572273Y-88900500D01*
X161572275Y-88900500D01*
X161677725Y-88900500D01*
X161677727Y-88900500D01*
X161779587Y-88873207D01*
X161870913Y-88820480D01*
X161902574Y-88788819D01*
X161963897Y-88755334D01*
X161990255Y-88752500D01*
X168744049Y-88752500D01*
X168811088Y-88772185D01*
X168831730Y-88788819D01*
X170385941Y-90343030D01*
X170456970Y-90414059D01*
X170549775Y-90452500D01*
X172234745Y-90452500D01*
X172301784Y-90472185D01*
X172322426Y-90488819D01*
X172354087Y-90520480D01*
X172445413Y-90573207D01*
X172547273Y-90600500D01*
X172547275Y-90600500D01*
X172652725Y-90600500D01*
X172652727Y-90600500D01*
X172754587Y-90573207D01*
X172845913Y-90520480D01*
X172920480Y-90445913D01*
X172973207Y-90354587D01*
X173000500Y-90252727D01*
X173000500Y-90147273D01*
X172973207Y-90045413D01*
X172920480Y-89954087D01*
X172845913Y-89879520D01*
X172791048Y-89847844D01*
X182550000Y-89847844D01*
X182556401Y-89907372D01*
X182556403Y-89907379D01*
X182606645Y-90042086D01*
X182606649Y-90042093D01*
X182692809Y-90157187D01*
X182692812Y-90157190D01*
X182807906Y-90243350D01*
X182807913Y-90243354D01*
X182942620Y-90293596D01*
X182942627Y-90293598D01*
X183002155Y-90299999D01*
X183002172Y-90300000D01*
X183500000Y-90300000D01*
X184000000Y-90300000D01*
X184497828Y-90300000D01*
X184497844Y-90299999D01*
X184557372Y-90293598D01*
X184557379Y-90293596D01*
X184692086Y-90243354D01*
X184692093Y-90243350D01*
X184807187Y-90157190D01*
X184807190Y-90157187D01*
X184893350Y-90042093D01*
X184893354Y-90042086D01*
X184943596Y-89907379D01*
X184943598Y-89907372D01*
X184949999Y-89847844D01*
X184950000Y-89847827D01*
X184950000Y-89250000D01*
X184000000Y-89250000D01*
X184000000Y-90300000D01*
X183500000Y-90300000D01*
X183500000Y-89250000D01*
X182550000Y-89250000D01*
X182550000Y-89847844D01*
X172791048Y-89847844D01*
X172754587Y-89826793D01*
X172652727Y-89799500D01*
X172547273Y-89799500D01*
X172445413Y-89826793D01*
X172445410Y-89826794D01*
X172354085Y-89879521D01*
X172322426Y-89911181D01*
X172261103Y-89944666D01*
X172234745Y-89947500D01*
X170755951Y-89947500D01*
X170688912Y-89927815D01*
X170668270Y-89911181D01*
X169043030Y-88285941D01*
X168950226Y-88247500D01*
X168950225Y-88247500D01*
X161990255Y-88247500D01*
X161923216Y-88227815D01*
X161902574Y-88211181D01*
X161870914Y-88179521D01*
X161870913Y-88179520D01*
X161779587Y-88126793D01*
X161677727Y-88099500D01*
X161572273Y-88099500D01*
X161470413Y-88126793D01*
X161470410Y-88126794D01*
X161379085Y-88179521D01*
X161304521Y-88254085D01*
X161251794Y-88345410D01*
X161251793Y-88345413D01*
X161224500Y-88447273D01*
X156200500Y-88447273D01*
X156200500Y-88347273D01*
X156173207Y-88245413D01*
X156120480Y-88154087D01*
X156045913Y-88079520D01*
X155954587Y-88026793D01*
X155852727Y-87999500D01*
X155747273Y-87999500D01*
X155645413Y-88026793D01*
X155645410Y-88026794D01*
X155554085Y-88079521D01*
X155479521Y-88154085D01*
X155426794Y-88245410D01*
X155426793Y-88245413D01*
X155399500Y-88347273D01*
X155399500Y-88452727D01*
X155426793Y-88554587D01*
X155479520Y-88645913D01*
X155554087Y-88720480D01*
X155585502Y-88738617D01*
X155633715Y-88789180D01*
X155647500Y-88846002D01*
X155647500Y-92250226D01*
X155672749Y-92311181D01*
X155685941Y-92343030D01*
X156156970Y-92814059D01*
X156249775Y-92852500D01*
X156350225Y-92852500D01*
X162091049Y-92852500D01*
X162158088Y-92872185D01*
X162203843Y-92924989D01*
X162213787Y-92994147D01*
X162184762Y-93057703D01*
X162178730Y-93064181D01*
X160531730Y-94711181D01*
X160470407Y-94744666D01*
X160444049Y-94747500D01*
X159841085Y-94747500D01*
X159774046Y-94727815D01*
X159728291Y-94675011D01*
X159718347Y-94605853D01*
X159747372Y-94542297D01*
X159806150Y-94504523D01*
X159808964Y-94503732D01*
X159829587Y-94498207D01*
X159920913Y-94445480D01*
X159995480Y-94370913D01*
X160048207Y-94279587D01*
X160075500Y-94177727D01*
X160075500Y-94072273D01*
X160048207Y-93970413D01*
X159995480Y-93879087D01*
X159941558Y-93825165D01*
X159914678Y-93784937D01*
X159905818Y-93763547D01*
X159889059Y-93723086D01*
X159818030Y-93652057D01*
X159351914Y-93185941D01*
X159345111Y-93183123D01*
X159259110Y-93147500D01*
X159259109Y-93147500D01*
X154555951Y-93147500D01*
X154488912Y-93127815D01*
X154468270Y-93111181D01*
X150281362Y-88924273D01*
X150247877Y-88862950D01*
X150252861Y-88793258D01*
X150261654Y-88774597D01*
X150273207Y-88754587D01*
X150300500Y-88652727D01*
X150300500Y-88547273D01*
X150275166Y-88452726D01*
X150273705Y-88447273D01*
X150273207Y-88445413D01*
X150264628Y-88430553D01*
X153572500Y-88430553D01*
X153572500Y-88569447D01*
X153594815Y-88652725D01*
X153608448Y-88703606D01*
X153608449Y-88703609D01*
X153677892Y-88823889D01*
X153677894Y-88823892D01*
X153677895Y-88823893D01*
X153776107Y-88922105D01*
X153776108Y-88922106D01*
X153776110Y-88922107D01*
X153816478Y-88945413D01*
X153896393Y-88991552D01*
X154030553Y-89027500D01*
X154112983Y-89027500D01*
X154180022Y-89047185D01*
X154200664Y-89063819D01*
X154436181Y-89299336D01*
X154469666Y-89360659D01*
X154472500Y-89387017D01*
X154472500Y-91830140D01*
X154452815Y-91897179D01*
X154436181Y-91917821D01*
X154377896Y-91976105D01*
X154377892Y-91976110D01*
X154308449Y-92096390D01*
X154308448Y-92096393D01*
X154272500Y-92230553D01*
X154272500Y-92369447D01*
X154306090Y-92494804D01*
X154308448Y-92503606D01*
X154308449Y-92503609D01*
X154377892Y-92623889D01*
X154377894Y-92623892D01*
X154377895Y-92623893D01*
X154476107Y-92722105D01*
X154476108Y-92722106D01*
X154476110Y-92722107D01*
X154536250Y-92756828D01*
X154596393Y-92791552D01*
X154730553Y-92827500D01*
X154730555Y-92827500D01*
X154869445Y-92827500D01*
X154869447Y-92827500D01*
X155003607Y-92791552D01*
X155123893Y-92722105D01*
X155222105Y-92623893D01*
X155291552Y-92503607D01*
X155327500Y-92369447D01*
X155327500Y-92230553D01*
X155291552Y-92096393D01*
X155232884Y-91994777D01*
X155222107Y-91976110D01*
X155222103Y-91976105D01*
X155163819Y-91917821D01*
X155130334Y-91856498D01*
X155127500Y-91830140D01*
X155127500Y-89156885D01*
X155105181Y-89073590D01*
X155105181Y-89073588D01*
X155062067Y-88998913D01*
X155062062Y-88998907D01*
X154663819Y-88600664D01*
X154649115Y-88573736D01*
X154632523Y-88547918D01*
X154631631Y-88541717D01*
X154630334Y-88539341D01*
X154627500Y-88512983D01*
X154627500Y-88487017D01*
X154647185Y-88419978D01*
X154663819Y-88399336D01*
X155499336Y-87563819D01*
X155560659Y-87530334D01*
X155587017Y-87527500D01*
X169887983Y-87527500D01*
X169955022Y-87547185D01*
X169975664Y-87563819D01*
X171554638Y-89142793D01*
X171586731Y-89198379D01*
X171601792Y-89254585D01*
X171601792Y-89254586D01*
X171601793Y-89254587D01*
X171654520Y-89345913D01*
X171729087Y-89420480D01*
X171820413Y-89473207D01*
X171922273Y-89500500D01*
X171922275Y-89500500D01*
X172027725Y-89500500D01*
X172027727Y-89500500D01*
X172129587Y-89473207D01*
X172220913Y-89420480D01*
X172295480Y-89345913D01*
X172348207Y-89254587D01*
X172375500Y-89152727D01*
X172375500Y-89047273D01*
X172348207Y-88945413D01*
X172295480Y-88854087D01*
X172220913Y-88779520D01*
X172150062Y-88738614D01*
X172129586Y-88726792D01*
X172073379Y-88711731D01*
X172017793Y-88679638D01*
X171490310Y-88152155D01*
X182550000Y-88152155D01*
X182550000Y-88750000D01*
X183500000Y-88750000D01*
X184000000Y-88750000D01*
X184950000Y-88750000D01*
X184950000Y-88152172D01*
X184949999Y-88152155D01*
X184943598Y-88092627D01*
X184943596Y-88092620D01*
X184893354Y-87957913D01*
X184893350Y-87957906D01*
X184807190Y-87842812D01*
X184807187Y-87842809D01*
X184692093Y-87756649D01*
X184692086Y-87756645D01*
X184557379Y-87706403D01*
X184557372Y-87706401D01*
X184497844Y-87700000D01*
X184000000Y-87700000D01*
X184000000Y-88750000D01*
X183500000Y-88750000D01*
X183500000Y-87700000D01*
X183002155Y-87700000D01*
X182942627Y-87706401D01*
X182942620Y-87706403D01*
X182807913Y-87756645D01*
X182807906Y-87756649D01*
X182692812Y-87842809D01*
X182692809Y-87842812D01*
X182606649Y-87957906D01*
X182606645Y-87957913D01*
X182556403Y-88092620D01*
X182556401Y-88092627D01*
X182550000Y-88152155D01*
X171490310Y-88152155D01*
X170276091Y-86937936D01*
X170276090Y-86937935D01*
X170201410Y-86894819D01*
X170201411Y-86894819D01*
X170173645Y-86887379D01*
X170118116Y-86872500D01*
X155443116Y-86872500D01*
X155356884Y-86872500D01*
X155301354Y-86887379D01*
X155273589Y-86894819D01*
X155198911Y-86937934D01*
X155198908Y-86937936D01*
X154200664Y-87936181D01*
X154139341Y-87969666D01*
X154112983Y-87972500D01*
X154030553Y-87972500D01*
X153896393Y-88008448D01*
X153896390Y-88008449D01*
X153776110Y-88077892D01*
X153776105Y-88077896D01*
X153677896Y-88176105D01*
X153677892Y-88176110D01*
X153608449Y-88296390D01*
X153608448Y-88296393D01*
X153572500Y-88430553D01*
X150264628Y-88430553D01*
X150220480Y-88354087D01*
X150145913Y-88279520D01*
X150054587Y-88226793D01*
X149952727Y-88199500D01*
X149847273Y-88199500D01*
X149745413Y-88226793D01*
X149745410Y-88226794D01*
X149654085Y-88279521D01*
X149579521Y-88354085D01*
X149526794Y-88445410D01*
X149526793Y-88445413D01*
X149499500Y-88547273D01*
X149499500Y-88652727D01*
X149526793Y-88754587D01*
X149566807Y-88823894D01*
X149579521Y-88845914D01*
X149611880Y-88878273D01*
X149645365Y-88939596D01*
X149645816Y-88941761D01*
X149647499Y-88950223D01*
X149685941Y-89043030D01*
X154255230Y-93612319D01*
X154288715Y-93673642D01*
X154283731Y-93743334D01*
X154255230Y-93787681D01*
X148151730Y-99891181D01*
X148090407Y-99924666D01*
X148064049Y-99927500D01*
X145836304Y-99927500D01*
X145769265Y-99907815D01*
X145723510Y-99855011D01*
X145721743Y-99850952D01*
X145666253Y-99716986D01*
X145666246Y-99716973D01*
X145559274Y-99556880D01*
X145559271Y-99556876D01*
X145423123Y-99420728D01*
X145423119Y-99420725D01*
X145263026Y-99313753D01*
X145263013Y-99313746D01*
X145085132Y-99240066D01*
X145085128Y-99240064D01*
X145085126Y-99240064D01*
X145085122Y-99240063D01*
X145085118Y-99240062D01*
X144896279Y-99202500D01*
X144896275Y-99202500D01*
X144703725Y-99202500D01*
X144703720Y-99202500D01*
X144514881Y-99240062D01*
X144514867Y-99240066D01*
X144336986Y-99313746D01*
X144336973Y-99313753D01*
X144176880Y-99420725D01*
X144176876Y-99420728D01*
X144040728Y-99556876D01*
X144040725Y-99556880D01*
X143933753Y-99716973D01*
X143933746Y-99716986D01*
X143860066Y-99894867D01*
X143860062Y-99894881D01*
X143822500Y-100083720D01*
X143000500Y-100083720D01*
X143000500Y-94850000D01*
X143472769Y-94850000D01*
X144366988Y-94850000D01*
X144334075Y-94907007D01*
X144300000Y-95034174D01*
X144300000Y-95165826D01*
X144334075Y-95292993D01*
X144366988Y-95350000D01*
X143472769Y-95350000D01*
X143483242Y-95416126D01*
X143483242Y-95416129D01*
X143548904Y-95618217D01*
X143645379Y-95807557D01*
X143770272Y-95979459D01*
X143770276Y-95979464D01*
X143920535Y-96129723D01*
X143920540Y-96129727D01*
X144092442Y-96254620D01*
X144281782Y-96351095D01*
X144483869Y-96416757D01*
X144483874Y-96416758D01*
X144608219Y-96436452D01*
X144671354Y-96466381D01*
X144708286Y-96525692D01*
X144707288Y-96595555D01*
X144668679Y-96653788D01*
X144613014Y-96680542D01*
X144514880Y-96700062D01*
X144514867Y-96700066D01*
X144336986Y-96773746D01*
X144336973Y-96773753D01*
X144176880Y-96880725D01*
X144176876Y-96880728D01*
X144040728Y-97016876D01*
X144040725Y-97016880D01*
X143933753Y-97176973D01*
X143933746Y-97176986D01*
X143860066Y-97354867D01*
X143860062Y-97354881D01*
X143822500Y-97543720D01*
X143822500Y-97736279D01*
X143860062Y-97925118D01*
X143860066Y-97925132D01*
X143933746Y-98103013D01*
X143933753Y-98103026D01*
X144040725Y-98263119D01*
X144040728Y-98263123D01*
X144176876Y-98399271D01*
X144176880Y-98399274D01*
X144336973Y-98506246D01*
X144336986Y-98506253D01*
X144485806Y-98567896D01*
X144514874Y-98579936D01*
X144703720Y-98617499D01*
X144703724Y-98617500D01*
X144703725Y-98617500D01*
X144896276Y-98617500D01*
X144896277Y-98617499D01*
X145085126Y-98579936D01*
X145263020Y-98506250D01*
X145423120Y-98399274D01*
X145559274Y-98263120D01*
X145666250Y-98103020D01*
X145739936Y-97925126D01*
X145777500Y-97736275D01*
X145777500Y-97543725D01*
X145739936Y-97354874D01*
X145727896Y-97325806D01*
X145666253Y-97176986D01*
X145666246Y-97176973D01*
X145559274Y-97016880D01*
X145559271Y-97016876D01*
X145423123Y-96880728D01*
X145423119Y-96880725D01*
X145263026Y-96773753D01*
X145263013Y-96773746D01*
X145085132Y-96700066D01*
X145085119Y-96700062D01*
X144986985Y-96680542D01*
X144925074Y-96648157D01*
X144890500Y-96587441D01*
X144894240Y-96517672D01*
X144935107Y-96461000D01*
X144991780Y-96436452D01*
X145116126Y-96416758D01*
X145116130Y-96416757D01*
X145318217Y-96351095D01*
X145507557Y-96254620D01*
X145679459Y-96129727D01*
X145679464Y-96129723D01*
X145829723Y-95979464D01*
X145829727Y-95979459D01*
X145954620Y-95807557D01*
X146051095Y-95618217D01*
X146116757Y-95416129D01*
X146116757Y-95416126D01*
X146127231Y-95350000D01*
X145233012Y-95350000D01*
X145265925Y-95292993D01*
X145300000Y-95165826D01*
X145300000Y-95034174D01*
X145265925Y-94907007D01*
X145233012Y-94850000D01*
X146127231Y-94850000D01*
X146116757Y-94783873D01*
X146116757Y-94783870D01*
X146051095Y-94581782D01*
X145954620Y-94392442D01*
X145829727Y-94220540D01*
X145829723Y-94220535D01*
X145679464Y-94070276D01*
X145679459Y-94070272D01*
X145507557Y-93945379D01*
X145318217Y-93848904D01*
X145116129Y-93783242D01*
X144991779Y-93763547D01*
X144928644Y-93733618D01*
X144891713Y-93674306D01*
X144892711Y-93604444D01*
X144931321Y-93546211D01*
X144986983Y-93519457D01*
X145085126Y-93499936D01*
X145263020Y-93426250D01*
X145423120Y-93319274D01*
X145559274Y-93183120D01*
X145666250Y-93023020D01*
X145675785Y-93000001D01*
X149897498Y-93000001D01*
X149898938Y-93015077D01*
X149899500Y-93026867D01*
X149899500Y-93086615D01*
X149914684Y-93182482D01*
X149914684Y-93182483D01*
X149915286Y-93186288D01*
X149917422Y-93208650D01*
X149920474Y-93219046D01*
X149921723Y-93226929D01*
X149921725Y-93226937D01*
X149926597Y-93257699D01*
X149939775Y-93298255D01*
X149980127Y-93422445D01*
X150058768Y-93576788D01*
X150068498Y-93590180D01*
X150071898Y-93594860D01*
X150072516Y-93596058D01*
X150075831Y-93600273D01*
X150160586Y-93716928D01*
X150160588Y-93716930D01*
X150193285Y-93749627D01*
X150202082Y-93760813D01*
X150219978Y-93776320D01*
X150283075Y-93839417D01*
X150338946Y-93880009D01*
X150343246Y-93883133D01*
X150360486Y-93898072D01*
X150376658Y-93907408D01*
X150423212Y-93941232D01*
X150525610Y-93993405D01*
X150542004Y-94002871D01*
X150548807Y-94005225D01*
X150577555Y-94019873D01*
X150742299Y-94073402D01*
X150913389Y-94100500D01*
X150913390Y-94100500D01*
X150942304Y-94100500D01*
X150947541Y-94101253D01*
X150963349Y-94100500D01*
X151086607Y-94100500D01*
X151086611Y-94100500D01*
X151139632Y-94092102D01*
X151156902Y-94091280D01*
X151179609Y-94085770D01*
X151257701Y-94073402D01*
X151337579Y-94047447D01*
X151360593Y-94041865D01*
X151374968Y-94035299D01*
X151422445Y-94019873D01*
X151540837Y-93959549D01*
X151551251Y-93954795D01*
X151553967Y-93952859D01*
X151576788Y-93941232D01*
X151716928Y-93839414D01*
X151839414Y-93716928D01*
X151860383Y-93688065D01*
X151866625Y-93681522D01*
X151878013Y-93663801D01*
X151941232Y-93576788D01*
X151969167Y-93521961D01*
X151979943Y-93505196D01*
X151988130Y-93484743D01*
X152019873Y-93422445D01*
X152049179Y-93332250D01*
X152057843Y-93310611D01*
X152060222Y-93298263D01*
X152073402Y-93257701D01*
X152100500Y-93086611D01*
X152100500Y-92913389D01*
X152073402Y-92742299D01*
X152060223Y-92701739D01*
X152057843Y-92689389D01*
X152049179Y-92667749D01*
X152019873Y-92577555D01*
X151988130Y-92515256D01*
X151979943Y-92494804D01*
X151969163Y-92478030D01*
X151941232Y-92423212D01*
X151878010Y-92336195D01*
X151866625Y-92318478D01*
X151860377Y-92311925D01*
X151855514Y-92305232D01*
X151839414Y-92283072D01*
X151716928Y-92160586D01*
X151638666Y-92103725D01*
X151576792Y-92058770D01*
X151576784Y-92058766D01*
X151562141Y-92051305D01*
X151553970Y-92047141D01*
X151551251Y-92045205D01*
X151540836Y-92040448D01*
X151538468Y-92039242D01*
X151538450Y-92039234D01*
X151422449Y-91980128D01*
X151381718Y-91966894D01*
X151381718Y-91966893D01*
X151374968Y-91964699D01*
X151360593Y-91958135D01*
X151337580Y-91952552D01*
X151333074Y-91951088D01*
X151257706Y-91926599D01*
X151257698Y-91926597D01*
X151184583Y-91915015D01*
X151184583Y-91915016D01*
X151179604Y-91914227D01*
X151156902Y-91908720D01*
X151139630Y-91907897D01*
X151132916Y-91906834D01*
X151132914Y-91906833D01*
X151132912Y-91906833D01*
X151086615Y-91899500D01*
X151086611Y-91899500D01*
X150963349Y-91899500D01*
X150947541Y-91898747D01*
X150942304Y-91899500D01*
X150913389Y-91899500D01*
X150885678Y-91903889D01*
X150742301Y-91926597D01*
X150577561Y-91980124D01*
X150577545Y-91980131D01*
X150556438Y-91990883D01*
X150556439Y-91990884D01*
X150548797Y-91994777D01*
X150542004Y-91997129D01*
X150525626Y-92006584D01*
X150522721Y-92008065D01*
X150522719Y-92008065D01*
X150423214Y-92058766D01*
X150381913Y-92088772D01*
X150381912Y-92088771D01*
X150376638Y-92092602D01*
X150360486Y-92101928D01*
X150343268Y-92116847D01*
X150338951Y-92119984D01*
X150338945Y-92119990D01*
X150283071Y-92160586D01*
X150223103Y-92220553D01*
X150223102Y-92220552D01*
X150219949Y-92223704D01*
X150202082Y-92239187D01*
X150193297Y-92250357D01*
X150188070Y-92255585D01*
X150160591Y-92283066D01*
X150160585Y-92283073D01*
X150077212Y-92397821D01*
X150077213Y-92397822D01*
X150075808Y-92399754D01*
X150072516Y-92403942D01*
X150071902Y-92405132D01*
X150068507Y-92409806D01*
X150068504Y-92409808D01*
X150058771Y-92423205D01*
X149980128Y-92577552D01*
X149926597Y-92742301D01*
X149921725Y-92773063D01*
X149921725Y-92773065D01*
X149920476Y-92780948D01*
X149917422Y-92791350D01*
X149915288Y-92813697D01*
X149914685Y-92817504D01*
X149914684Y-92817516D01*
X149899500Y-92913389D01*
X149899500Y-92973123D01*
X149898939Y-92984908D01*
X149897498Y-93000001D01*
X145675785Y-93000001D01*
X145739936Y-92845126D01*
X145777500Y-92656275D01*
X145777500Y-92463725D01*
X145739936Y-92274874D01*
X145725154Y-92239187D01*
X145666253Y-92096986D01*
X145666246Y-92096973D01*
X145559274Y-91936880D01*
X145559271Y-91936876D01*
X145423123Y-91800728D01*
X145423119Y-91800725D01*
X145263026Y-91693753D01*
X145263013Y-91693746D01*
X145085132Y-91620066D01*
X145085128Y-91620064D01*
X145085126Y-91620064D01*
X145085122Y-91620063D01*
X145085118Y-91620062D01*
X144896279Y-91582500D01*
X144896275Y-91582500D01*
X144703725Y-91582500D01*
X144703720Y-91582500D01*
X144514881Y-91620062D01*
X144514867Y-91620066D01*
X144336986Y-91693746D01*
X144336973Y-91693753D01*
X144176880Y-91800725D01*
X144176876Y-91800728D01*
X144040728Y-91936876D01*
X144040725Y-91936880D01*
X143933753Y-92096973D01*
X143933746Y-92096986D01*
X143860066Y-92274867D01*
X143860062Y-92274881D01*
X143822500Y-92463720D01*
X143822500Y-92656279D01*
X143860062Y-92845118D01*
X143860066Y-92845132D01*
X143933746Y-93023013D01*
X143933753Y-93023026D01*
X144040725Y-93183119D01*
X144040728Y-93183123D01*
X144176876Y-93319271D01*
X144176880Y-93319274D01*
X144336973Y-93426246D01*
X144336986Y-93426253D01*
X144478175Y-93484735D01*
X144514874Y-93499936D01*
X144566424Y-93510189D01*
X144613013Y-93519457D01*
X144674924Y-93551841D01*
X144709498Y-93612557D01*
X144705759Y-93682327D01*
X144664893Y-93738999D01*
X144608220Y-93763547D01*
X144483872Y-93783242D01*
X144483869Y-93783242D01*
X144281782Y-93848904D01*
X144092442Y-93945379D01*
X143920540Y-94070272D01*
X143920535Y-94070276D01*
X143770276Y-94220535D01*
X143770272Y-94220540D01*
X143645379Y-94392442D01*
X143548904Y-94581782D01*
X143483242Y-94783870D01*
X143483242Y-94783873D01*
X143472769Y-94850000D01*
X143000500Y-94850000D01*
X143000500Y-89157441D01*
X143822500Y-89157441D01*
X143822500Y-90882558D01*
X143829898Y-90919749D01*
X143858077Y-90961922D01*
X143900250Y-90990101D01*
X143900252Y-90990102D01*
X143928205Y-90995662D01*
X143937441Y-90997500D01*
X143937442Y-90997500D01*
X145662559Y-90997500D01*
X145669957Y-90996028D01*
X145699748Y-90990102D01*
X145741922Y-90961922D01*
X145770102Y-90919748D01*
X145777500Y-90882558D01*
X145777500Y-89157442D01*
X145776561Y-89152724D01*
X145774586Y-89142793D01*
X145770102Y-89120252D01*
X145770101Y-89120250D01*
X145741922Y-89078077D01*
X145699749Y-89049898D01*
X145662559Y-89042500D01*
X145662558Y-89042500D01*
X143937442Y-89042500D01*
X143937441Y-89042500D01*
X143900250Y-89049898D01*
X143858077Y-89078077D01*
X143829898Y-89120250D01*
X143822500Y-89157441D01*
X143000500Y-89157441D01*
X143000500Y-84438428D01*
X144400000Y-84438428D01*
X144400000Y-84550000D01*
X145219670Y-84550000D01*
X145199925Y-84569745D01*
X145150556Y-84655255D01*
X145125000Y-84750630D01*
X145125000Y-84849370D01*
X145150556Y-84944745D01*
X145199925Y-85030255D01*
X145219670Y-85050000D01*
X144400000Y-85050000D01*
X144400000Y-85161571D01*
X144427085Y-85332584D01*
X144480591Y-85497257D01*
X144559195Y-85651524D01*
X144660967Y-85791602D01*
X144783397Y-85914032D01*
X144923475Y-86015804D01*
X145077744Y-86094408D01*
X145242415Y-86147914D01*
X145242414Y-86147914D01*
X145249999Y-86149115D01*
X145250000Y-86149114D01*
X145250000Y-85080330D01*
X145269745Y-85100075D01*
X145355255Y-85149444D01*
X145450630Y-85175000D01*
X145549370Y-85175000D01*
X145644745Y-85149444D01*
X145730255Y-85100075D01*
X145750000Y-85080330D01*
X145750000Y-86149115D01*
X145757584Y-86147914D01*
X145922255Y-86094408D01*
X146076524Y-86015804D01*
X146216602Y-85914032D01*
X146339032Y-85791602D01*
X146440804Y-85651524D01*
X146519409Y-85497253D01*
X146533729Y-85453182D01*
X146573165Y-85395506D01*
X146637524Y-85368307D01*
X146706370Y-85380221D01*
X146757847Y-85427465D01*
X146774364Y-85473621D01*
X146783190Y-85534201D01*
X146783190Y-85534202D01*
X146783191Y-85534204D01*
X146834952Y-85640083D01*
X146838525Y-85647392D01*
X146927607Y-85736474D01*
X146927608Y-85736474D01*
X146927610Y-85736476D01*
X147040796Y-85791809D01*
X147114173Y-85802500D01*
X147885826Y-85802499D01*
X147959204Y-85791809D01*
X148072390Y-85736476D01*
X148161476Y-85647390D01*
X148216809Y-85534204D01*
X148227500Y-85460827D01*
X148227499Y-84453343D01*
X151772500Y-84453343D01*
X151772500Y-85146656D01*
X151800455Y-85287196D01*
X151800457Y-85287204D01*
X151855296Y-85419596D01*
X151855301Y-85419606D01*
X151934913Y-85538753D01*
X151934916Y-85538757D01*
X152036242Y-85640083D01*
X152036246Y-85640086D01*
X152155393Y-85719698D01*
X152155397Y-85719700D01*
X152155400Y-85719702D01*
X152287796Y-85774543D01*
X152374595Y-85791808D01*
X152428343Y-85802499D01*
X152428347Y-85802500D01*
X152428348Y-85802500D01*
X152571653Y-85802500D01*
X152571654Y-85802499D01*
X152712204Y-85774543D01*
X152844600Y-85719702D01*
X152963754Y-85640086D01*
X153065086Y-85538754D01*
X153144702Y-85419600D01*
X153161439Y-85379191D01*
X153205278Y-85324789D01*
X153271572Y-85302723D01*
X153339271Y-85320001D01*
X153386883Y-85371137D01*
X153400000Y-85426642D01*
X153400000Y-85474969D01*
X153400001Y-85474987D01*
X153410494Y-85577697D01*
X153465641Y-85744119D01*
X153465643Y-85744124D01*
X153557684Y-85893345D01*
X153681654Y-86017315D01*
X153830875Y-86109356D01*
X153830880Y-86109358D01*
X153997302Y-86164505D01*
X153997309Y-86164506D01*
X154100019Y-86174999D01*
X154249999Y-86174999D01*
X154250000Y-86174998D01*
X154250000Y-85080330D01*
X154269745Y-85100075D01*
X154355255Y-85149444D01*
X154450630Y-85175000D01*
X154549370Y-85175000D01*
X154644745Y-85149444D01*
X154730255Y-85100075D01*
X154750000Y-85080330D01*
X154750000Y-86174999D01*
X154899972Y-86174999D01*
X154899986Y-86174998D01*
X155002697Y-86164505D01*
X155169119Y-86109358D01*
X155169124Y-86109356D01*
X155318345Y-86017315D01*
X155442315Y-85893345D01*
X155534356Y-85744124D01*
X155534358Y-85744119D01*
X155589505Y-85577697D01*
X155589506Y-85577690D01*
X155599999Y-85474986D01*
X155600000Y-85474973D01*
X155600000Y-85050000D01*
X154780330Y-85050000D01*
X154800075Y-85030255D01*
X154849444Y-84944745D01*
X154875000Y-84849370D01*
X154875000Y-84750630D01*
X154849444Y-84655255D01*
X154800075Y-84569745D01*
X154780330Y-84550000D01*
X155599999Y-84550000D01*
X155599999Y-84125028D01*
X155599998Y-84125013D01*
X155589505Y-84022302D01*
X155534358Y-83855880D01*
X155534356Y-83855875D01*
X155442315Y-83706654D01*
X155318345Y-83582684D01*
X155169124Y-83490643D01*
X155169119Y-83490641D01*
X155002697Y-83435494D01*
X155002690Y-83435493D01*
X154899986Y-83425000D01*
X154750000Y-83425000D01*
X154750000Y-84519670D01*
X154730255Y-84499925D01*
X154644745Y-84450556D01*
X154549370Y-84425000D01*
X154450630Y-84425000D01*
X154355255Y-84450556D01*
X154269745Y-84499925D01*
X154250000Y-84519670D01*
X154250000Y-83425000D01*
X154100027Y-83425000D01*
X154100012Y-83425001D01*
X153997302Y-83435494D01*
X153830880Y-83490641D01*
X153830875Y-83490643D01*
X153681654Y-83582684D01*
X153557684Y-83706654D01*
X153465643Y-83855875D01*
X153465641Y-83855880D01*
X153410494Y-84022302D01*
X153410493Y-84022309D01*
X153400000Y-84125013D01*
X153400000Y-84173353D01*
X153380315Y-84240392D01*
X153327511Y-84286147D01*
X153258353Y-84296091D01*
X153194797Y-84267066D01*
X153161439Y-84220806D01*
X153144703Y-84180403D01*
X153144702Y-84180400D01*
X153144700Y-84180397D01*
X153144698Y-84180393D01*
X153065086Y-84061246D01*
X153065083Y-84061242D01*
X152963757Y-83959916D01*
X152963753Y-83959913D01*
X152844606Y-83880301D01*
X152844596Y-83880296D01*
X152712204Y-83825457D01*
X152712196Y-83825455D01*
X152571656Y-83797500D01*
X152571652Y-83797500D01*
X152428348Y-83797500D01*
X152428343Y-83797500D01*
X152287803Y-83825455D01*
X152287795Y-83825457D01*
X152155403Y-83880296D01*
X152155393Y-83880301D01*
X152036246Y-83959913D01*
X152036242Y-83959916D01*
X151934916Y-84061242D01*
X151934913Y-84061246D01*
X151855301Y-84180393D01*
X151855296Y-84180403D01*
X151800457Y-84312795D01*
X151800455Y-84312803D01*
X151772500Y-84453343D01*
X148227499Y-84453343D01*
X148227499Y-84139174D01*
X148216809Y-84065796D01*
X148161476Y-83952610D01*
X148161474Y-83952608D01*
X148161474Y-83952607D01*
X148101678Y-83892811D01*
X148068193Y-83831488D01*
X148073177Y-83761796D01*
X148101676Y-83717451D01*
X149074309Y-82744819D01*
X149135632Y-82711334D01*
X149161990Y-82708500D01*
X155313010Y-82708500D01*
X155380049Y-82728185D01*
X155400691Y-82744819D01*
X158762773Y-86106901D01*
X158878726Y-86173847D01*
X159008055Y-86208500D01*
X159008057Y-86208500D01*
X169466943Y-86208500D01*
X169466945Y-86208500D01*
X169596274Y-86173847D01*
X169712227Y-86106901D01*
X169915408Y-85903720D01*
X186472500Y-85903720D01*
X186472500Y-86396279D01*
X186510062Y-86585118D01*
X186510066Y-86585132D01*
X186583746Y-86763013D01*
X186583753Y-86763026D01*
X186690725Y-86923119D01*
X186690728Y-86923123D01*
X186826876Y-87059271D01*
X186826880Y-87059274D01*
X186986973Y-87166246D01*
X186986986Y-87166253D01*
X187114617Y-87219119D01*
X187164874Y-87239936D01*
X187353720Y-87277499D01*
X187353724Y-87277500D01*
X187353725Y-87277500D01*
X187546276Y-87277500D01*
X187546277Y-87277499D01*
X187735126Y-87239936D01*
X187913020Y-87166250D01*
X188073120Y-87059274D01*
X188209274Y-86923120D01*
X188316250Y-86763020D01*
X188361440Y-86653919D01*
X188405279Y-86599519D01*
X188471573Y-86577453D01*
X188539272Y-86594732D01*
X188586883Y-86645868D01*
X188600000Y-86701374D01*
X188600000Y-86949970D01*
X188600001Y-86949987D01*
X188610494Y-87052697D01*
X188665641Y-87219119D01*
X188665643Y-87219124D01*
X188757684Y-87368345D01*
X188881654Y-87492315D01*
X189030875Y-87584356D01*
X189030880Y-87584358D01*
X189197302Y-87639505D01*
X189197309Y-87639506D01*
X189300019Y-87649999D01*
X189699999Y-87649999D01*
X189700000Y-87649998D01*
X189700000Y-86583012D01*
X189757007Y-86615925D01*
X189884174Y-86650000D01*
X190015826Y-86650000D01*
X190142993Y-86615925D01*
X190200000Y-86583012D01*
X190200000Y-87649999D01*
X190599972Y-87649999D01*
X190599986Y-87649998D01*
X190702697Y-87639505D01*
X190869119Y-87584358D01*
X190869124Y-87584356D01*
X191018345Y-87492315D01*
X191142315Y-87368345D01*
X191234356Y-87219124D01*
X191234358Y-87219119D01*
X191289505Y-87052697D01*
X191289506Y-87052690D01*
X191299999Y-86949986D01*
X191300000Y-86949973D01*
X191300000Y-86400000D01*
X190383012Y-86400000D01*
X190415925Y-86342993D01*
X190450000Y-86215826D01*
X190450000Y-86084174D01*
X190415925Y-85957007D01*
X190383012Y-85900000D01*
X191299999Y-85900000D01*
X191299999Y-85350028D01*
X191299998Y-85350013D01*
X191289505Y-85247302D01*
X191234358Y-85080880D01*
X191234356Y-85080875D01*
X191142315Y-84931654D01*
X191018345Y-84807684D01*
X190869124Y-84715643D01*
X190869119Y-84715641D01*
X190702697Y-84660494D01*
X190702690Y-84660493D01*
X190599986Y-84650000D01*
X190200000Y-84650000D01*
X190200000Y-85716988D01*
X190142993Y-85684075D01*
X190015826Y-85650000D01*
X189884174Y-85650000D01*
X189757007Y-85684075D01*
X189700000Y-85716988D01*
X189700000Y-84650000D01*
X189300028Y-84650000D01*
X189300012Y-84650001D01*
X189197302Y-84660494D01*
X189030880Y-84715641D01*
X189030875Y-84715643D01*
X188881654Y-84807684D01*
X188757684Y-84931654D01*
X188665643Y-85080875D01*
X188665641Y-85080880D01*
X188610494Y-85247302D01*
X188610493Y-85247309D01*
X188600000Y-85350013D01*
X188600000Y-85598623D01*
X188580315Y-85665662D01*
X188527511Y-85711417D01*
X188458353Y-85721361D01*
X188394797Y-85692336D01*
X188361439Y-85646076D01*
X188316251Y-85536982D01*
X188316246Y-85536973D01*
X188209274Y-85376880D01*
X188209271Y-85376876D01*
X188073123Y-85240728D01*
X188073119Y-85240725D01*
X187913026Y-85133753D01*
X187913013Y-85133746D01*
X187735132Y-85060066D01*
X187735128Y-85060064D01*
X187735126Y-85060064D01*
X187735122Y-85060063D01*
X187735118Y-85060062D01*
X187546279Y-85022500D01*
X187546275Y-85022500D01*
X187353725Y-85022500D01*
X187353720Y-85022500D01*
X187164881Y-85060062D01*
X187164867Y-85060066D01*
X186986986Y-85133746D01*
X186986973Y-85133753D01*
X186826880Y-85240725D01*
X186826876Y-85240728D01*
X186690728Y-85376876D01*
X186690725Y-85376880D01*
X186583753Y-85536973D01*
X186583746Y-85536986D01*
X186510066Y-85714867D01*
X186510062Y-85714881D01*
X186472500Y-85903720D01*
X169915408Y-85903720D01*
X171365784Y-84453343D01*
X179172500Y-84453343D01*
X179172500Y-85146656D01*
X179200455Y-85287196D01*
X179200457Y-85287204D01*
X179255296Y-85419596D01*
X179255301Y-85419606D01*
X179334913Y-85538753D01*
X179334916Y-85538757D01*
X179436242Y-85640083D01*
X179436246Y-85640086D01*
X179555393Y-85719698D01*
X179555397Y-85719700D01*
X179555400Y-85719702D01*
X179687796Y-85774543D01*
X179774595Y-85791808D01*
X179828343Y-85802499D01*
X179828347Y-85802500D01*
X179828348Y-85802500D01*
X179971653Y-85802500D01*
X179971654Y-85802499D01*
X180112204Y-85774543D01*
X180244600Y-85719702D01*
X180363754Y-85640086D01*
X180465086Y-85538754D01*
X180544702Y-85419600D01*
X180599543Y-85287204D01*
X180627500Y-85146652D01*
X180627500Y-84453348D01*
X180599543Y-84312796D01*
X180564229Y-84227542D01*
X180545423Y-84182139D01*
X180545422Y-84182137D01*
X180544707Y-84180410D01*
X180544698Y-84180393D01*
X180517155Y-84139172D01*
X181172500Y-84139172D01*
X181172500Y-85460825D01*
X181183191Y-85534204D01*
X181238525Y-85647392D01*
X181327607Y-85736474D01*
X181327608Y-85736474D01*
X181327610Y-85736476D01*
X181440796Y-85791809D01*
X181514173Y-85802500D01*
X182285826Y-85802499D01*
X182359204Y-85791809D01*
X182472390Y-85736476D01*
X182561476Y-85647390D01*
X182616809Y-85534204D01*
X182627500Y-85460827D01*
X182627499Y-84139174D01*
X182616809Y-84065796D01*
X182561476Y-83952610D01*
X182561474Y-83952608D01*
X182561474Y-83952607D01*
X182472392Y-83863525D01*
X182359202Y-83808190D01*
X182285827Y-83797500D01*
X181514179Y-83797500D01*
X181440796Y-83808191D01*
X181327607Y-83863525D01*
X181238525Y-83952607D01*
X181183190Y-84065797D01*
X181172500Y-84139172D01*
X180517155Y-84139172D01*
X180465086Y-84061246D01*
X180465083Y-84061242D01*
X180363757Y-83959916D01*
X180363753Y-83959913D01*
X180244606Y-83880301D01*
X180244596Y-83880296D01*
X180112204Y-83825457D01*
X180112196Y-83825455D01*
X179971656Y-83797500D01*
X179971652Y-83797500D01*
X179828348Y-83797500D01*
X179828343Y-83797500D01*
X179687803Y-83825455D01*
X179687795Y-83825457D01*
X179555403Y-83880296D01*
X179555393Y-83880301D01*
X179436246Y-83959913D01*
X179436242Y-83959916D01*
X179334916Y-84061242D01*
X179334913Y-84061246D01*
X179255301Y-84180393D01*
X179255296Y-84180403D01*
X179200457Y-84312795D01*
X179200455Y-84312803D01*
X179172500Y-84453343D01*
X171365784Y-84453343D01*
X172206901Y-83612226D01*
X172252611Y-83533055D01*
X172273847Y-83496274D01*
X172308500Y-83366945D01*
X172308500Y-81651199D01*
X172328185Y-81584160D01*
X172380989Y-81538405D01*
X172450147Y-81528461D01*
X172494496Y-81543810D01*
X172545413Y-81573207D01*
X172647273Y-81600500D01*
X172647275Y-81600500D01*
X172752725Y-81600500D01*
X172752727Y-81600500D01*
X172854587Y-81573207D01*
X172945913Y-81520480D01*
X173020480Y-81445913D01*
X173073207Y-81354587D01*
X173100500Y-81252727D01*
X173100500Y-81147273D01*
X173073207Y-81045413D01*
X173025047Y-80961998D01*
X173008575Y-80894100D01*
X173025047Y-80838001D01*
X173073207Y-80754587D01*
X173100500Y-80652727D01*
X173100500Y-80547273D01*
X173073207Y-80445413D01*
X173020480Y-80354087D01*
X172945913Y-80279520D01*
X172854587Y-80226793D01*
X172752727Y-80199500D01*
X172647273Y-80199500D01*
X172545413Y-80226793D01*
X172545410Y-80226794D01*
X172454085Y-80279521D01*
X172379522Y-80354084D01*
X172379520Y-80354086D01*
X172379520Y-80354087D01*
X172357385Y-80392425D01*
X172306820Y-80440639D01*
X172238212Y-80453861D01*
X172173348Y-80427893D01*
X172142615Y-80392426D01*
X172120480Y-80354087D01*
X172045913Y-80279520D01*
X171954587Y-80226793D01*
X171852727Y-80199500D01*
X171747273Y-80199500D01*
X171645413Y-80226793D01*
X171645410Y-80226794D01*
X171554085Y-80279521D01*
X171479522Y-80354084D01*
X171479520Y-80354086D01*
X171479520Y-80354087D01*
X171457385Y-80392425D01*
X171406820Y-80440639D01*
X171338212Y-80453861D01*
X171273348Y-80427893D01*
X171242615Y-80392426D01*
X171220480Y-80354087D01*
X171145913Y-80279520D01*
X171054587Y-80226793D01*
X170952727Y-80199500D01*
X170847273Y-80199500D01*
X170745413Y-80226793D01*
X170745410Y-80226794D01*
X170654085Y-80279521D01*
X170579521Y-80354085D01*
X170526794Y-80445410D01*
X170526793Y-80445413D01*
X170499500Y-80547273D01*
X170499500Y-80652727D01*
X170512503Y-80701253D01*
X170526793Y-80754586D01*
X170526794Y-80754589D01*
X170574951Y-80838000D01*
X170591424Y-80905901D01*
X170574951Y-80962000D01*
X170526794Y-81045410D01*
X170526793Y-81045413D01*
X170499500Y-81147273D01*
X170499500Y-81252727D01*
X170526793Y-81354587D01*
X170579520Y-81445913D01*
X170654087Y-81520480D01*
X170745413Y-81573207D01*
X170847273Y-81600500D01*
X170847275Y-81600500D01*
X170952725Y-81600500D01*
X170952727Y-81600500D01*
X171054587Y-81573207D01*
X171105501Y-81543811D01*
X171173400Y-81527339D01*
X171239427Y-81550191D01*
X171282617Y-81605112D01*
X171291500Y-81651199D01*
X171291500Y-83038010D01*
X171271815Y-83105049D01*
X171255181Y-83125691D01*
X169225691Y-85155181D01*
X169164368Y-85188666D01*
X169138010Y-85191500D01*
X159336990Y-85191500D01*
X159269951Y-85171815D01*
X159249309Y-85155181D01*
X155887229Y-81793101D01*
X155887227Y-81793099D01*
X155815827Y-81751876D01*
X155771275Y-81726153D01*
X155706609Y-81708826D01*
X155641945Y-81691500D01*
X148966945Y-81691500D01*
X148833055Y-81691500D01*
X148703724Y-81726153D01*
X148587773Y-81793099D01*
X148587770Y-81793101D01*
X147093100Y-83287771D01*
X147093096Y-83287776D01*
X147055729Y-83352499D01*
X147055729Y-83352500D01*
X147026153Y-83403724D01*
X146991500Y-83533055D01*
X146991500Y-83754885D01*
X146971815Y-83821924D01*
X146934341Y-83855271D01*
X146935971Y-83857554D01*
X146927608Y-83863524D01*
X146838525Y-83952607D01*
X146783190Y-84065797D01*
X146774364Y-84126377D01*
X146745220Y-84189878D01*
X146686371Y-84227542D01*
X146616501Y-84227410D01*
X146557794Y-84189525D01*
X146533729Y-84146817D01*
X146519408Y-84102744D01*
X146440804Y-83948475D01*
X146339032Y-83808397D01*
X146216602Y-83685967D01*
X146076524Y-83584195D01*
X145922257Y-83505591D01*
X145757589Y-83452087D01*
X145757581Y-83452085D01*
X145750000Y-83450884D01*
X145750000Y-84519670D01*
X145730255Y-84499925D01*
X145644745Y-84450556D01*
X145549370Y-84425000D01*
X145450630Y-84425000D01*
X145355255Y-84450556D01*
X145269745Y-84499925D01*
X145250000Y-84519670D01*
X145250000Y-83450884D01*
X145249999Y-83450884D01*
X145242418Y-83452085D01*
X145242410Y-83452087D01*
X145077742Y-83505591D01*
X144923475Y-83584195D01*
X144783397Y-83685967D01*
X144660967Y-83808397D01*
X144559195Y-83948475D01*
X144480591Y-84102742D01*
X144427085Y-84267415D01*
X144400000Y-84438428D01*
X143000500Y-84438428D01*
X143000500Y-81477155D01*
X159450000Y-81477155D01*
X159450000Y-82125000D01*
X160366988Y-82125000D01*
X160334075Y-82182007D01*
X160300000Y-82309174D01*
X160300000Y-82440826D01*
X160334075Y-82567993D01*
X160366988Y-82625000D01*
X159450000Y-82625000D01*
X159450000Y-83272844D01*
X159456401Y-83332372D01*
X159456403Y-83332379D01*
X159506645Y-83467086D01*
X159506649Y-83467093D01*
X159592809Y-83582187D01*
X159592812Y-83582190D01*
X159707906Y-83668350D01*
X159707913Y-83668354D01*
X159842620Y-83718596D01*
X159842627Y-83718598D01*
X159902155Y-83724999D01*
X159902172Y-83725000D01*
X160550000Y-83725000D01*
X160550000Y-82808012D01*
X160607007Y-82840925D01*
X160734174Y-82875000D01*
X160865826Y-82875000D01*
X160992993Y-82840925D01*
X161050000Y-82808012D01*
X161050000Y-83725000D01*
X161697828Y-83725000D01*
X161697844Y-83724999D01*
X161757372Y-83718598D01*
X161757379Y-83718596D01*
X161892086Y-83668354D01*
X161892093Y-83668350D01*
X162007187Y-83582190D01*
X162007190Y-83582187D01*
X162093350Y-83467093D01*
X162093354Y-83467086D01*
X162143596Y-83332379D01*
X162143598Y-83332372D01*
X162149999Y-83272844D01*
X162150000Y-83272827D01*
X162150000Y-82661961D01*
X162169685Y-82594922D01*
X162222489Y-82549167D01*
X162291647Y-82539223D01*
X162355203Y-82568248D01*
X162392977Y-82627026D01*
X162395614Y-82637758D01*
X162400062Y-82660118D01*
X162400064Y-82660126D01*
X162400066Y-82660132D01*
X162473746Y-82838013D01*
X162473753Y-82838026D01*
X162580725Y-82998119D01*
X162580728Y-82998123D01*
X162716876Y-83134271D01*
X162716880Y-83134274D01*
X162876973Y-83241246D01*
X162876986Y-83241253D01*
X162989304Y-83287776D01*
X163054874Y-83314936D01*
X163243720Y-83352499D01*
X163243724Y-83352500D01*
X163243725Y-83352500D01*
X163436276Y-83352500D01*
X163436277Y-83352499D01*
X163625126Y-83314936D01*
X163803020Y-83241250D01*
X163963120Y-83134274D01*
X164099274Y-82998120D01*
X164206250Y-82838020D01*
X164279936Y-82660126D01*
X164317500Y-82471275D01*
X164317500Y-82278725D01*
X164317499Y-82278720D01*
X164902500Y-82278720D01*
X164902500Y-82471279D01*
X164940062Y-82660118D01*
X164940066Y-82660132D01*
X165013746Y-82838013D01*
X165013753Y-82838026D01*
X165120725Y-82998119D01*
X165120728Y-82998123D01*
X165256876Y-83134271D01*
X165256880Y-83134274D01*
X165416973Y-83241246D01*
X165416986Y-83241253D01*
X165529304Y-83287776D01*
X165594874Y-83314936D01*
X165783720Y-83352499D01*
X165783724Y-83352500D01*
X165783725Y-83352500D01*
X165976276Y-83352500D01*
X165976277Y-83352499D01*
X166165126Y-83314936D01*
X166343020Y-83241250D01*
X166503120Y-83134274D01*
X166639274Y-82998120D01*
X166746250Y-82838020D01*
X166819936Y-82660126D01*
X166857500Y-82471275D01*
X166857500Y-82278725D01*
X166857499Y-82278720D01*
X167442500Y-82278720D01*
X167442500Y-82471279D01*
X167480062Y-82660118D01*
X167480066Y-82660132D01*
X167553746Y-82838013D01*
X167553753Y-82838026D01*
X167660725Y-82998119D01*
X167660728Y-82998123D01*
X167796876Y-83134271D01*
X167796880Y-83134274D01*
X167956973Y-83241246D01*
X167956986Y-83241253D01*
X168069304Y-83287776D01*
X168134874Y-83314936D01*
X168323720Y-83352499D01*
X168323724Y-83352500D01*
X168323725Y-83352500D01*
X168516276Y-83352500D01*
X168516277Y-83352499D01*
X168705126Y-83314936D01*
X168883020Y-83241250D01*
X169043120Y-83134274D01*
X169179274Y-82998120D01*
X169286250Y-82838020D01*
X169359936Y-82660126D01*
X169397500Y-82471275D01*
X169397500Y-82278725D01*
X169359936Y-82089874D01*
X169312313Y-81974901D01*
X169286253Y-81911986D01*
X169286246Y-81911973D01*
X169179274Y-81751880D01*
X169179271Y-81751876D01*
X169043123Y-81615728D01*
X169043119Y-81615725D01*
X168883026Y-81508753D01*
X168883013Y-81508746D01*
X168705132Y-81435066D01*
X168705128Y-81435064D01*
X168705126Y-81435064D01*
X168705122Y-81435063D01*
X168705118Y-81435062D01*
X168516279Y-81397500D01*
X168516275Y-81397500D01*
X168323725Y-81397500D01*
X168323720Y-81397500D01*
X168134881Y-81435062D01*
X168134867Y-81435066D01*
X167956986Y-81508746D01*
X167956973Y-81508753D01*
X167796880Y-81615725D01*
X167796876Y-81615728D01*
X167660728Y-81751876D01*
X167660725Y-81751880D01*
X167553753Y-81911973D01*
X167553746Y-81911986D01*
X167480066Y-82089867D01*
X167480062Y-82089881D01*
X167442500Y-82278720D01*
X166857499Y-82278720D01*
X166819936Y-82089874D01*
X166772313Y-81974901D01*
X166746253Y-81911986D01*
X166746246Y-81911973D01*
X166639274Y-81751880D01*
X166639271Y-81751876D01*
X166503123Y-81615728D01*
X166503119Y-81615725D01*
X166343026Y-81508753D01*
X166343013Y-81508746D01*
X166165132Y-81435066D01*
X166165128Y-81435064D01*
X166165126Y-81435064D01*
X166165122Y-81435063D01*
X166165118Y-81435062D01*
X165976279Y-81397500D01*
X165976275Y-81397500D01*
X165783725Y-81397500D01*
X165783720Y-81397500D01*
X165594881Y-81435062D01*
X165594867Y-81435066D01*
X165416986Y-81508746D01*
X165416973Y-81508753D01*
X165256880Y-81615725D01*
X165256876Y-81615728D01*
X165120728Y-81751876D01*
X165120725Y-81751880D01*
X165013753Y-81911973D01*
X165013746Y-81911986D01*
X164940066Y-82089867D01*
X164940062Y-82089881D01*
X164902500Y-82278720D01*
X164317499Y-82278720D01*
X164279936Y-82089874D01*
X164232313Y-81974901D01*
X164206253Y-81911986D01*
X164206246Y-81911973D01*
X164099274Y-81751880D01*
X164099271Y-81751876D01*
X163963123Y-81615728D01*
X163963119Y-81615725D01*
X163803026Y-81508753D01*
X163803013Y-81508746D01*
X163625132Y-81435066D01*
X163625128Y-81435064D01*
X163625126Y-81435064D01*
X163625122Y-81435063D01*
X163625118Y-81435062D01*
X163436279Y-81397500D01*
X163436275Y-81397500D01*
X163243725Y-81397500D01*
X163243720Y-81397500D01*
X163054881Y-81435062D01*
X163054867Y-81435066D01*
X162876986Y-81508746D01*
X162876973Y-81508753D01*
X162716880Y-81615725D01*
X162716876Y-81615728D01*
X162580728Y-81751876D01*
X162580725Y-81751880D01*
X162473753Y-81911973D01*
X162473746Y-81911986D01*
X162400066Y-82089867D01*
X162400062Y-82089881D01*
X162395617Y-82112229D01*
X162363232Y-82174140D01*
X162302517Y-82208714D01*
X162232747Y-82204975D01*
X162176075Y-82164108D01*
X162150494Y-82099090D01*
X162150000Y-82088038D01*
X162150000Y-81477172D01*
X162149999Y-81477155D01*
X162143598Y-81417627D01*
X162143596Y-81417620D01*
X162093354Y-81282913D01*
X162093350Y-81282906D01*
X162007190Y-81167812D01*
X162007187Y-81167809D01*
X161892093Y-81081649D01*
X161892086Y-81081645D01*
X161757379Y-81031403D01*
X161757372Y-81031401D01*
X161697844Y-81025000D01*
X161086962Y-81025000D01*
X161019923Y-81005315D01*
X160974168Y-80952511D01*
X160964224Y-80883353D01*
X160993249Y-80819797D01*
X161052027Y-80782023D01*
X161062771Y-80779383D01*
X161071904Y-80777565D01*
X161085126Y-80774936D01*
X161263020Y-80701250D01*
X161423120Y-80594274D01*
X161559274Y-80458120D01*
X161666250Y-80298020D01*
X161739936Y-80120126D01*
X161777500Y-79931275D01*
X161777500Y-79738725D01*
X161777499Y-79738720D01*
X162362500Y-79738720D01*
X162362500Y-79931279D01*
X162400062Y-80120118D01*
X162400066Y-80120132D01*
X162473746Y-80298013D01*
X162473753Y-80298026D01*
X162580725Y-80458119D01*
X162580728Y-80458123D01*
X162716876Y-80594271D01*
X162716880Y-80594274D01*
X162876973Y-80701246D01*
X162876986Y-80701253D01*
X163005745Y-80754586D01*
X163054874Y-80774936D01*
X163240045Y-80811768D01*
X163243720Y-80812499D01*
X163243724Y-80812500D01*
X163243725Y-80812500D01*
X163436276Y-80812500D01*
X163436277Y-80812499D01*
X163625126Y-80774936D01*
X163803020Y-80701250D01*
X163963120Y-80594274D01*
X164099274Y-80458120D01*
X164206250Y-80298020D01*
X164279936Y-80120126D01*
X164317500Y-79931275D01*
X164317500Y-79738725D01*
X164317499Y-79738720D01*
X164902500Y-79738720D01*
X164902500Y-79931279D01*
X164940062Y-80120118D01*
X164940066Y-80120132D01*
X165013746Y-80298013D01*
X165013753Y-80298026D01*
X165120725Y-80458119D01*
X165120728Y-80458123D01*
X165256876Y-80594271D01*
X165256880Y-80594274D01*
X165416973Y-80701246D01*
X165416986Y-80701253D01*
X165545745Y-80754586D01*
X165594874Y-80774936D01*
X165780045Y-80811768D01*
X165783720Y-80812499D01*
X165783724Y-80812500D01*
X165783725Y-80812500D01*
X165976276Y-80812500D01*
X165976277Y-80812499D01*
X166165126Y-80774936D01*
X166343020Y-80701250D01*
X166503120Y-80594274D01*
X166639274Y-80458120D01*
X166746250Y-80298020D01*
X166819936Y-80120126D01*
X166857500Y-79931275D01*
X166857500Y-79738725D01*
X166857499Y-79738720D01*
X167442500Y-79738720D01*
X167442500Y-79931279D01*
X167480062Y-80120118D01*
X167480066Y-80120132D01*
X167553746Y-80298013D01*
X167553753Y-80298026D01*
X167660725Y-80458119D01*
X167660728Y-80458123D01*
X167796876Y-80594271D01*
X167796880Y-80594274D01*
X167956973Y-80701246D01*
X167956986Y-80701253D01*
X168085745Y-80754586D01*
X168134874Y-80774936D01*
X168320045Y-80811768D01*
X168323720Y-80812499D01*
X168323724Y-80812500D01*
X168323725Y-80812500D01*
X168516276Y-80812500D01*
X168516277Y-80812499D01*
X168705126Y-80774936D01*
X168883020Y-80701250D01*
X169043120Y-80594274D01*
X169179274Y-80458120D01*
X169286250Y-80298020D01*
X169359936Y-80120126D01*
X169397500Y-79931275D01*
X169397500Y-79738725D01*
X169359936Y-79549874D01*
X169347896Y-79520806D01*
X169286253Y-79371986D01*
X169286246Y-79371973D01*
X169179274Y-79211880D01*
X169179271Y-79211876D01*
X169043123Y-79075728D01*
X169043119Y-79075725D01*
X168883026Y-78968753D01*
X168883013Y-78968746D01*
X168705132Y-78895066D01*
X168705128Y-78895064D01*
X168705126Y-78895064D01*
X168705122Y-78895063D01*
X168705118Y-78895062D01*
X168516279Y-78857500D01*
X168516275Y-78857500D01*
X168323725Y-78857500D01*
X168323720Y-78857500D01*
X168134881Y-78895062D01*
X168134867Y-78895066D01*
X167956986Y-78968746D01*
X167956973Y-78968753D01*
X167796880Y-79075725D01*
X167796876Y-79075728D01*
X167660728Y-79211876D01*
X167660725Y-79211880D01*
X167553753Y-79371973D01*
X167553746Y-79371986D01*
X167480066Y-79549867D01*
X167480062Y-79549881D01*
X167442500Y-79738720D01*
X166857499Y-79738720D01*
X166819936Y-79549874D01*
X166807896Y-79520806D01*
X166746253Y-79371986D01*
X166746246Y-79371973D01*
X166639274Y-79211880D01*
X166639271Y-79211876D01*
X166503123Y-79075728D01*
X166503119Y-79075725D01*
X166343026Y-78968753D01*
X166343013Y-78968746D01*
X166165132Y-78895066D01*
X166165128Y-78895064D01*
X166165126Y-78895064D01*
X166165122Y-78895063D01*
X166165118Y-78895062D01*
X165976279Y-78857500D01*
X165976275Y-78857500D01*
X165783725Y-78857500D01*
X165783720Y-78857500D01*
X165594881Y-78895062D01*
X165594867Y-78895066D01*
X165416986Y-78968746D01*
X165416973Y-78968753D01*
X165256880Y-79075725D01*
X165256876Y-79075728D01*
X165120728Y-79211876D01*
X165120725Y-79211880D01*
X165013753Y-79371973D01*
X165013746Y-79371986D01*
X164940066Y-79549867D01*
X164940062Y-79549881D01*
X164902500Y-79738720D01*
X164317499Y-79738720D01*
X164279936Y-79549874D01*
X164267896Y-79520806D01*
X164206253Y-79371986D01*
X164206246Y-79371973D01*
X164099274Y-79211880D01*
X164099271Y-79211876D01*
X163963123Y-79075728D01*
X163963119Y-79075725D01*
X163803026Y-78968753D01*
X163803013Y-78968746D01*
X163625132Y-78895066D01*
X163625128Y-78895064D01*
X163625126Y-78895064D01*
X163625122Y-78895063D01*
X163625118Y-78895062D01*
X163436279Y-78857500D01*
X163436275Y-78857500D01*
X163243725Y-78857500D01*
X163243720Y-78857500D01*
X163054881Y-78895062D01*
X163054867Y-78895066D01*
X162876986Y-78968746D01*
X162876973Y-78968753D01*
X162716880Y-79075725D01*
X162716876Y-79075728D01*
X162580728Y-79211876D01*
X162580725Y-79211880D01*
X162473753Y-79371973D01*
X162473746Y-79371986D01*
X162400066Y-79549867D01*
X162400062Y-79549881D01*
X162362500Y-79738720D01*
X161777499Y-79738720D01*
X161739936Y-79549874D01*
X161727896Y-79520806D01*
X161666253Y-79371986D01*
X161666246Y-79371973D01*
X161559274Y-79211880D01*
X161559271Y-79211876D01*
X161423123Y-79075728D01*
X161423119Y-79075725D01*
X161263026Y-78968753D01*
X161263013Y-78968746D01*
X161085132Y-78895066D01*
X161085128Y-78895064D01*
X161085126Y-78895064D01*
X161085122Y-78895063D01*
X161085118Y-78895062D01*
X160896279Y-78857500D01*
X160896275Y-78857500D01*
X160703725Y-78857500D01*
X160703720Y-78857500D01*
X160514881Y-78895062D01*
X160514867Y-78895066D01*
X160336986Y-78968746D01*
X160336973Y-78968753D01*
X160176880Y-79075725D01*
X160176876Y-79075728D01*
X160040728Y-79211876D01*
X160040725Y-79211880D01*
X159933753Y-79371973D01*
X159933746Y-79371986D01*
X159860066Y-79549867D01*
X159860062Y-79549881D01*
X159822500Y-79738720D01*
X159822500Y-79931279D01*
X159860062Y-80120118D01*
X159860066Y-80120132D01*
X159933746Y-80298013D01*
X159933753Y-80298026D01*
X160040725Y-80458119D01*
X160040728Y-80458123D01*
X160176876Y-80594271D01*
X160176880Y-80594274D01*
X160336973Y-80701246D01*
X160336986Y-80701253D01*
X160465745Y-80754586D01*
X160514874Y-80774936D01*
X160525827Y-80777114D01*
X160537229Y-80779383D01*
X160599140Y-80811768D01*
X160633714Y-80872483D01*
X160629975Y-80942253D01*
X160589108Y-80998925D01*
X160524090Y-81024506D01*
X160513038Y-81025000D01*
X159902155Y-81025000D01*
X159842627Y-81031401D01*
X159842620Y-81031403D01*
X159707913Y-81081645D01*
X159707906Y-81081649D01*
X159592812Y-81167809D01*
X159592809Y-81167812D01*
X159506649Y-81282906D01*
X159506645Y-81282913D01*
X159456403Y-81417620D01*
X159456401Y-81417627D01*
X159450000Y-81477155D01*
X143000500Y-81477155D01*
X143000500Y-78124500D01*
X143020185Y-78057461D01*
X143072989Y-78011706D01*
X143124500Y-78000500D01*
X156999793Y-78000500D01*
X157000207Y-78000500D01*
X177999793Y-78000500D01*
X178000207Y-78000500D01*
X192875500Y-78000500D01*
X192942539Y-78020185D01*
G37*
%TD.AperFunction*%
%TD*%
M02*
