M48
; DRILL file {KiCad 9.0.0} date 2026-05-02T22:01:57+0100
; FORMAT={-:-/ absolute / metric / decimal}
; #@! TF.CreationDate,2026-05-02T22:01:57+01:00
; #@! TF.GenerationSoftware,Kicad,Pcbnew,9.0.0
; #@! TF.FileFunction,Plated,1,2,PTH
FMAT,2
METRIC
; #@! TA.AperFunction,Plated,PTH,ViaDrill
T1C0.300
; #@! TA.AperFunction,Plated,PTH,ViaDrill
T2C0.400
; #@! TA.AperFunction,Plated,PTH,ComponentDrill
T3C0.750
; #@! TA.AperFunction,Plated,PTH,ComponentDrill
T4C1.000
%
G90
G05
T1
X149.9Y-88.6
X155.8Y-88.4
X159.025Y-94.1
X159.675Y-94.125
X161.625Y-88.5
X170.9Y-80.6
X170.9Y-81.2
X171.8Y-80.6
X171.8Y-81.2
X171.975Y-89.1
X172.6Y-90.2
X172.7Y-80.6
X172.7Y-81.2
X180.9Y-96.2
T2
X154.1Y-88.5
X154.8Y-92.3
X157.2Y-91.6
X163.2Y-90.2
T3
X145.5Y-84.8
X147.5Y-84.8
X152.5Y-84.8
X154.5Y-84.8
X179.9Y-84.8
X181.9Y-84.8
T4
X144.8Y-90.02
X144.8Y-92.56
X144.8Y-95.1
X144.8Y-97.64
X144.8Y-100.18
X160.8Y-79.835
X160.8Y-82.375
X163.34Y-79.835
X163.34Y-82.375
X165.03Y-100.1
X165.704Y-91.204
X165.704Y-94.796
X165.88Y-79.835
X165.88Y-82.375
X167.57Y-100.1
X168.42Y-79.835
X168.42Y-82.375
X169.296Y-94.796
X170.11Y-100.1
X172.65Y-100.1
X187.45Y-86.15
X189.9Y-92.5
X189.9Y-99.3
X189.95Y-86.15
M30
