%TF.GenerationSoftware,KiCad,Pcbnew,9.0.0*%
%TF.CreationDate,2026-05-02T22:01:51+01:00*%
%TF.ProjectId,nrf,6e72662e-6b69-4636-9164-5f7063625858,rev?*%
%TF.SameCoordinates,Original*%
%TF.FileFunction,Copper,L1,Top*%
%TF.FilePolarity,Positive*%
%FSLAX46Y46*%
G04 Gerber Fmt 4.6, Leading zero omitted, Abs format (unit mm)*
G04 Created by KiCad (PCBNEW 9.0.0) date 2026-05-02 22:01:51*
%MOMM*%
%LPD*%
G01*
G04 APERTURE LIST*
G04 Aperture macros list*
%AMRoundRect*
0 Rectangle with rounded corners*
0 $1 Rounding radius*
0 $2 $3 $4 $5 $6 $7 $8 $9 X,Y pos of 4 corners*
0 Add a 4 corners polygon primitive as box body*
4,1,4,$2,$3,$4,$5,$6,$7,$8,$9,$2,$3,0*
0 Add four circle primitives for the rounded corners*
1,1,$1+$1,$2,$3*
1,1,$1+$1,$4,$5*
1,1,$1+$1,$6,$7*
1,1,$1+$1,$8,$9*
0 Add four rect primitives between the rounded corners*
20,1,$1+$1,$2,$3,$4,$5,0*
20,1,$1+$1,$4,$5,$6,$7,0*
20,1,$1+$1,$6,$7,$8,$9,0*
20,1,$1+$1,$8,$9,$2,$3,0*%
G04 Aperture macros list end*
%TA.AperFunction,SMDPad,CuDef*%
%ADD10RoundRect,0.250000X1.000000X0.650000X-1.000000X0.650000X-1.000000X-0.650000X1.000000X-0.650000X0*%
%TD*%
%TA.AperFunction,SMDPad,CuDef*%
%ADD11RoundRect,0.225000X0.250000X-0.225000X0.250000X0.225000X-0.250000X0.225000X-0.250000X-0.225000X0*%
%TD*%
%TA.AperFunction,SMDPad,CuDef*%
%ADD12RoundRect,0.200000X-0.200000X-0.275000X0.200000X-0.275000X0.200000X0.275000X-0.200000X0.275000X0*%
%TD*%
%TA.AperFunction,ComponentPad*%
%ADD13R,1.700000X1.700000*%
%TD*%
%TA.AperFunction,SMDPad,CuDef*%
%ADD14RoundRect,0.200000X0.200000X0.275000X-0.200000X0.275000X-0.200000X-0.275000X0.200000X-0.275000X0*%
%TD*%
%TA.AperFunction,SMDPad,CuDef*%
%ADD15RoundRect,0.250000X1.075000X-0.312500X1.075000X0.312500X-1.075000X0.312500X-1.075000X-0.312500X0*%
%TD*%
%TA.AperFunction,SMDPad,CuDef*%
%ADD16RoundRect,0.225000X-0.250000X0.225000X-0.250000X-0.225000X0.250000X-0.225000X0.250000X0.225000X0*%
%TD*%
%TA.AperFunction,SMDPad,CuDef*%
%ADD17RoundRect,0.200000X0.275000X-0.200000X0.275000X0.200000X-0.275000X0.200000X-0.275000X-0.200000X0*%
%TD*%
%TA.AperFunction,SMDPad,CuDef*%
%ADD18RoundRect,0.150000X0.512500X0.150000X-0.512500X0.150000X-0.512500X-0.150000X0.512500X-0.150000X0*%
%TD*%
%TA.AperFunction,ComponentPad*%
%ADD19RoundRect,0.250000X0.350000X0.625000X-0.350000X0.625000X-0.350000X-0.625000X0.350000X-0.625000X0*%
%TD*%
%TA.AperFunction,ComponentPad*%
%ADD20O,1.200000X1.750000*%
%TD*%
%TA.AperFunction,SMDPad,CuDef*%
%ADD21RoundRect,0.250000X-0.625000X0.312500X-0.625000X-0.312500X0.625000X-0.312500X0.625000X0.312500X0*%
%TD*%
%TA.AperFunction,ComponentPad*%
%ADD22O,1.700000X1.700000*%
%TD*%
%TA.AperFunction,SMDPad,CuDef*%
%ADD23RoundRect,0.150000X-0.587500X-0.150000X0.587500X-0.150000X0.587500X0.150000X-0.587500X0.150000X0*%
%TD*%
%TA.AperFunction,SMDPad,CuDef*%
%ADD24RoundRect,0.225000X0.225000X0.250000X-0.225000X0.250000X-0.225000X-0.250000X0.225000X-0.250000X0*%
%TD*%
%TA.AperFunction,SMDPad,CuDef*%
%ADD25RoundRect,0.150000X0.150000X-0.587500X0.150000X0.587500X-0.150000X0.587500X-0.150000X-0.587500X0*%
%TD*%
%TA.AperFunction,ComponentPad*%
%ADD26C,1.905000*%
%TD*%
%TA.AperFunction,SMDPad,CuDef*%
%ADD27RoundRect,0.225000X-0.225000X-0.250000X0.225000X-0.250000X0.225000X0.250000X-0.225000X0.250000X0*%
%TD*%
%TA.AperFunction,SMDPad,CuDef*%
%ADD28RoundRect,0.100000X0.100000X-0.637500X0.100000X0.637500X-0.100000X0.637500X-0.100000X-0.637500X0*%
%TD*%
%TA.AperFunction,ComponentPad*%
%ADD29RoundRect,0.250000X0.600000X0.750000X-0.600000X0.750000X-0.600000X-0.750000X0.600000X-0.750000X0*%
%TD*%
%TA.AperFunction,ComponentPad*%
%ADD30O,1.700000X2.000000*%
%TD*%
%TA.AperFunction,SMDPad,CuDef*%
%ADD31RoundRect,0.150000X-0.825000X-0.150000X0.825000X-0.150000X0.825000X0.150000X-0.825000X0.150000X0*%
%TD*%
%TA.AperFunction,ViaPad*%
%ADD32C,0.500000*%
%TD*%
%TA.AperFunction,ViaPad*%
%ADD33C,0.800000*%
%TD*%
%TA.AperFunction,Conductor*%
%ADD34C,0.250000*%
%TD*%
%TA.AperFunction,Conductor*%
%ADD35C,0.400000*%
%TD*%
%TA.AperFunction,Conductor*%
%ADD36C,0.350000*%
%TD*%
%TA.AperFunction,Conductor*%
%ADD37C,0.203200*%
%TD*%
%TA.AperFunction,Conductor*%
%ADD38C,0.762000*%
%TD*%
%TA.AperFunction,Conductor*%
%ADD39C,0.500000*%
%TD*%
G04 APERTURE END LIST*
D10*
%TO.P,D1,2,A*%
%TO.N,/Vsolar*%
X171800000Y-82400000D03*
%TO.P,D1,1,K*%
%TO.N,+BATT*%
X175800000Y-82400000D03*
%TD*%
D11*
%TO.P,C7,1*%
%TO.N,+2V8*%
X158000000Y-80675000D03*
%TO.P,C7,2*%
%TO.N,GND*%
X158000000Y-79125000D03*
%TD*%
D12*
%TO.P,R9,1*%
%TO.N,/Vsolar*%
X147575000Y-87200000D03*
%TO.P,R9,2*%
%TO.N,/uC_vPV*%
X149225000Y-87200000D03*
%TD*%
D13*
%TO.P,J10,1,Pin_1*%
%TO.N,Net-(J10-Pin_1)*%
X189900000Y-99300000D03*
%TD*%
D14*
%TO.P,R14,1*%
%TO.N,+2V8*%
X154125000Y-87600000D03*
%TO.P,R14,2*%
%TO.N,/uC_vNTC*%
X152475000Y-87600000D03*
%TD*%
D13*
%TO.P,J9,1,Pin_1*%
%TO.N,Net-(J9-Pin_1)*%
X189900000Y-92500000D03*
%TD*%
D15*
%TO.P,R3,1*%
%TO.N,Net-(J9-Pin_1)*%
X186100000Y-94462500D03*
%TO.P,R3,2*%
%TO.N,+BATT*%
X186100000Y-91537500D03*
%TD*%
D16*
%TO.P,C14,1*%
%TO.N,+2V8*%
X158000000Y-82225000D03*
%TO.P,C14,2*%
%TO.N,GND*%
X158000000Y-83775000D03*
%TD*%
D17*
%TO.P,R2,1*%
%TO.N,+2V8*%
X159300000Y-98625000D03*
%TO.P,R2,2*%
%TO.N,/~{uC_RESET}*%
X159300000Y-96975000D03*
%TD*%
D18*
%TO.P,U3,1,VIN*%
%TO.N,+BATT*%
X175937500Y-87150000D03*
%TO.P,U3,2,GND*%
%TO.N,GND*%
X175937500Y-86200000D03*
%TO.P,U3,3,~{SHDN}*%
%TO.N,+BATT*%
X175937500Y-85250000D03*
%TO.P,U3,4,Bypass*%
%TO.N,Net-(U3-Bypass)*%
X173662500Y-85250000D03*
%TO.P,U3,5,VOUT*%
%TO.N,+2V8*%
X173662500Y-87150000D03*
%TD*%
D19*
%TO.P,J8,1,Pin_1*%
%TO.N,/Vsolar*%
X147500000Y-84800000D03*
D20*
%TO.P,J8,2,Pin_2*%
%TO.N,GND*%
X145500000Y-84800000D03*
%TD*%
D21*
%TO.P,R1,1*%
%TO.N,Net-(J7-Pin_1)*%
X183300000Y-87537500D03*
%TO.P,R1,2*%
%TO.N,+BATT*%
X183300000Y-90462500D03*
%TD*%
D19*
%TO.P,J5,1,Pin_1*%
%TO.N,GND*%
X154500000Y-84800000D03*
D20*
%TO.P,J5,2,Pin_2*%
%TO.N,/uC_vNTC*%
X152500000Y-84800000D03*
%TD*%
D14*
%TO.P,R10,1*%
%TO.N,Net-(Q3-B)*%
X173825000Y-91800000D03*
%TO.P,R10,2*%
%TO.N,/uC_LEDLOW*%
X172175000Y-91800000D03*
%TD*%
%TO.P,R7,1*%
%TO.N,+2V8*%
X156425000Y-101000000D03*
%TO.P,R7,2*%
%TO.N,/uC_I2C1_SDA*%
X154775000Y-101000000D03*
%TD*%
D13*
%TO.P,J3,1,Pin_1*%
%TO.N,+2V8*%
X144800000Y-90020000D03*
D22*
%TO.P,J3,2,Pin_2*%
%TO.N,/uC_SWCLK*%
X144800000Y-92560000D03*
%TO.P,J3,3,Pin_3*%
%TO.N,GND*%
X144800000Y-95100000D03*
%TO.P,J3,4,Pin_4*%
%TO.N,/uC_SWDIO*%
X144800000Y-97640000D03*
%TO.P,J3,5,Pin_5*%
%TO.N,/~{uC_RESET}*%
X144800000Y-100180000D03*
%TD*%
D13*
%TO.P,J2,1,Pin_1*%
%TO.N,+2V8*%
X165030000Y-100100000D03*
D22*
%TO.P,J2,2,Pin_2*%
%TO.N,/uC_USART2_Tx*%
X167570000Y-100100000D03*
%TO.P,J2,3,Pin_3*%
%TO.N,/uC_USART2_Rx*%
X170110000Y-100100000D03*
%TO.P,J2,4,Pin_4*%
%TO.N,GND*%
X172650000Y-100100000D03*
%TD*%
D23*
%TO.P,Q2,1,B*%
%TO.N,Net-(Q2-B)*%
X183425000Y-97750000D03*
%TO.P,Q2,2,E*%
%TO.N,GND*%
X183425000Y-99650000D03*
%TO.P,Q2,3,C*%
%TO.N,Net-(J10-Pin_1)*%
X185300000Y-98700000D03*
%TD*%
D24*
%TO.P,C10,1*%
%TO.N,Net-(U3-Bypass)*%
X171975000Y-85300000D03*
%TO.P,C10,2*%
%TO.N,GND*%
X170425000Y-85300000D03*
%TD*%
%TO.P,C16,1*%
%TO.N,+2V8*%
X169450000Y-92500000D03*
%TO.P,C16,2*%
%TO.N,GND*%
X167900000Y-92500000D03*
%TD*%
D16*
%TO.P,C8,1*%
%TO.N,+2V8*%
X157900000Y-98625000D03*
%TO.P,C8,2*%
%TO.N,GND*%
X157900000Y-100175000D03*
%TD*%
D14*
%TO.P,R12,1*%
%TO.N,+BATT*%
X175925000Y-88700000D03*
%TO.P,R12,2*%
%TO.N,/uC_vBAT*%
X174275000Y-88700000D03*
%TD*%
D25*
%TO.P,Q3,1,B*%
%TO.N,Net-(Q3-B)*%
X178600000Y-90375000D03*
%TO.P,Q3,2,E*%
%TO.N,GND*%
X180500000Y-90375000D03*
%TO.P,Q3,3,C*%
%TO.N,Net-(J7-Pin_2)*%
X179550000Y-88500000D03*
%TD*%
D13*
%TO.P,J1,1,Pin_1*%
%TO.N,GND*%
X160800000Y-82375000D03*
D22*
%TO.P,J1,2,Pin_2*%
%TO.N,+2V8*%
X160800000Y-79835000D03*
%TO.P,J1,3,Pin_3*%
%TO.N,/uC_SPI_CE*%
X163340000Y-82375000D03*
%TO.P,J1,4,Pin_4*%
%TO.N,/uC_SPI1_CSN*%
X163340000Y-79835000D03*
%TO.P,J1,5,Pin_5*%
%TO.N,/uC_SPI1_SCK*%
X165880000Y-82375000D03*
%TO.P,J1,6,Pin_6*%
%TO.N,/uC_SPI1_MOSI*%
X165880000Y-79835000D03*
%TO.P,J1,7,Pin_7*%
%TO.N,/uC_SPI1_MISO*%
X168420000Y-82375000D03*
%TO.P,J1,8,Pin_8*%
%TO.N,/uC_RF_IRQ*%
X168420000Y-79835000D03*
%TD*%
D24*
%TO.P,C11,1*%
%TO.N,+2V8*%
X171975000Y-88300000D03*
%TO.P,C11,2*%
%TO.N,GND*%
X170425000Y-88300000D03*
%TD*%
%TO.P,C12,1*%
%TO.N,+2V8*%
X171975000Y-86800000D03*
%TO.P,C12,2*%
%TO.N,GND*%
X170425000Y-86800000D03*
%TD*%
D12*
%TO.P,R13,1*%
%TO.N,/uC_vBAT*%
X173375000Y-90200000D03*
%TO.P,R13,2*%
%TO.N,GND*%
X175025000Y-90200000D03*
%TD*%
D14*
%TO.P,R11,1*%
%TO.N,/uC_vPV*%
X149225000Y-88600000D03*
%TO.P,R11,2*%
%TO.N,GND*%
X147575000Y-88600000D03*
%TD*%
D26*
%TO.P,U1,1,Pin_1*%
%TO.N,+2V8*%
X169296051Y-94796051D03*
%TO.P,U1,2,Pin_2*%
%TO.N,/DOCI*%
X165703949Y-94796051D03*
%TO.P,U1,3,Pin_3*%
%TO.N,GND*%
X165703949Y-91203949D03*
%TD*%
D27*
%TO.P,C13,1*%
%TO.N,+2V8*%
X152925000Y-95600000D03*
%TO.P,C13,2*%
%TO.N,GND*%
X154475000Y-95600000D03*
%TD*%
D14*
%TO.P,R6,1*%
%TO.N,+2V8*%
X156425000Y-99500000D03*
%TO.P,R6,2*%
%TO.N,/uC_I2C1_SCL*%
X154775000Y-99500000D03*
%TD*%
D16*
%TO.P,C9,1*%
%TO.N,/~{uC_RESET}*%
X160800000Y-97025000D03*
%TO.P,C9,2*%
%TO.N,GND*%
X160800000Y-98575000D03*
%TD*%
D28*
%TO.P,U2,1,PB7/PB8*%
%TO.N,/uC_I2C1_SCL*%
X155775000Y-95262500D03*
%TO.P,U2,2,PC14/PB9*%
%TO.N,/uC_I2C1_SDA*%
X156425000Y-95262500D03*
%TO.P,U2,3,PC15*%
%TO.N,/uC_RF_IRQ*%
X157075000Y-95262500D03*
%TO.P,U2,4,VDD*%
%TO.N,+2V8*%
X157725000Y-95262500D03*
%TO.P,U2,5,VSS*%
%TO.N,GND*%
X158375000Y-95262500D03*
%TO.P,U2,6,NRST*%
%TO.N,/~{uC_RESET}*%
X159025000Y-95262500D03*
%TO.P,U2,7,PA0*%
%TO.N,/uC_vPV*%
X159675000Y-95262500D03*
%TO.P,U2,8,PA1*%
%TO.N,/uC_LEDLOW*%
X160325000Y-95262500D03*
%TO.P,U2,9,PA2*%
%TO.N,/uC_USART2_Tx*%
X160975000Y-95262500D03*
%TO.P,U2,10,PA3*%
%TO.N,/uC_USART2_Rx*%
X161625000Y-95262500D03*
%TO.P,U2,11,PA4*%
%TO.N,/uC_vBAT*%
X161625000Y-89537500D03*
%TO.P,U2,12,PA5*%
%TO.N,/uC_SPI1_SCK*%
X160975000Y-89537500D03*
%TO.P,U2,13,PA6*%
%TO.N,/uC_SPI1_MISO*%
X160325000Y-89537500D03*
%TO.P,U2,14,PA7*%
%TO.N,/uC_SPI1_MOSI*%
X159675000Y-89537500D03*
%TO.P,U2,15,PB0/PB1/PB2/PA8*%
%TO.N,/uC_SPI_CE*%
X159025000Y-89537500D03*
%TO.P,U2,16,PA11/PA9*%
%TO.N,/uC_SPI1_CSN*%
X158375000Y-89537500D03*
%TO.P,U2,17,PA12/PA10*%
%TO.N,/DOCI*%
X157725000Y-89537500D03*
%TO.P,U2,18,PA13*%
%TO.N,/uC_SWDIO*%
X157075000Y-89537500D03*
%TO.P,U2,19,PA14/PA15*%
%TO.N,/uC_SWCLK*%
X156425000Y-89537500D03*
%TO.P,U2,20,PB3/PB4/PB5/PB6*%
%TO.N,/uC_LEDHIGH*%
X155775000Y-89537500D03*
%TD*%
D14*
%TO.P,R8,1*%
%TO.N,Net-(Q2-B)*%
X183425000Y-96200000D03*
%TO.P,R8,2*%
%TO.N,/uC_LEDHIGH*%
X181775000Y-96200000D03*
%TD*%
D29*
%TO.P,J6,1,Pin_1*%
%TO.N,GND*%
X189950000Y-86150000D03*
D30*
%TO.P,J6,2,Pin_2*%
%TO.N,+BATT*%
X187450000Y-86150000D03*
%TD*%
D19*
%TO.P,J7,1,Pin_1*%
%TO.N,Net-(J7-Pin_1)*%
X181900000Y-84800000D03*
D20*
%TO.P,J7,2,Pin_2*%
%TO.N,Net-(J7-Pin_2)*%
X179900000Y-84800000D03*
%TD*%
D31*
%TO.P,U4,1,A0*%
%TO.N,GND*%
X147825000Y-97195000D03*
%TO.P,U4,2,A1*%
X147825000Y-98465000D03*
%TO.P,U4,3,A2*%
X147825000Y-99735000D03*
%TO.P,U4,4,GND*%
X147825000Y-101005000D03*
%TO.P,U4,5,SDA*%
%TO.N,/uC_I2C1_SDA*%
X152775000Y-101005000D03*
%TO.P,U4,6,SCL*%
%TO.N,/uC_I2C1_SCL*%
X152775000Y-99735000D03*
%TO.P,U4,7,WP*%
%TO.N,GND*%
X152775000Y-98465000D03*
%TO.P,U4,8,VCC*%
%TO.N,+2V8*%
X152775000Y-97195000D03*
%TD*%
D32*
%TO.N,/~{uC_RESET}*%
X159025000Y-94100000D03*
D33*
%TO.N,+2V8*%
X154100000Y-88500000D03*
X154800000Y-92300000D03*
D32*
X171975000Y-89100000D03*
%TO.N,/uC_LEDHIGH*%
X180900000Y-96200000D03*
X155800000Y-88400000D03*
%TO.N,/Vsolar*%
X171800000Y-81200000D03*
X172700000Y-81200000D03*
X171800000Y-80600000D03*
X170900000Y-80600000D03*
X170900000Y-81200000D03*
X172700000Y-80600000D03*
%TO.N,/uC_vPV*%
X149900000Y-88600000D03*
X159675000Y-94125000D03*
%TO.N,/uC_vBAT*%
X172600000Y-90200000D03*
X161625000Y-88500000D03*
D33*
%TO.N,/uC_RF_IRQ*%
X157200000Y-91600000D03*
X163200000Y-90200000D03*
%TD*%
D34*
%TO.N,/uC_SPI1_MISO*%
X168420000Y-82780000D02*
X168420000Y-82375000D01*
X162300000Y-88900000D02*
X168420000Y-82780000D01*
X162300000Y-90300000D02*
X162300000Y-88900000D01*
X160500000Y-90700000D02*
X161900000Y-90700000D01*
X161900000Y-90700000D02*
X162300000Y-90300000D01*
X160325000Y-90525000D02*
X160500000Y-90700000D01*
X160325000Y-89537500D02*
X160325000Y-90525000D01*
D35*
%TO.N,Net-(U3-Bypass)*%
X173612500Y-85300000D02*
X173662500Y-85250000D01*
X171975000Y-85300000D02*
X173612500Y-85300000D01*
D34*
%TO.N,/uC_SPI_CE*%
X163340000Y-83760000D02*
X163340000Y-82375000D01*
X159025000Y-88075000D02*
X163340000Y-83760000D01*
X159025000Y-89537500D02*
X159025000Y-88075000D01*
%TO.N,/uC_SPI1_CSN*%
X162100000Y-81075000D02*
X163340000Y-79835000D01*
X158375000Y-87825000D02*
X162100000Y-84100000D01*
X158375000Y-89537500D02*
X158375000Y-87825000D01*
X162100000Y-84100000D02*
X162100000Y-81075000D01*
%TO.N,/uC_SPI1_SCK*%
X165880000Y-82375000D02*
X165880000Y-82170000D01*
X160975000Y-89537500D02*
X160975000Y-88225000D01*
X165880000Y-83320000D02*
X165880000Y-82375000D01*
X160975000Y-88225000D02*
X165880000Y-83320000D01*
%TO.N,/uC_SPI1_MOSI*%
X164600000Y-83400000D02*
X164600000Y-81115000D01*
X159675000Y-89537500D02*
X159675000Y-88325000D01*
X164600000Y-81115000D02*
X165880000Y-79835000D01*
X159675000Y-88325000D02*
X164600000Y-83400000D01*
D36*
%TO.N,/uC_I2C1_SCL*%
X154540000Y-99735000D02*
X154775000Y-99500000D01*
D34*
X154775000Y-98425000D02*
X154775000Y-99500000D01*
X155775000Y-95262500D02*
X155775000Y-97425000D01*
X155775000Y-97425000D02*
X154775000Y-98425000D01*
D36*
X152775000Y-99735000D02*
X154540000Y-99735000D01*
D37*
%TO.N,/uC_I2C1_SDA*%
X156425000Y-97675000D02*
X156425000Y-95262500D01*
X155100000Y-101000000D02*
X155600000Y-100500000D01*
X155600000Y-98500000D02*
X156425000Y-97675000D01*
X155600000Y-100500000D02*
X155600000Y-98500000D01*
D36*
X154770000Y-101005000D02*
X154775000Y-101000000D01*
D37*
X154775000Y-101000000D02*
X155100000Y-101000000D01*
D36*
X152775000Y-101005000D02*
X154770000Y-101005000D01*
D34*
%TO.N,/~{uC_RESET}*%
X159025000Y-94100000D02*
X159025000Y-95262500D01*
X160650000Y-96975000D02*
X160700000Y-97025000D01*
X159200000Y-96975000D02*
X160650000Y-96975000D01*
X159025000Y-96800000D02*
X159200000Y-96975000D01*
X159025000Y-95262500D02*
X159025000Y-96800000D01*
%TO.N,/uC_USART2_Tx*%
X162000000Y-96300000D02*
X163600000Y-97900000D01*
X160975000Y-95262500D02*
X160975000Y-96075000D01*
X161200000Y-96300000D02*
X162000000Y-96300000D01*
X166700000Y-97900000D02*
X167570000Y-98770000D01*
X167570000Y-98770000D02*
X167570000Y-100100000D01*
X163600000Y-97900000D02*
X166700000Y-97900000D01*
X160975000Y-96075000D02*
X161200000Y-96300000D01*
%TO.N,/uC_USART2_Rx*%
X161625000Y-95262500D02*
X161862500Y-95262500D01*
X164000000Y-97400000D02*
X167410000Y-97400000D01*
X161625000Y-95262500D02*
X161625000Y-95325000D01*
X167410000Y-97400000D02*
X170110000Y-100100000D01*
X161862500Y-95262500D02*
X164000000Y-97400000D01*
%TO.N,/uC_SWDIO*%
X156700000Y-91000000D02*
X147500000Y-91000000D01*
X147500000Y-91000000D02*
X146200000Y-92300000D01*
X157075000Y-90625000D02*
X156700000Y-91000000D01*
X144800000Y-97200000D02*
X144800000Y-97640000D01*
X146200000Y-92300000D02*
X146200000Y-95800000D01*
X157075000Y-89537500D02*
X157075000Y-90625000D01*
X146200000Y-95800000D02*
X144800000Y-97200000D01*
%TO.N,/uC_SWCLK*%
X144800000Y-92800000D02*
X147000000Y-90600000D01*
X147000000Y-90600000D02*
X156400000Y-90600000D01*
X156400000Y-90600000D02*
X156425000Y-90575000D01*
X156425000Y-90575000D02*
X156425000Y-89537500D01*
X144800000Y-92560000D02*
X144800000Y-92800000D01*
%TO.N,Net-(Q2-B)*%
X183425000Y-96200000D02*
X183425000Y-97750000D01*
D38*
%TO.N,+2V8*%
X159100000Y-80675000D02*
X159940000Y-79835000D01*
D35*
X172950000Y-87150000D02*
X172500000Y-86700000D01*
X171975000Y-89100000D02*
X171975000Y-89975000D01*
D38*
X159940000Y-79835000D02*
X160800000Y-79835000D01*
D34*
X159200000Y-98400000D02*
X159200000Y-98625000D01*
D35*
X169450000Y-94642102D02*
X169296051Y-94796051D01*
D38*
X158000000Y-82225000D02*
X158000000Y-80675000D01*
D34*
X152775000Y-97195000D02*
X152775000Y-95750000D01*
X152775000Y-95750000D02*
X152925000Y-95600000D01*
D35*
X154600000Y-87600000D02*
X156500000Y-85700000D01*
D38*
X158000000Y-80675000D02*
X159100000Y-80675000D01*
D35*
X159300000Y-99500000D02*
X159300000Y-98625000D01*
X144820000Y-90000000D02*
X152600000Y-90000000D01*
X157725000Y-98450000D02*
X157900000Y-98625000D01*
X154125000Y-88475000D02*
X154100000Y-88500000D01*
X171975000Y-88300000D02*
X171975000Y-86800000D01*
X152600000Y-90000000D02*
X154100000Y-88500000D01*
D36*
X156425000Y-98975000D02*
X156425000Y-99500000D01*
D35*
X172500000Y-86700000D02*
X172075000Y-86700000D01*
X157637500Y-82225000D02*
X158000000Y-82225000D01*
X169450000Y-92500000D02*
X169450000Y-94642102D01*
X171975000Y-89975000D02*
X170800000Y-91150000D01*
X154125000Y-87600000D02*
X154600000Y-87600000D01*
D36*
X156775000Y-98625000D02*
X156425000Y-98975000D01*
D35*
X157725000Y-95262500D02*
X157725000Y-98450000D01*
X170800000Y-92200000D02*
X170500000Y-92500000D01*
X156500000Y-85700000D02*
X156500000Y-83362500D01*
D34*
X154800000Y-92800000D02*
X154800000Y-92300000D01*
D35*
X144800000Y-90020000D02*
X144820000Y-90000000D01*
D34*
X152925000Y-95600000D02*
X152925000Y-94675000D01*
D35*
X169796051Y-94296051D02*
X169296051Y-94796051D01*
X171975000Y-89100000D02*
X171975000Y-88300000D01*
X172075000Y-86700000D02*
X171975000Y-86800000D01*
X156500000Y-83362500D02*
X157637500Y-82225000D01*
X170500000Y-92500000D02*
X169450000Y-92500000D01*
X170800000Y-91150000D02*
X170800000Y-92200000D01*
D36*
X157900000Y-98625000D02*
X156775000Y-98625000D01*
D34*
X152925000Y-94675000D02*
X154800000Y-92800000D01*
D36*
X156425000Y-101000000D02*
X156425000Y-99500000D01*
D35*
X159900000Y-100100000D02*
X159300000Y-99500000D01*
D36*
X157900000Y-98625000D02*
X157825000Y-98700000D01*
D35*
X165030000Y-100100000D02*
X159900000Y-100100000D01*
X173662500Y-87150000D02*
X172950000Y-87150000D01*
X154125000Y-87600000D02*
X154125000Y-88475000D01*
X159300000Y-98625000D02*
X157900000Y-98625000D01*
%TO.N,Net-(J10-Pin_1)*%
X185300000Y-98700000D02*
X189300000Y-98700000D01*
X189300000Y-98700000D02*
X189900000Y-99300000D01*
D37*
%TO.N,Net-(Q3-B)*%
X178375000Y-90600000D02*
X178600000Y-90375000D01*
X173925000Y-91700000D02*
X175150000Y-91700000D01*
X175150000Y-91700000D02*
X176250000Y-90600000D01*
X173825000Y-91800000D02*
X173925000Y-91700000D01*
X176250000Y-90600000D02*
X178375000Y-90600000D01*
D38*
%TO.N,+BATT*%
X175800000Y-82400000D02*
X184700000Y-82400000D01*
D35*
X175937500Y-87150000D02*
X177150000Y-87150000D01*
D38*
X186100000Y-91537500D02*
X186100000Y-88700000D01*
D35*
X177250000Y-85250000D02*
X175937500Y-85250000D01*
D38*
X184337500Y-91500000D02*
X186062500Y-91500000D01*
D35*
X177150000Y-87150000D02*
X177500000Y-86800000D01*
D34*
X175925000Y-88700000D02*
X175925000Y-87162500D01*
D35*
X175937500Y-82537500D02*
X175800000Y-82400000D01*
D38*
X187450000Y-85150000D02*
X187450000Y-86150000D01*
X186100000Y-88700000D02*
X187450000Y-87350000D01*
D35*
X177500000Y-86800000D02*
X177500000Y-85500000D01*
D38*
X183300000Y-90462500D02*
X184337500Y-91500000D01*
D34*
X175925000Y-87162500D02*
X175937500Y-87150000D01*
D38*
X187450000Y-87350000D02*
X187450000Y-86150000D01*
D39*
X175937500Y-85250000D02*
X175937500Y-82537500D01*
D35*
X177500000Y-85500000D02*
X177250000Y-85250000D01*
D38*
X186062500Y-91500000D02*
X186100000Y-91537500D01*
X184700000Y-82400000D02*
X187450000Y-85150000D01*
D34*
%TO.N,/uC_LEDLOW*%
X164700000Y-96900000D02*
X170500000Y-96900000D01*
X160500000Y-94050000D02*
X161850000Y-94050000D01*
X171300000Y-92900000D02*
X172375000Y-91825000D01*
X171300000Y-96100000D02*
X171300000Y-92900000D01*
X160325000Y-94225000D02*
X160500000Y-94050000D01*
X170500000Y-96900000D02*
X171300000Y-96100000D01*
X172375000Y-91825000D02*
X172375000Y-91800000D01*
X161850000Y-94050000D02*
X164700000Y-96900000D01*
X160325000Y-95262500D02*
X160325000Y-94225000D01*
%TO.N,/uC_LEDHIGH*%
X155775000Y-88425000D02*
X155800000Y-88400000D01*
X155775000Y-89537500D02*
X155775000Y-88425000D01*
X181775000Y-96200000D02*
X180900000Y-96200000D01*
D36*
%TO.N,/Vsolar*%
X147500000Y-84800000D02*
X147500000Y-87525000D01*
X147500000Y-87525000D02*
X147575000Y-87600000D01*
%TO.N,Net-(J7-Pin_1)*%
X182100000Y-85000000D02*
X181900000Y-84800000D01*
D38*
X181900000Y-85500000D02*
X183300000Y-86900000D01*
X181900000Y-84800000D02*
X181900000Y-85500000D01*
X183300000Y-86900000D02*
X183300000Y-87537500D01*
D34*
%TO.N,/DOCI*%
X158050000Y-91150000D02*
X162350000Y-91150000D01*
X157725000Y-90825000D02*
X158050000Y-91150000D01*
X165703949Y-94503949D02*
X165703949Y-94796051D01*
X157725000Y-89537500D02*
X157725000Y-90825000D01*
X162350000Y-91150000D02*
X165703949Y-94503949D01*
%TO.N,Net-(J7-Pin_2)*%
X179900000Y-84800000D02*
X179900000Y-85525000D01*
X179550000Y-85875000D02*
X179550000Y-88500000D01*
X179900000Y-85525000D02*
X179550000Y-85875000D01*
D38*
%TO.N,Net-(J9-Pin_1)*%
X187937500Y-94462500D02*
X189900000Y-92500000D01*
X186100000Y-94462500D02*
X187937500Y-94462500D01*
%TO.N,/uC_vNTC*%
X152500000Y-87575000D02*
X152475000Y-87600000D01*
X152500000Y-84800000D02*
X152500000Y-87575000D01*
D34*
%TO.N,/uC_vPV*%
X159700000Y-94100000D02*
X159675000Y-94125000D01*
X149225000Y-88600000D02*
X149225000Y-87200000D01*
X159675000Y-95262500D02*
X159675000Y-94125000D01*
X149900000Y-88600000D02*
X149225000Y-88600000D01*
%TO.N,/uC_vBAT*%
X174275000Y-89725000D02*
X174275000Y-88700000D01*
X173800000Y-90200000D02*
X174275000Y-89725000D01*
X172600000Y-90200000D02*
X173800000Y-90200000D01*
X161625000Y-88500000D02*
X161625000Y-89537500D01*
D37*
%TO.N,/uC_RF_IRQ*%
X163200000Y-90200000D02*
X163250000Y-90150000D01*
X169900000Y-81315000D02*
X168420000Y-79835000D01*
X157075000Y-95262500D02*
X157075000Y-91725000D01*
X163200000Y-90200000D02*
X163200000Y-89400001D01*
X169900000Y-82700001D02*
X169900000Y-81315000D01*
X163200000Y-89400001D02*
X169900000Y-82700001D01*
X157075000Y-91725000D02*
X157200000Y-91600000D01*
%TD*%
%TA.AperFunction,Conductor*%
%TO.N,/Vsolar*%
G36*
X170951052Y-80336225D02*
G01*
X170987675Y-80346038D01*
X171017580Y-80358425D01*
X171050414Y-80377381D01*
X171076097Y-80397088D01*
X171102910Y-80423901D01*
X171122613Y-80449576D01*
X171122617Y-80449583D01*
X171127867Y-80458676D01*
X171142479Y-80479196D01*
X171153014Y-80491354D01*
X171173212Y-80514663D01*
X171173211Y-80514663D01*
X171224099Y-80550900D01*
X171224102Y-80550902D01*
X171256461Y-80563857D01*
X171288960Y-80576868D01*
X171288962Y-80576868D01*
X171288966Y-80576870D01*
X171363286Y-80583967D01*
X171431894Y-80570745D01*
X171431896Y-80570744D01*
X171498256Y-80536533D01*
X171498259Y-80536529D01*
X171498262Y-80536528D01*
X171548816Y-80488324D01*
X171548816Y-80488323D01*
X171548821Y-80488319D01*
X171572133Y-80458676D01*
X171577387Y-80449576D01*
X171597083Y-80423905D01*
X171623906Y-80397081D01*
X171649570Y-80377388D01*
X171682422Y-80358421D01*
X171712321Y-80346039D01*
X171712329Y-80346037D01*
X171714065Y-80345571D01*
X171748950Y-80336225D01*
X171781041Y-80332000D01*
X171818959Y-80332000D01*
X171851044Y-80336224D01*
X171851052Y-80336225D01*
X171887675Y-80346038D01*
X171917580Y-80358425D01*
X171950414Y-80377381D01*
X171976097Y-80397088D01*
X172002910Y-80423901D01*
X172022613Y-80449576D01*
X172022617Y-80449583D01*
X172027867Y-80458676D01*
X172042479Y-80479196D01*
X172053014Y-80491354D01*
X172073212Y-80514663D01*
X172073211Y-80514663D01*
X172124099Y-80550900D01*
X172124102Y-80550902D01*
X172156461Y-80563857D01*
X172188960Y-80576868D01*
X172188962Y-80576868D01*
X172188966Y-80576870D01*
X172263286Y-80583967D01*
X172331894Y-80570745D01*
X172331896Y-80570744D01*
X172398256Y-80536533D01*
X172398259Y-80536529D01*
X172398262Y-80536528D01*
X172448816Y-80488324D01*
X172448816Y-80488323D01*
X172448821Y-80488319D01*
X172472133Y-80458676D01*
X172477387Y-80449576D01*
X172497083Y-80423905D01*
X172523906Y-80397081D01*
X172549570Y-80377388D01*
X172582422Y-80358421D01*
X172612321Y-80346039D01*
X172612329Y-80346037D01*
X172614065Y-80345571D01*
X172648950Y-80336225D01*
X172681041Y-80332000D01*
X172718959Y-80332000D01*
X172751044Y-80336224D01*
X172751052Y-80336225D01*
X172787675Y-80346038D01*
X172817580Y-80358425D01*
X172850414Y-80377381D01*
X172876097Y-80397088D01*
X172902910Y-80423901D01*
X172922616Y-80449582D01*
X172941572Y-80482415D01*
X172953959Y-80512319D01*
X172963774Y-80548946D01*
X172968000Y-80581039D01*
X172968000Y-80618957D01*
X172963774Y-80651053D01*
X172953960Y-80687676D01*
X172941574Y-80717578D01*
X172910300Y-80771746D01*
X172897910Y-80800681D01*
X172881442Y-80856767D01*
X172881441Y-80856774D01*
X172879810Y-80925339D01*
X172879810Y-80925343D01*
X172896281Y-80993232D01*
X172896282Y-80993237D01*
X172901802Y-81007024D01*
X172910299Y-81028248D01*
X172941573Y-81082416D01*
X172953959Y-81112319D01*
X172963774Y-81148946D01*
X172968000Y-81181042D01*
X172968000Y-81218957D01*
X172963774Y-81251053D01*
X172951586Y-81296535D01*
X172943992Y-81317275D01*
X172942808Y-81319787D01*
X172942802Y-81319804D01*
X172930500Y-81366828D01*
X172925516Y-81436517D01*
X172925517Y-81436523D01*
X172941386Y-81509471D01*
X172941386Y-81509473D01*
X172941386Y-81509474D01*
X172941387Y-81509475D01*
X172942396Y-81511322D01*
X172974872Y-81570798D01*
X172997363Y-81600844D01*
X173009495Y-81620692D01*
X173030165Y-81662975D01*
X173030167Y-81662978D01*
X173041469Y-81699553D01*
X173043702Y-81714873D01*
X173044999Y-81732758D01*
X173044999Y-83067236D01*
X173043703Y-83085115D01*
X173041470Y-83100440D01*
X173030167Y-83137021D01*
X173011238Y-83175741D01*
X173009097Y-83178739D01*
X173008669Y-83180708D01*
X172987518Y-83208962D01*
X172958962Y-83237518D01*
X172925742Y-83261237D01*
X172887023Y-83280166D01*
X172850441Y-83291470D01*
X172835116Y-83293703D01*
X172817237Y-83294999D01*
X170782763Y-83294999D01*
X170764885Y-83293703D01*
X170749559Y-83291470D01*
X170712978Y-83280167D01*
X170674253Y-83261235D01*
X170641034Y-83237517D01*
X170612482Y-83208965D01*
X170588764Y-83175747D01*
X170569830Y-83137017D01*
X170569233Y-83135085D01*
X170568534Y-83134281D01*
X170558528Y-83100435D01*
X170556295Y-83085105D01*
X170555000Y-83067232D01*
X170555000Y-81732762D01*
X170556294Y-81714892D01*
X170556336Y-81714602D01*
X170558527Y-81699560D01*
X170569830Y-81662980D01*
X170589498Y-81622748D01*
X170608479Y-81594961D01*
X170608333Y-81594838D01*
X170609532Y-81593419D01*
X170609652Y-81593245D01*
X170610003Y-81592864D01*
X170623329Y-81577109D01*
X170647377Y-81534876D01*
X170670228Y-81468849D01*
X170670229Y-81468846D01*
X170673779Y-81394272D01*
X170658417Y-81330958D01*
X170658416Y-81330958D01*
X170658004Y-81329262D01*
X170658006Y-81329262D01*
X170657308Y-81326384D01*
X170657303Y-81326373D01*
X170656260Y-81322071D01*
X170656260Y-81322070D01*
X170650386Y-81297863D01*
X170644634Y-81282435D01*
X170636225Y-81251050D01*
X170632000Y-81218959D01*
X170632000Y-81181038D01*
X170636224Y-81148948D01*
X170638631Y-81139965D01*
X170646039Y-81112319D01*
X170658425Y-81082417D01*
X170677061Y-81050140D01*
X170689700Y-81028249D01*
X170702083Y-80999331D01*
X170718556Y-80943232D01*
X170720189Y-80874662D01*
X170703716Y-80806761D01*
X170689700Y-80771750D01*
X170658422Y-80717575D01*
X170646038Y-80687676D01*
X170636223Y-80651047D01*
X170632000Y-80618958D01*
X170632000Y-80581039D01*
X170636225Y-80548947D01*
X170639551Y-80536533D01*
X170646038Y-80512319D01*
X170658420Y-80482424D01*
X170677387Y-80449572D01*
X170697083Y-80423905D01*
X170723903Y-80397085D01*
X170749572Y-80377387D01*
X170782423Y-80358421D01*
X170812315Y-80346040D01*
X170848952Y-80336223D01*
X170881041Y-80332000D01*
X170918959Y-80332000D01*
X170951052Y-80336225D01*
G37*
%TD.AperFunction*%
%TD*%
%TA.AperFunction,Conductor*%
%TO.N,GND*%
G36*
X159463306Y-81136110D02*
G01*
X159506498Y-81191030D01*
X159513141Y-81260583D01*
X159507563Y-81280452D01*
X159456403Y-81417619D01*
X159456401Y-81417627D01*
X159450000Y-81477155D01*
X159450000Y-82125000D01*
X160366988Y-82125000D01*
X160334075Y-82182007D01*
X160300000Y-82309174D01*
X160300000Y-82440826D01*
X160334075Y-82567993D01*
X160366988Y-82625000D01*
X159450000Y-82625000D01*
X159450000Y-83272844D01*
X159456401Y-83332372D01*
X159456403Y-83332379D01*
X159506645Y-83467086D01*
X159506649Y-83467093D01*
X159592809Y-83582187D01*
X159592812Y-83582190D01*
X159707906Y-83668350D01*
X159707913Y-83668354D01*
X159842620Y-83718596D01*
X159842627Y-83718598D01*
X159902155Y-83724999D01*
X159902172Y-83725000D01*
X160550000Y-83725000D01*
X160550000Y-82808012D01*
X160607007Y-82840925D01*
X160734174Y-82875000D01*
X160865826Y-82875000D01*
X160992993Y-82840925D01*
X161050000Y-82808012D01*
X161050000Y-83725000D01*
X161697827Y-83725000D01*
X161710237Y-83723665D01*
X161725648Y-83726444D01*
X161741147Y-83724216D01*
X161759326Y-83732518D01*
X161778997Y-83736066D01*
X161790458Y-83746735D01*
X161804703Y-83753241D01*
X161815509Y-83770055D01*
X161830138Y-83783674D01*
X161834516Y-83799631D01*
X161842477Y-83812019D01*
X161847500Y-83846954D01*
X161847500Y-83944049D01*
X161827815Y-84011088D01*
X161811181Y-84031730D01*
X158160942Y-87681968D01*
X158160941Y-87681969D01*
X158122500Y-87774773D01*
X158122500Y-88593184D01*
X158102815Y-88660223D01*
X158050011Y-88705978D01*
X157980853Y-88715922D01*
X157929610Y-88696287D01*
X157913766Y-88685700D01*
X157913765Y-88685699D01*
X157913764Y-88685699D01*
X157913761Y-88685698D01*
X157847409Y-88672500D01*
X157847406Y-88672500D01*
X157602594Y-88672500D01*
X157602591Y-88672500D01*
X157536238Y-88685698D01*
X157536235Y-88685699D01*
X157468890Y-88730698D01*
X157402213Y-88751575D01*
X157334833Y-88733090D01*
X157331110Y-88730698D01*
X157308996Y-88715922D01*
X157263766Y-88685700D01*
X157263765Y-88685699D01*
X157263764Y-88685699D01*
X157263761Y-88685698D01*
X157197409Y-88672500D01*
X157197406Y-88672500D01*
X156952594Y-88672500D01*
X156952591Y-88672500D01*
X156886238Y-88685698D01*
X156886235Y-88685699D01*
X156818890Y-88730698D01*
X156752213Y-88751575D01*
X156684833Y-88733090D01*
X156681110Y-88730698D01*
X156658996Y-88715922D01*
X156613766Y-88685700D01*
X156613765Y-88685699D01*
X156613764Y-88685699D01*
X156613761Y-88685698D01*
X156547409Y-88672500D01*
X156547406Y-88672500D01*
X156303212Y-88672500D01*
X156236173Y-88652815D01*
X156190418Y-88600011D01*
X156180474Y-88530853D01*
X156183437Y-88516407D01*
X156200500Y-88452727D01*
X156200500Y-88347273D01*
X156173207Y-88245413D01*
X156120480Y-88154087D01*
X156045913Y-88079520D01*
X155954587Y-88026793D01*
X155852727Y-87999500D01*
X155747273Y-87999500D01*
X155645413Y-88026793D01*
X155645410Y-88026794D01*
X155554085Y-88079521D01*
X155479521Y-88154085D01*
X155426794Y-88245410D01*
X155426793Y-88245413D01*
X155399500Y-88347273D01*
X155399500Y-88452727D01*
X155424834Y-88547273D01*
X155426793Y-88554586D01*
X155426794Y-88554589D01*
X155483446Y-88652713D01*
X155499919Y-88720613D01*
X155479163Y-88783602D01*
X155460699Y-88811235D01*
X155460698Y-88811238D01*
X155447500Y-88877589D01*
X155447500Y-90197405D01*
X155447878Y-90199306D01*
X155447787Y-90200323D01*
X155448097Y-90203471D01*
X155447500Y-90203529D01*
X155441652Y-90268898D01*
X155398790Y-90324076D01*
X155332901Y-90347322D01*
X155326261Y-90347500D01*
X153015017Y-90347500D01*
X152947978Y-90327815D01*
X152902223Y-90275011D01*
X152892279Y-90205853D01*
X152921304Y-90142297D01*
X152927336Y-90135819D01*
X153999336Y-89063819D01*
X154060659Y-89030334D01*
X154087017Y-89027500D01*
X154169445Y-89027500D01*
X154169447Y-89027500D01*
X154303607Y-88991552D01*
X154423893Y-88922105D01*
X154522105Y-88823893D01*
X154591552Y-88703607D01*
X154627500Y-88569447D01*
X154627500Y-88430553D01*
X154591552Y-88296393D01*
X154556847Y-88236282D01*
X154540374Y-88168382D01*
X154557789Y-88110678D01*
X154565675Y-88097479D01*
X154597411Y-88065744D01*
X154642803Y-87968400D01*
X154646054Y-87962960D01*
X154667228Y-87943368D01*
X154686289Y-87921720D01*
X154694516Y-87918119D01*
X154697338Y-87915509D01*
X154702620Y-87914572D01*
X154720403Y-87906790D01*
X154726410Y-87905181D01*
X154801090Y-87862065D01*
X156762065Y-85901090D01*
X156805181Y-85826410D01*
X156827500Y-85743116D01*
X156827500Y-85656884D01*
X156827500Y-84289403D01*
X156847185Y-84222364D01*
X156899989Y-84176609D01*
X156969147Y-84166665D01*
X157032703Y-84195690D01*
X157069206Y-84250399D01*
X157088452Y-84308481D01*
X157088457Y-84308492D01*
X157177424Y-84452728D01*
X157177427Y-84452732D01*
X157297267Y-84572572D01*
X157297271Y-84572575D01*
X157441507Y-84661542D01*
X157441518Y-84661547D01*
X157602393Y-84714855D01*
X157701683Y-84724999D01*
X158250000Y-84724999D01*
X158298308Y-84724999D01*
X158298322Y-84724998D01*
X158397607Y-84714855D01*
X158558481Y-84661547D01*
X158558492Y-84661542D01*
X158702728Y-84572575D01*
X158702732Y-84572572D01*
X158822572Y-84452732D01*
X158822575Y-84452728D01*
X158911542Y-84308492D01*
X158911547Y-84308481D01*
X158964855Y-84147606D01*
X158974999Y-84048322D01*
X158975000Y-84048309D01*
X158975000Y-84025000D01*
X158250000Y-84025000D01*
X158250000Y-84724999D01*
X157701683Y-84724999D01*
X157749999Y-84724998D01*
X157750000Y-84724998D01*
X157750000Y-83899000D01*
X157769685Y-83831961D01*
X157822489Y-83786206D01*
X157874000Y-83775000D01*
X158000000Y-83775000D01*
X158000000Y-83649000D01*
X158019685Y-83581961D01*
X158072489Y-83536206D01*
X158124000Y-83525000D01*
X158974999Y-83525000D01*
X158974999Y-83501692D01*
X158974998Y-83501677D01*
X158964855Y-83402392D01*
X158911547Y-83241518D01*
X158911542Y-83241507D01*
X158822575Y-83097271D01*
X158822572Y-83097267D01*
X158702732Y-82977427D01*
X158702728Y-82977424D01*
X158558492Y-82888457D01*
X158551941Y-82885403D01*
X158552999Y-82883132D01*
X158505260Y-82850067D01*
X158478448Y-82785547D01*
X158490774Y-82716773D01*
X158493946Y-82710829D01*
X158502215Y-82696294D01*
X158540848Y-82657662D01*
X158592517Y-82551972D01*
X158602500Y-82483453D01*
X158602499Y-81966548D01*
X158592517Y-81898028D01*
X158540848Y-81792338D01*
X158540847Y-81792337D01*
X158540847Y-81792336D01*
X158534877Y-81783974D01*
X158537184Y-81782326D01*
X158511334Y-81734985D01*
X158508500Y-81708627D01*
X158508500Y-81307500D01*
X158528185Y-81240461D01*
X158580989Y-81194706D01*
X158632500Y-81183500D01*
X159166943Y-81183500D01*
X159166945Y-81183500D01*
X159296274Y-81148847D01*
X159329381Y-81129732D01*
X159397278Y-81113259D01*
X159463306Y-81136110D01*
G37*
%TD.AperFunction*%
%TA.AperFunction,Conductor*%
G36*
X157459520Y-78020185D02*
G01*
X157505275Y-78072989D01*
X157515219Y-78142147D01*
X157486194Y-78205703D01*
X157444882Y-78236884D01*
X157441510Y-78238456D01*
X157297271Y-78327424D01*
X157297267Y-78327427D01*
X157177427Y-78447267D01*
X157177424Y-78447271D01*
X157088457Y-78591507D01*
X157088452Y-78591518D01*
X157035144Y-78752393D01*
X157025000Y-78851677D01*
X157025000Y-78875000D01*
X158974999Y-78875000D01*
X158974999Y-78851692D01*
X158974998Y-78851677D01*
X158964855Y-78752392D01*
X158911547Y-78591518D01*
X158911542Y-78591507D01*
X158822575Y-78447271D01*
X158822572Y-78447267D01*
X158702732Y-78327427D01*
X158702728Y-78327424D01*
X158558489Y-78238456D01*
X158555118Y-78236884D01*
X158553192Y-78235188D01*
X158552337Y-78234661D01*
X158552427Y-78234514D01*
X158502677Y-78190714D01*
X158483523Y-78123521D01*
X158503736Y-78056639D01*
X158556900Y-78011302D01*
X158607519Y-78000500D01*
X177999793Y-78000500D01*
X178000207Y-78000500D01*
X192875500Y-78000500D01*
X192942539Y-78020185D01*
X192988294Y-78072989D01*
X192999500Y-78124500D01*
X192999500Y-101875500D01*
X192979815Y-101942539D01*
X192927011Y-101988294D01*
X192875500Y-101999500D01*
X148944306Y-101999500D01*
X148877267Y-101979815D01*
X148831512Y-101927011D01*
X148821568Y-101857853D01*
X148850593Y-101794297D01*
X148903445Y-101760330D01*
X148903035Y-101759382D01*
X148908814Y-101756880D01*
X148909371Y-101756523D01*
X148909713Y-101756423D01*
X148910196Y-101756282D01*
X149051552Y-101672685D01*
X149051561Y-101672678D01*
X149167678Y-101556561D01*
X149167685Y-101556552D01*
X149251281Y-101415198D01*
X149297100Y-101257486D01*
X149297295Y-101255001D01*
X149297295Y-101255000D01*
X146352705Y-101255000D01*
X146352704Y-101255001D01*
X146352899Y-101257486D01*
X146398718Y-101415198D01*
X146482314Y-101556552D01*
X146482321Y-101556561D01*
X146598438Y-101672678D01*
X146598447Y-101672685D01*
X146739803Y-101756282D01*
X146739802Y-101756282D01*
X146740287Y-101756423D01*
X146740621Y-101756636D01*
X146746965Y-101759382D01*
X146746522Y-101760404D01*
X146799174Y-101794029D01*
X146828381Y-101857501D01*
X146818636Y-101926688D01*
X146773032Y-101979623D01*
X146706050Y-101999499D01*
X146705694Y-101999500D01*
X143124500Y-101999500D01*
X143057461Y-101979815D01*
X143011706Y-101927011D01*
X143000500Y-101875500D01*
X143000500Y-100083720D01*
X143822500Y-100083720D01*
X143822500Y-100276279D01*
X143860062Y-100465118D01*
X143860066Y-100465132D01*
X143933746Y-100643013D01*
X143933753Y-100643026D01*
X144040725Y-100803119D01*
X144040728Y-100803123D01*
X144176876Y-100939271D01*
X144176880Y-100939274D01*
X144336973Y-101046246D01*
X144336986Y-101046253D01*
X144412424Y-101077500D01*
X144514874Y-101119936D01*
X144703720Y-101157499D01*
X144703724Y-101157500D01*
X144703725Y-101157500D01*
X144896276Y-101157500D01*
X144896277Y-101157499D01*
X145085126Y-101119936D01*
X145263020Y-101046250D01*
X145423120Y-100939274D01*
X145559274Y-100803120D01*
X145666250Y-100643020D01*
X145739936Y-100465126D01*
X145777500Y-100276275D01*
X145777500Y-100083725D01*
X145757863Y-99985001D01*
X146352704Y-99985001D01*
X146352899Y-99987486D01*
X146398718Y-100145198D01*
X146482314Y-100286552D01*
X146487100Y-100292722D01*
X146484753Y-100294542D01*
X146511564Y-100343642D01*
X146506580Y-100413334D01*
X146485541Y-100446069D01*
X146487100Y-100447278D01*
X146482314Y-100453447D01*
X146398718Y-100594801D01*
X146352899Y-100752513D01*
X146352704Y-100754998D01*
X146352705Y-100755000D01*
X147575000Y-100755000D01*
X148075000Y-100755000D01*
X149297295Y-100755000D01*
X149297295Y-100754998D01*
X149297100Y-100752513D01*
X149251281Y-100594801D01*
X149167685Y-100453447D01*
X149162900Y-100447278D01*
X149165252Y-100445453D01*
X149138445Y-100396405D01*
X149143402Y-100326712D01*
X149164465Y-100293936D01*
X149162900Y-100292722D01*
X149167685Y-100286552D01*
X149251281Y-100145198D01*
X149297100Y-99987486D01*
X149297295Y-99985001D01*
X149297295Y-99985000D01*
X148075000Y-99985000D01*
X148075000Y-100755000D01*
X147575000Y-100755000D01*
X147575000Y-99985000D01*
X146352705Y-99985000D01*
X146352704Y-99985001D01*
X145757863Y-99985001D01*
X145753854Y-99964846D01*
X145753854Y-99964843D01*
X145739937Y-99894879D01*
X145739936Y-99894878D01*
X145739936Y-99894874D01*
X145693957Y-99783870D01*
X145666253Y-99716986D01*
X145666246Y-99716973D01*
X145559274Y-99556880D01*
X145559271Y-99556876D01*
X145423123Y-99420728D01*
X145423119Y-99420725D01*
X145263026Y-99313753D01*
X145263013Y-99313746D01*
X145085132Y-99240066D01*
X145085128Y-99240064D01*
X145085126Y-99240064D01*
X145085122Y-99240063D01*
X145085118Y-99240062D01*
X144896279Y-99202500D01*
X144896275Y-99202500D01*
X144703725Y-99202500D01*
X144703720Y-99202500D01*
X144514881Y-99240062D01*
X144514867Y-99240066D01*
X144336986Y-99313746D01*
X144336973Y-99313753D01*
X144176880Y-99420725D01*
X144176876Y-99420728D01*
X144040728Y-99556876D01*
X144040725Y-99556880D01*
X143933753Y-99716973D01*
X143933746Y-99716986D01*
X143860066Y-99894867D01*
X143860062Y-99894881D01*
X143822500Y-100083720D01*
X143000500Y-100083720D01*
X143000500Y-98715001D01*
X146352704Y-98715001D01*
X146352899Y-98717486D01*
X146398718Y-98875198D01*
X146482314Y-99016552D01*
X146487100Y-99022722D01*
X146484753Y-99024542D01*
X146511564Y-99073642D01*
X146506580Y-99143334D01*
X146485541Y-99176069D01*
X146487100Y-99177278D01*
X146482314Y-99183447D01*
X146398718Y-99324801D01*
X146352899Y-99482513D01*
X146352704Y-99484998D01*
X146352705Y-99485000D01*
X147575000Y-99485000D01*
X148075000Y-99485000D01*
X149297295Y-99485000D01*
X149297295Y-99484998D01*
X149297100Y-99482513D01*
X149251281Y-99324801D01*
X149167685Y-99183447D01*
X149162900Y-99177278D01*
X149165252Y-99175453D01*
X149138445Y-99126405D01*
X149143402Y-99056712D01*
X149164465Y-99023936D01*
X149162900Y-99022722D01*
X149167685Y-99016552D01*
X149251281Y-98875198D01*
X149297100Y-98717486D01*
X149297295Y-98715001D01*
X149297295Y-98715000D01*
X148075000Y-98715000D01*
X148075000Y-99485000D01*
X147575000Y-99485000D01*
X147575000Y-98715000D01*
X146352705Y-98715000D01*
X146352704Y-98715001D01*
X143000500Y-98715001D01*
X143000500Y-94850000D01*
X143472769Y-94850000D01*
X144366988Y-94850000D01*
X144334075Y-94907007D01*
X144300000Y-95034174D01*
X144300000Y-95165826D01*
X144334075Y-95292993D01*
X144366988Y-95350000D01*
X143472769Y-95350000D01*
X143483242Y-95416126D01*
X143483242Y-95416129D01*
X143548904Y-95618217D01*
X143645379Y-95807557D01*
X143770272Y-95979459D01*
X143770276Y-95979464D01*
X143920535Y-96129723D01*
X143920540Y-96129727D01*
X144092442Y-96254620D01*
X144281782Y-96351095D01*
X144483869Y-96416757D01*
X144483874Y-96416758D01*
X144608219Y-96436452D01*
X144671354Y-96466381D01*
X144708286Y-96525692D01*
X144707288Y-96595555D01*
X144668679Y-96653788D01*
X144613014Y-96680542D01*
X144514880Y-96700062D01*
X144514867Y-96700066D01*
X144336986Y-96773746D01*
X144336973Y-96773753D01*
X144176880Y-96880725D01*
X144176876Y-96880728D01*
X144040728Y-97016876D01*
X144040725Y-97016880D01*
X143933753Y-97176973D01*
X143933746Y-97176986D01*
X143860066Y-97354867D01*
X143860062Y-97354881D01*
X143822500Y-97543720D01*
X143822500Y-97736279D01*
X143860062Y-97925118D01*
X143860066Y-97925132D01*
X143933746Y-98103013D01*
X143933753Y-98103026D01*
X144040725Y-98263119D01*
X144040728Y-98263123D01*
X144176876Y-98399271D01*
X144176880Y-98399274D01*
X144336973Y-98506246D01*
X144336986Y-98506253D01*
X144480092Y-98565529D01*
X144514874Y-98579936D01*
X144703720Y-98617499D01*
X144703724Y-98617500D01*
X144703725Y-98617500D01*
X144896276Y-98617500D01*
X144896277Y-98617499D01*
X145085126Y-98579936D01*
X145263020Y-98506250D01*
X145423120Y-98399274D01*
X145559274Y-98263120D01*
X145666250Y-98103020D01*
X145668537Y-98097500D01*
X145685112Y-98057483D01*
X145739936Y-97925126D01*
X145777500Y-97736275D01*
X145777500Y-97543725D01*
X145757863Y-97445001D01*
X146352704Y-97445001D01*
X146352899Y-97447486D01*
X146398718Y-97605198D01*
X146482314Y-97746552D01*
X146487100Y-97752722D01*
X146484753Y-97754542D01*
X146511564Y-97803642D01*
X146506580Y-97873334D01*
X146485541Y-97906069D01*
X146487100Y-97907278D01*
X146482314Y-97913447D01*
X146398718Y-98054801D01*
X146352899Y-98212513D01*
X146352704Y-98214998D01*
X146352705Y-98215000D01*
X147575000Y-98215000D01*
X148075000Y-98215000D01*
X149297295Y-98215000D01*
X149297295Y-98214998D01*
X151302704Y-98214998D01*
X151302705Y-98215000D01*
X154247295Y-98215000D01*
X154247295Y-98214998D01*
X154247100Y-98212513D01*
X154201281Y-98054801D01*
X154117685Y-97913447D01*
X154117678Y-97913438D01*
X154001561Y-97797321D01*
X154001552Y-97797314D01*
X153853483Y-97709747D01*
X153854503Y-97708021D01*
X153808891Y-97670062D01*
X153787874Y-97603429D01*
X153806218Y-97536010D01*
X153824162Y-97513282D01*
X153832903Y-97504542D01*
X153874808Y-97409634D01*
X153877500Y-97386432D01*
X153877500Y-97003568D01*
X153874808Y-96980366D01*
X153871109Y-96971989D01*
X153832904Y-96885461D01*
X153832903Y-96885458D01*
X153759542Y-96812097D01*
X153759539Y-96812095D01*
X153759538Y-96812095D01*
X153664635Y-96770192D01*
X153641433Y-96767500D01*
X153641432Y-96767500D01*
X153151500Y-96767500D01*
X153084461Y-96747815D01*
X153038706Y-96695011D01*
X153027500Y-96643500D01*
X153027500Y-96326499D01*
X153047185Y-96259460D01*
X153099989Y-96213705D01*
X153151500Y-96202499D01*
X153183452Y-96202499D01*
X153251972Y-96192517D01*
X153357662Y-96140848D01*
X153384469Y-96114040D01*
X153445790Y-96080556D01*
X153515482Y-96085540D01*
X153571416Y-96127410D01*
X153584459Y-96152380D01*
X153585403Y-96151941D01*
X153588457Y-96158492D01*
X153677424Y-96302728D01*
X153677427Y-96302732D01*
X153797267Y-96422572D01*
X153797271Y-96422575D01*
X153941507Y-96511542D01*
X153941518Y-96511547D01*
X154102393Y-96564855D01*
X154201683Y-96574999D01*
X154225000Y-96574998D01*
X154225000Y-94624999D01*
X154201693Y-94625000D01*
X154201674Y-94625001D01*
X154102392Y-94635144D01*
X153941518Y-94688452D01*
X153941507Y-94688457D01*
X153797271Y-94777424D01*
X153797267Y-94777427D01*
X153677427Y-94897267D01*
X153677424Y-94897271D01*
X153588457Y-95041507D01*
X153585403Y-95048059D01*
X153583134Y-95047001D01*
X153550056Y-95094748D01*
X153485533Y-95121553D01*
X153416761Y-95109218D01*
X153407346Y-95103996D01*
X153394840Y-95096330D01*
X153357662Y-95059152D01*
X153251972Y-95007483D01*
X153249252Y-95007086D01*
X153236696Y-94999390D01*
X153217062Y-94977682D01*
X153195457Y-94957943D01*
X153193780Y-94951941D01*
X153189828Y-94947572D01*
X153185853Y-94923571D01*
X153177500Y-94893671D01*
X153177500Y-94830951D01*
X153197185Y-94763912D01*
X153213819Y-94743270D01*
X154108185Y-93848904D01*
X155014059Y-92943030D01*
X155052500Y-92850225D01*
X155052500Y-92834915D01*
X155072185Y-92767876D01*
X155114502Y-92727527D01*
X155118238Y-92725369D01*
X155123893Y-92722105D01*
X155222105Y-92623893D01*
X155291552Y-92503607D01*
X155327500Y-92369447D01*
X155327500Y-92230553D01*
X155291552Y-92096393D01*
X155240807Y-92008500D01*
X155222107Y-91976110D01*
X155222103Y-91976105D01*
X155123894Y-91877896D01*
X155123889Y-91877892D01*
X155003609Y-91808449D01*
X155003608Y-91808448D01*
X155003607Y-91808448D01*
X154869447Y-91772500D01*
X154730553Y-91772500D01*
X154596393Y-91808448D01*
X154596390Y-91808449D01*
X154476110Y-91877892D01*
X154476105Y-91877896D01*
X154377896Y-91976105D01*
X154377892Y-91976110D01*
X154308449Y-92096390D01*
X154308448Y-92096393D01*
X154272500Y-92230553D01*
X154272500Y-92369447D01*
X154306090Y-92494804D01*
X154308448Y-92503606D01*
X154308449Y-92503609D01*
X154377892Y-92623889D01*
X154377896Y-92623894D01*
X154410775Y-92656774D01*
X154444260Y-92718097D01*
X154439274Y-92787789D01*
X154410774Y-92832135D01*
X152781970Y-94460941D01*
X152710942Y-94531968D01*
X152710941Y-94531969D01*
X152672500Y-94624773D01*
X152672500Y-94893671D01*
X152652815Y-94960710D01*
X152602961Y-95005071D01*
X152492336Y-95059152D01*
X152409152Y-95142336D01*
X152357483Y-95248025D01*
X152357483Y-95248028D01*
X152347500Y-95316547D01*
X152347500Y-95316551D01*
X152347500Y-95316552D01*
X152347500Y-95883451D01*
X152352957Y-95920905D01*
X152357483Y-95951972D01*
X152357484Y-95951974D01*
X152409152Y-96057663D01*
X152486181Y-96134692D01*
X152519666Y-96196015D01*
X152522500Y-96222373D01*
X152522500Y-96643500D01*
X152502815Y-96710539D01*
X152450011Y-96756294D01*
X152398500Y-96767500D01*
X151908566Y-96767500D01*
X151885365Y-96770192D01*
X151885363Y-96770192D01*
X151790461Y-96812095D01*
X151790456Y-96812098D01*
X151717098Y-96885456D01*
X151717095Y-96885461D01*
X151675192Y-96980363D01*
X151675192Y-96980365D01*
X151672500Y-97003566D01*
X151672500Y-97386433D01*
X151675192Y-97409634D01*
X151675192Y-97409636D01*
X151717095Y-97504538D01*
X151717098Y-97504543D01*
X151725831Y-97513276D01*
X151759316Y-97574599D01*
X151754332Y-97644291D01*
X151712460Y-97700224D01*
X151696395Y-97709541D01*
X151696517Y-97709747D01*
X151548447Y-97797314D01*
X151548438Y-97797321D01*
X151432321Y-97913438D01*
X151432314Y-97913447D01*
X151348718Y-98054801D01*
X151302899Y-98212513D01*
X151302704Y-98214998D01*
X149297295Y-98214998D01*
X149297100Y-98212513D01*
X149251281Y-98054801D01*
X149167685Y-97913447D01*
X149162900Y-97907278D01*
X149165252Y-97905453D01*
X149138445Y-97856405D01*
X149143402Y-97786712D01*
X149164465Y-97753936D01*
X149162900Y-97752722D01*
X149167685Y-97746552D01*
X149251281Y-97605198D01*
X149297100Y-97447486D01*
X149297295Y-97445001D01*
X149297295Y-97445000D01*
X148075000Y-97445000D01*
X148075000Y-98215000D01*
X147575000Y-98215000D01*
X147575000Y-97445000D01*
X146352705Y-97445000D01*
X146352704Y-97445001D01*
X145757863Y-97445001D01*
X145753854Y-97424846D01*
X145753854Y-97424843D01*
X145739937Y-97354879D01*
X145739936Y-97354878D01*
X145739936Y-97354874D01*
X145718390Y-97302858D01*
X145666253Y-97176986D01*
X145666246Y-97176973D01*
X145614080Y-97098903D01*
X145559274Y-97016880D01*
X145532337Y-96989943D01*
X145527876Y-96984307D01*
X145517371Y-96958307D01*
X145510104Y-96944998D01*
X146352704Y-96944998D01*
X146352705Y-96945000D01*
X147575000Y-96945000D01*
X148075000Y-96945000D01*
X149297295Y-96945000D01*
X149297295Y-96944998D01*
X149297100Y-96942513D01*
X149251281Y-96784801D01*
X149167685Y-96643447D01*
X149167678Y-96643438D01*
X149051561Y-96527321D01*
X149051552Y-96527314D01*
X148910196Y-96443717D01*
X148910193Y-96443716D01*
X148752495Y-96397900D01*
X148752489Y-96397899D01*
X148715649Y-96395000D01*
X148075000Y-96395000D01*
X148075000Y-96945000D01*
X147575000Y-96945000D01*
X147575000Y-96395000D01*
X146934350Y-96395000D01*
X146897510Y-96397899D01*
X146897504Y-96397900D01*
X146739806Y-96443716D01*
X146739803Y-96443717D01*
X146598447Y-96527314D01*
X146598438Y-96527321D01*
X146482321Y-96643438D01*
X146482314Y-96643447D01*
X146398718Y-96784801D01*
X146352899Y-96942513D01*
X146352704Y-96944998D01*
X145510104Y-96944998D01*
X145503937Y-96933704D01*
X145504462Y-96926356D01*
X145501702Y-96919524D01*
X145506921Y-96891976D01*
X145508921Y-96864012D01*
X145513598Y-96856734D01*
X145514708Y-96850876D01*
X145522962Y-96842163D01*
X145537420Y-96819668D01*
X146414059Y-95943030D01*
X146452500Y-95850225D01*
X146452500Y-95749775D01*
X146452500Y-93000001D01*
X149897498Y-93000001D01*
X149898938Y-93015077D01*
X149899500Y-93026867D01*
X149899500Y-93086615D01*
X149914684Y-93182482D01*
X149914684Y-93182483D01*
X149915286Y-93186288D01*
X149917422Y-93208650D01*
X149920474Y-93219046D01*
X149921723Y-93226929D01*
X149921725Y-93226937D01*
X149926597Y-93257699D01*
X149939775Y-93298255D01*
X149980127Y-93422445D01*
X150058768Y-93576788D01*
X150068498Y-93590180D01*
X150071898Y-93594860D01*
X150072516Y-93596058D01*
X150075831Y-93600273D01*
X150160586Y-93716928D01*
X150160588Y-93716930D01*
X150193285Y-93749627D01*
X150202082Y-93760813D01*
X150219978Y-93776320D01*
X150283075Y-93839417D01*
X150338946Y-93880009D01*
X150343246Y-93883133D01*
X150360486Y-93898072D01*
X150376658Y-93907408D01*
X150423212Y-93941232D01*
X150525610Y-93993405D01*
X150542004Y-94002871D01*
X150548807Y-94005225D01*
X150577555Y-94019873D01*
X150742299Y-94073402D01*
X150913389Y-94100500D01*
X150913390Y-94100500D01*
X150942304Y-94100500D01*
X150947541Y-94101253D01*
X150963349Y-94100500D01*
X151086607Y-94100500D01*
X151086611Y-94100500D01*
X151139632Y-94092102D01*
X151156902Y-94091280D01*
X151179609Y-94085770D01*
X151257701Y-94073402D01*
X151337579Y-94047447D01*
X151360593Y-94041865D01*
X151374968Y-94035299D01*
X151422445Y-94019873D01*
X151540837Y-93959549D01*
X151551251Y-93954795D01*
X151553967Y-93952859D01*
X151576788Y-93941232D01*
X151716928Y-93839414D01*
X151839414Y-93716928D01*
X151860383Y-93688065D01*
X151866625Y-93681522D01*
X151878013Y-93663801D01*
X151941232Y-93576788D01*
X151969167Y-93521961D01*
X151979943Y-93505196D01*
X151988130Y-93484743D01*
X152019873Y-93422445D01*
X152049179Y-93332250D01*
X152057843Y-93310611D01*
X152060222Y-93298263D01*
X152073402Y-93257701D01*
X152100500Y-93086611D01*
X152100500Y-92913389D01*
X152073402Y-92742299D01*
X152060223Y-92701739D01*
X152057843Y-92689389D01*
X152049179Y-92667749D01*
X152019873Y-92577555D01*
X151988130Y-92515256D01*
X151979943Y-92494804D01*
X151969163Y-92478030D01*
X151941232Y-92423212D01*
X151878010Y-92336195D01*
X151866625Y-92318478D01*
X151860377Y-92311925D01*
X151855514Y-92305232D01*
X151839414Y-92283072D01*
X151716928Y-92160586D01*
X151651948Y-92113375D01*
X151576792Y-92058770D01*
X151576784Y-92058766D01*
X151562141Y-92051305D01*
X151553970Y-92047141D01*
X151551251Y-92045205D01*
X151540836Y-92040448D01*
X151538468Y-92039242D01*
X151538450Y-92039234D01*
X151422449Y-91980128D01*
X151381718Y-91966894D01*
X151381718Y-91966893D01*
X151374968Y-91964699D01*
X151360593Y-91958135D01*
X151337580Y-91952552D01*
X151333074Y-91951088D01*
X151257706Y-91926599D01*
X151257698Y-91926597D01*
X151184583Y-91915015D01*
X151184583Y-91915016D01*
X151179604Y-91914227D01*
X151156902Y-91908720D01*
X151139630Y-91907897D01*
X151132916Y-91906834D01*
X151132914Y-91906833D01*
X151132912Y-91906833D01*
X151086615Y-91899500D01*
X151086611Y-91899500D01*
X150963349Y-91899500D01*
X150947541Y-91898747D01*
X150942304Y-91899500D01*
X150913389Y-91899500D01*
X150885678Y-91903889D01*
X150742301Y-91926597D01*
X150577561Y-91980124D01*
X150577545Y-91980131D01*
X150556438Y-91990883D01*
X150556439Y-91990884D01*
X150548797Y-91994777D01*
X150542004Y-91997129D01*
X150525626Y-92006584D01*
X150522721Y-92008065D01*
X150522719Y-92008065D01*
X150423214Y-92058766D01*
X150381913Y-92088772D01*
X150381912Y-92088771D01*
X150376638Y-92092602D01*
X150360486Y-92101928D01*
X150343268Y-92116847D01*
X150338951Y-92119984D01*
X150338945Y-92119990D01*
X150283071Y-92160586D01*
X150223103Y-92220553D01*
X150223102Y-92220552D01*
X150219949Y-92223704D01*
X150202082Y-92239187D01*
X150193297Y-92250357D01*
X150188070Y-92255585D01*
X150160591Y-92283066D01*
X150160585Y-92283073D01*
X150077212Y-92397821D01*
X150077213Y-92397822D01*
X150075808Y-92399754D01*
X150072516Y-92403942D01*
X150071902Y-92405132D01*
X150068507Y-92409806D01*
X150068504Y-92409808D01*
X150058771Y-92423205D01*
X149980128Y-92577552D01*
X149926597Y-92742301D01*
X149921725Y-92773063D01*
X149921725Y-92773065D01*
X149920476Y-92780948D01*
X149917422Y-92791350D01*
X149915288Y-92813697D01*
X149914685Y-92817504D01*
X149914684Y-92817516D01*
X149899500Y-92913389D01*
X149899500Y-92973123D01*
X149898939Y-92984908D01*
X149897498Y-93000001D01*
X146452500Y-93000001D01*
X146452500Y-92455951D01*
X146472185Y-92388912D01*
X146488819Y-92368270D01*
X147568270Y-91288819D01*
X147629593Y-91255334D01*
X147655951Y-91252500D01*
X156585404Y-91252500D01*
X156652443Y-91272185D01*
X156698198Y-91324989D01*
X156708142Y-91394147D01*
X156705179Y-91408593D01*
X156693026Y-91453949D01*
X156672500Y-91530553D01*
X156672500Y-91669447D01*
X156706751Y-91797271D01*
X156708448Y-91803606D01*
X156708449Y-91803609D01*
X156777892Y-91923889D01*
X156777896Y-91923894D01*
X156809581Y-91955579D01*
X156843066Y-92016902D01*
X156845900Y-92043260D01*
X156845900Y-94333819D01*
X156826215Y-94400858D01*
X156773411Y-94446613D01*
X156704253Y-94456557D01*
X156653010Y-94436922D01*
X156635236Y-94425046D01*
X156613766Y-94410700D01*
X156613765Y-94410699D01*
X156613764Y-94410699D01*
X156613761Y-94410698D01*
X156547409Y-94397500D01*
X156547406Y-94397500D01*
X156302594Y-94397500D01*
X156302591Y-94397500D01*
X156236238Y-94410698D01*
X156236235Y-94410699D01*
X156168890Y-94455698D01*
X156102213Y-94476575D01*
X156034833Y-94458090D01*
X156031110Y-94455698D01*
X156006590Y-94439314D01*
X155963766Y-94410700D01*
X155963765Y-94410699D01*
X155963764Y-94410699D01*
X155963761Y-94410698D01*
X155897409Y-94397500D01*
X155897406Y-94397500D01*
X155652594Y-94397500D01*
X155652591Y-94397500D01*
X155586238Y-94410698D01*
X155586234Y-94410700D01*
X155510982Y-94460982D01*
X155460700Y-94536234D01*
X155460698Y-94536238D01*
X155447500Y-94602589D01*
X155447500Y-94772833D01*
X155427815Y-94839872D01*
X155375011Y-94885627D01*
X155305853Y-94895571D01*
X155242297Y-94866546D01*
X155235819Y-94860514D01*
X155152732Y-94777427D01*
X155152728Y-94777424D01*
X155008492Y-94688457D01*
X155008481Y-94688452D01*
X154847606Y-94635144D01*
X154748322Y-94625000D01*
X154725000Y-94625000D01*
X154725000Y-96574999D01*
X154748308Y-96574999D01*
X154748322Y-96574998D01*
X154847607Y-96564855D01*
X155008481Y-96511547D01*
X155008492Y-96511542D01*
X155152728Y-96422575D01*
X155152732Y-96422572D01*
X155272571Y-96302733D01*
X155292961Y-96269677D01*
X155344909Y-96222953D01*
X155413872Y-96211730D01*
X155477954Y-96239574D01*
X155516810Y-96297643D01*
X155522500Y-96334774D01*
X155522500Y-97269049D01*
X155502815Y-97336088D01*
X155486181Y-97356730D01*
X154560942Y-98281968D01*
X154560941Y-98281969D01*
X154522500Y-98374773D01*
X154522500Y-98809127D01*
X154502815Y-98876166D01*
X154450905Y-98921509D01*
X154394346Y-98947883D01*
X154325268Y-98958375D01*
X154261484Y-98929855D01*
X154223245Y-98871379D01*
X154222690Y-98801511D01*
X154222865Y-98800905D01*
X154247099Y-98717491D01*
X154247100Y-98717488D01*
X154247295Y-98715001D01*
X154247295Y-98715000D01*
X151302705Y-98715000D01*
X151302704Y-98715001D01*
X151302899Y-98717486D01*
X151348718Y-98875198D01*
X151432314Y-99016552D01*
X151432321Y-99016561D01*
X151548438Y-99132678D01*
X151548447Y-99132685D01*
X151696517Y-99220253D01*
X151695495Y-99221980D01*
X151741101Y-99259926D01*
X151762125Y-99326558D01*
X151743788Y-99393978D01*
X151725834Y-99416721D01*
X151717097Y-99425458D01*
X151717095Y-99425461D01*
X151675192Y-99520363D01*
X151675192Y-99520365D01*
X151672500Y-99543566D01*
X151672500Y-99926433D01*
X151675192Y-99949634D01*
X151675192Y-99949636D01*
X151716559Y-100043323D01*
X151717097Y-100044542D01*
X151790458Y-100117903D01*
X151885366Y-100159808D01*
X151908568Y-100162500D01*
X151908569Y-100162500D01*
X153641431Y-100162500D01*
X153641432Y-100162500D01*
X153664634Y-100159808D01*
X153759542Y-100117903D01*
X153803626Y-100073819D01*
X153864949Y-100040334D01*
X153891307Y-100037500D01*
X154335512Y-100037500D01*
X154387915Y-100049117D01*
X154488929Y-100096221D01*
X154536625Y-100102500D01*
X155013374Y-100102499D01*
X155061071Y-100096221D01*
X155165744Y-100047411D01*
X155165745Y-100047410D01*
X155174630Y-100041189D01*
X155176824Y-100044322D01*
X155178655Y-100043323D01*
X155195389Y-100028823D01*
X155208720Y-100026906D01*
X155220542Y-100020451D01*
X155242628Y-100022030D01*
X155264547Y-100018879D01*
X155276798Y-100024474D01*
X155290234Y-100025435D01*
X155307960Y-100038705D01*
X155328103Y-100047904D01*
X155335385Y-100059235D01*
X155346167Y-100067307D01*
X155353904Y-100088052D01*
X155365877Y-100106682D01*
X155369028Y-100128600D01*
X155370584Y-100132771D01*
X155370900Y-100141617D01*
X155370900Y-100353741D01*
X155351215Y-100420780D01*
X155334568Y-100441434D01*
X155332035Y-100443968D01*
X155311555Y-100455144D01*
X155298411Y-100466535D01*
X155287922Y-100468043D01*
X155270705Y-100477440D01*
X155238588Y-100475136D01*
X155229253Y-100476479D01*
X155224027Y-100474092D01*
X155201014Y-100472442D01*
X155173245Y-100457842D01*
X155165744Y-100452589D01*
X155061072Y-100403779D01*
X155061068Y-100403778D01*
X155013377Y-100397500D01*
X154536628Y-100397500D01*
X154488929Y-100403778D01*
X154384255Y-100452589D01*
X154302590Y-100534254D01*
X154257520Y-100630906D01*
X154211347Y-100683345D01*
X154145138Y-100702500D01*
X153891307Y-100702500D01*
X153824268Y-100682815D01*
X153803626Y-100666181D01*
X153759543Y-100622098D01*
X153759542Y-100622097D01*
X153759539Y-100622095D01*
X153759538Y-100622095D01*
X153664635Y-100580192D01*
X153641433Y-100577500D01*
X153641432Y-100577500D01*
X151908568Y-100577500D01*
X151908566Y-100577500D01*
X151885365Y-100580192D01*
X151885363Y-100580192D01*
X151790461Y-100622095D01*
X151790456Y-100622098D01*
X151717098Y-100695456D01*
X151717095Y-100695461D01*
X151675192Y-100790363D01*
X151675192Y-100790365D01*
X151672500Y-100813566D01*
X151672500Y-101196433D01*
X151675192Y-101219634D01*
X151675192Y-101219636D01*
X151717095Y-101314538D01*
X151717097Y-101314542D01*
X151790458Y-101387903D01*
X151885366Y-101429808D01*
X151908568Y-101432500D01*
X151908569Y-101432500D01*
X153641431Y-101432500D01*
X153641432Y-101432500D01*
X153664634Y-101429808D01*
X153759542Y-101387903D01*
X153803626Y-101343819D01*
X153864949Y-101310334D01*
X153891307Y-101307500D01*
X154149802Y-101307500D01*
X154216841Y-101327185D01*
X154262183Y-101379094D01*
X154302589Y-101465744D01*
X154384256Y-101547411D01*
X154488929Y-101596221D01*
X154536625Y-101602500D01*
X155013374Y-101602499D01*
X155061071Y-101596221D01*
X155165744Y-101547411D01*
X155247411Y-101465744D01*
X155296221Y-101361071D01*
X155302500Y-101313375D01*
X155302499Y-101172858D01*
X155322183Y-101105819D01*
X155338813Y-101085182D01*
X155685821Y-100738174D01*
X155747142Y-100704691D01*
X155816834Y-100709675D01*
X155872767Y-100751547D01*
X155897184Y-100817011D01*
X155897500Y-100825857D01*
X155897500Y-101313371D01*
X155903778Y-101361070D01*
X155937087Y-101432500D01*
X155952589Y-101465744D01*
X156034256Y-101547411D01*
X156138929Y-101596221D01*
X156186625Y-101602500D01*
X156663374Y-101602499D01*
X156711071Y-101596221D01*
X156815744Y-101547411D01*
X156897411Y-101465744D01*
X156946221Y-101361071D01*
X156952500Y-101313375D01*
X156952499Y-101027164D01*
X156972183Y-100960127D01*
X157024987Y-100914372D01*
X157094146Y-100904428D01*
X157157701Y-100933453D01*
X157164180Y-100939485D01*
X157197267Y-100972572D01*
X157197271Y-100972575D01*
X157341507Y-101061542D01*
X157341518Y-101061547D01*
X157502393Y-101114855D01*
X157601683Y-101124999D01*
X158150000Y-101124999D01*
X158198308Y-101124999D01*
X158198322Y-101124998D01*
X158297607Y-101114855D01*
X158458481Y-101061547D01*
X158458492Y-101061542D01*
X158602728Y-100972575D01*
X158602732Y-100972572D01*
X158722572Y-100852732D01*
X158722575Y-100852728D01*
X158811542Y-100708492D01*
X158811547Y-100708481D01*
X158864855Y-100547606D01*
X158874999Y-100448322D01*
X158875000Y-100448309D01*
X158875000Y-100425000D01*
X158150000Y-100425000D01*
X158150000Y-101124999D01*
X157601683Y-101124999D01*
X157649999Y-101124998D01*
X157650000Y-101124998D01*
X157650000Y-100299000D01*
X157669685Y-100231961D01*
X157722489Y-100186206D01*
X157774000Y-100175000D01*
X157900000Y-100175000D01*
X157900000Y-100049000D01*
X157919685Y-99981961D01*
X157972489Y-99936206D01*
X158024000Y-99925000D01*
X158874999Y-99925000D01*
X158874999Y-99901692D01*
X158874998Y-99901679D01*
X158869058Y-99843536D01*
X158881827Y-99774843D01*
X158929707Y-99723958D01*
X158997497Y-99707037D01*
X159063673Y-99729452D01*
X159080097Y-99743252D01*
X159637935Y-100301090D01*
X159698910Y-100362065D01*
X159773590Y-100405181D01*
X159856884Y-100427500D01*
X163928500Y-100427500D01*
X163995539Y-100447185D01*
X164041294Y-100499989D01*
X164052500Y-100551500D01*
X164052500Y-100962558D01*
X164059898Y-100999749D01*
X164088077Y-101041922D01*
X164130250Y-101070101D01*
X164130252Y-101070102D01*
X164158205Y-101075662D01*
X164167441Y-101077500D01*
X164167442Y-101077500D01*
X165892559Y-101077500D01*
X165899957Y-101076028D01*
X165929748Y-101070102D01*
X165971922Y-101041922D01*
X166000102Y-100999748D01*
X166007500Y-100962558D01*
X166007500Y-99237442D01*
X166000102Y-99200252D01*
X165994934Y-99192517D01*
X165971922Y-99158077D01*
X165929749Y-99129898D01*
X165892559Y-99122500D01*
X165892558Y-99122500D01*
X164167442Y-99122500D01*
X164167441Y-99122500D01*
X164130250Y-99129898D01*
X164088077Y-99158077D01*
X164059898Y-99200250D01*
X164052500Y-99237441D01*
X164052500Y-99648500D01*
X164032815Y-99715539D01*
X163980011Y-99761294D01*
X163928500Y-99772500D01*
X161109517Y-99772500D01*
X161042478Y-99752815D01*
X160996723Y-99700011D01*
X160986779Y-99630853D01*
X161015804Y-99567297D01*
X161074582Y-99529523D01*
X161096915Y-99525142D01*
X161197607Y-99514855D01*
X161358481Y-99461547D01*
X161358492Y-99461542D01*
X161502728Y-99372575D01*
X161502732Y-99372572D01*
X161622572Y-99252732D01*
X161622575Y-99252728D01*
X161711542Y-99108492D01*
X161711547Y-99108481D01*
X161764855Y-98947606D01*
X161774999Y-98848322D01*
X161775000Y-98848309D01*
X161775000Y-98825000D01*
X160924000Y-98825000D01*
X160856961Y-98805315D01*
X160811206Y-98752511D01*
X160800000Y-98701000D01*
X160800000Y-98449000D01*
X160819685Y-98381961D01*
X160872489Y-98336206D01*
X160924000Y-98325000D01*
X161774999Y-98325000D01*
X161774999Y-98301692D01*
X161774998Y-98301677D01*
X161764855Y-98202392D01*
X161711547Y-98041518D01*
X161711542Y-98041507D01*
X161622575Y-97897271D01*
X161622572Y-97897267D01*
X161502732Y-97777427D01*
X161502728Y-97777424D01*
X161358492Y-97688457D01*
X161351941Y-97685403D01*
X161352999Y-97683132D01*
X161305260Y-97650067D01*
X161278448Y-97585547D01*
X161290774Y-97516773D01*
X161314041Y-97484469D01*
X161340848Y-97457662D01*
X161392517Y-97351972D01*
X161402500Y-97283453D01*
X161402499Y-96766548D01*
X161392517Y-96698028D01*
X161392515Y-96698024D01*
X161391984Y-96694377D01*
X161401798Y-96625200D01*
X161447454Y-96572311D01*
X161514456Y-96552500D01*
X161844049Y-96552500D01*
X161911088Y-96572185D01*
X161931730Y-96588819D01*
X163385941Y-98043030D01*
X163456970Y-98114059D01*
X163549775Y-98152500D01*
X166544049Y-98152500D01*
X166611088Y-98172185D01*
X166631730Y-98188819D01*
X167281181Y-98838270D01*
X167295884Y-98865197D01*
X167312477Y-98891016D01*
X167313368Y-98897216D01*
X167314666Y-98899593D01*
X167317500Y-98925951D01*
X167317500Y-99063695D01*
X167297815Y-99130734D01*
X167245011Y-99176489D01*
X167240953Y-99178256D01*
X167106983Y-99233748D01*
X167106973Y-99233753D01*
X166946880Y-99340725D01*
X166946876Y-99340728D01*
X166810728Y-99476876D01*
X166810725Y-99476880D01*
X166703753Y-99636973D01*
X166703746Y-99636986D01*
X166630066Y-99814867D01*
X166630062Y-99814881D01*
X166592500Y-100003720D01*
X166592500Y-100196279D01*
X166630062Y-100385118D01*
X166630066Y-100385132D01*
X166703746Y-100563013D01*
X166703753Y-100563026D01*
X166810725Y-100723119D01*
X166810728Y-100723123D01*
X166946876Y-100859271D01*
X166946880Y-100859274D01*
X167106973Y-100966246D01*
X167106986Y-100966253D01*
X167254044Y-101027166D01*
X167284874Y-101039936D01*
X167436527Y-101070101D01*
X167473720Y-101077499D01*
X167473724Y-101077500D01*
X167473725Y-101077500D01*
X167666276Y-101077500D01*
X167666277Y-101077499D01*
X167855126Y-101039936D01*
X168033020Y-100966250D01*
X168193120Y-100859274D01*
X168329274Y-100723120D01*
X168436250Y-100563020D01*
X168509936Y-100385126D01*
X168547500Y-100196275D01*
X168547500Y-100003725D01*
X168509936Y-99814874D01*
X168491519Y-99770412D01*
X168436253Y-99636986D01*
X168436246Y-99636973D01*
X168329274Y-99476880D01*
X168329271Y-99476876D01*
X168193123Y-99340728D01*
X168193119Y-99340725D01*
X168033026Y-99233753D01*
X168033016Y-99233748D01*
X167899047Y-99178256D01*
X167844644Y-99134415D01*
X167822579Y-99068121D01*
X167822500Y-99063695D01*
X167822500Y-98719776D01*
X167822499Y-98719773D01*
X167821552Y-98717486D01*
X167784059Y-98626970D01*
X167713030Y-98555941D01*
X167021270Y-97864181D01*
X167010657Y-97844744D01*
X166996157Y-97828011D01*
X166994240Y-97814679D01*
X166987785Y-97802858D01*
X166989364Y-97780771D01*
X166986213Y-97758853D01*
X166991808Y-97746601D01*
X166992769Y-97733166D01*
X167006039Y-97715439D01*
X167015238Y-97695297D01*
X167026569Y-97688014D01*
X167034641Y-97677233D01*
X167055386Y-97669495D01*
X167074016Y-97657523D01*
X167095934Y-97654371D01*
X167100105Y-97652816D01*
X167108951Y-97652500D01*
X167254049Y-97652500D01*
X167321088Y-97672185D01*
X167341730Y-97688819D01*
X169198677Y-99545766D01*
X169232162Y-99607089D01*
X169227178Y-99676781D01*
X169225557Y-99680899D01*
X169170066Y-99814867D01*
X169170062Y-99814881D01*
X169132500Y-100003720D01*
X169132500Y-100196279D01*
X169170062Y-100385118D01*
X169170066Y-100385132D01*
X169243746Y-100563013D01*
X169243753Y-100563026D01*
X169350725Y-100723119D01*
X169350728Y-100723123D01*
X169486876Y-100859271D01*
X169486880Y-100859274D01*
X169646973Y-100966246D01*
X169646986Y-100966253D01*
X169794044Y-101027166D01*
X169824874Y-101039936D01*
X169976527Y-101070101D01*
X170013720Y-101077499D01*
X170013724Y-101077500D01*
X170013725Y-101077500D01*
X170206276Y-101077500D01*
X170206277Y-101077499D01*
X170395126Y-101039936D01*
X170573020Y-100966250D01*
X170733120Y-100859274D01*
X170869274Y-100723120D01*
X170976250Y-100563020D01*
X171049936Y-100385126D01*
X171069457Y-100286983D01*
X171101841Y-100225075D01*
X171162557Y-100190501D01*
X171232326Y-100194240D01*
X171288999Y-100235106D01*
X171313547Y-100291779D01*
X171333242Y-100416127D01*
X171333242Y-100416130D01*
X171398904Y-100618217D01*
X171495379Y-100807557D01*
X171620272Y-100979459D01*
X171620276Y-100979464D01*
X171770535Y-101129723D01*
X171770540Y-101129727D01*
X171942442Y-101254620D01*
X172131782Y-101351095D01*
X172333871Y-101416757D01*
X172400000Y-101427231D01*
X172400000Y-100533012D01*
X172457007Y-100565925D01*
X172584174Y-100600000D01*
X172715826Y-100600000D01*
X172842993Y-100565925D01*
X172900000Y-100533012D01*
X172900000Y-101427230D01*
X172966126Y-101416757D01*
X172966129Y-101416757D01*
X173168217Y-101351095D01*
X173357557Y-101254620D01*
X173529459Y-101129727D01*
X173529464Y-101129723D01*
X173679723Y-100979464D01*
X173679727Y-100979459D01*
X173804620Y-100807557D01*
X173901095Y-100618217D01*
X173966757Y-100416129D01*
X173966757Y-100416126D01*
X173977231Y-100350000D01*
X173083012Y-100350000D01*
X173115925Y-100292993D01*
X173150000Y-100165826D01*
X173150000Y-100034174D01*
X173115925Y-99907007D01*
X173083012Y-99850000D01*
X173977231Y-99850000D01*
X173966757Y-99783873D01*
X173966757Y-99783870D01*
X173901095Y-99581782D01*
X173804620Y-99392442D01*
X173679727Y-99220540D01*
X173679723Y-99220535D01*
X173529464Y-99070276D01*
X173529459Y-99070272D01*
X173357557Y-98945379D01*
X173168215Y-98848903D01*
X172966124Y-98783241D01*
X172900000Y-98772768D01*
X172900000Y-99666988D01*
X172842993Y-99634075D01*
X172715826Y-99600000D01*
X172584174Y-99600000D01*
X172457007Y-99634075D01*
X172400000Y-99666988D01*
X172400000Y-98772768D01*
X172399999Y-98772768D01*
X172333875Y-98783241D01*
X172131784Y-98848903D01*
X171942442Y-98945379D01*
X171770540Y-99070272D01*
X171770535Y-99070276D01*
X171620276Y-99220535D01*
X171620272Y-99220540D01*
X171495379Y-99392442D01*
X171398904Y-99581782D01*
X171333242Y-99783869D01*
X171333242Y-99783872D01*
X171313547Y-99908220D01*
X171283618Y-99971355D01*
X171224306Y-100008286D01*
X171154443Y-100007288D01*
X171096211Y-99968678D01*
X171069457Y-99913013D01*
X171049937Y-99814881D01*
X171049936Y-99814874D01*
X171031519Y-99770412D01*
X170976253Y-99636986D01*
X170976246Y-99636973D01*
X170869274Y-99476880D01*
X170869271Y-99476876D01*
X170733123Y-99340728D01*
X170733119Y-99340725D01*
X170573026Y-99233753D01*
X170573013Y-99233746D01*
X170395132Y-99160066D01*
X170395128Y-99160064D01*
X170395126Y-99160064D01*
X170395122Y-99160063D01*
X170395118Y-99160062D01*
X170206279Y-99122500D01*
X170206275Y-99122500D01*
X170013725Y-99122500D01*
X170013720Y-99122500D01*
X169824881Y-99160062D01*
X169824867Y-99160066D01*
X169690899Y-99215557D01*
X169621430Y-99223026D01*
X169558951Y-99191750D01*
X169555766Y-99188677D01*
X168875655Y-98508566D01*
X184435000Y-98508566D01*
X184435000Y-98891433D01*
X184437692Y-98914634D01*
X184437692Y-98914636D01*
X184479595Y-99009538D01*
X184479597Y-99009542D01*
X184552958Y-99082903D01*
X184647866Y-99124808D01*
X184671068Y-99127500D01*
X184671069Y-99127500D01*
X185928931Y-99127500D01*
X185928932Y-99127500D01*
X185952134Y-99124808D01*
X186047042Y-99082903D01*
X186066126Y-99063819D01*
X186127449Y-99030334D01*
X186153807Y-99027500D01*
X188798500Y-99027500D01*
X188865539Y-99047185D01*
X188911294Y-99099989D01*
X188922500Y-99151500D01*
X188922500Y-100162558D01*
X188929898Y-100199749D01*
X188958077Y-100241922D01*
X189000250Y-100270101D01*
X189000252Y-100270102D01*
X189028205Y-100275662D01*
X189037441Y-100277500D01*
X189037442Y-100277500D01*
X190762559Y-100277500D01*
X190769957Y-100276028D01*
X190799748Y-100270102D01*
X190841922Y-100241922D01*
X190870102Y-100199748D01*
X190877500Y-100162558D01*
X190877500Y-98437442D01*
X190870102Y-98400252D01*
X190869447Y-98399271D01*
X190841922Y-98358077D01*
X190799749Y-98329898D01*
X190762559Y-98322500D01*
X190762558Y-98322500D01*
X189037442Y-98322500D01*
X189037441Y-98322500D01*
X189024874Y-98325000D01*
X189000252Y-98329898D01*
X188967769Y-98351602D01*
X188901093Y-98372480D01*
X188898879Y-98372500D01*
X186153807Y-98372500D01*
X186086768Y-98352815D01*
X186066126Y-98336181D01*
X186047043Y-98317098D01*
X186047042Y-98317097D01*
X186047039Y-98317095D01*
X186047038Y-98317095D01*
X185952135Y-98275192D01*
X185928933Y-98272500D01*
X185928932Y-98272500D01*
X184671068Y-98272500D01*
X184671066Y-98272500D01*
X184647865Y-98275192D01*
X184647863Y-98275192D01*
X184552961Y-98317095D01*
X184552956Y-98317098D01*
X184479598Y-98390456D01*
X184479595Y-98390461D01*
X184437692Y-98485363D01*
X184437692Y-98485365D01*
X184435000Y-98508566D01*
X168875655Y-98508566D01*
X167925655Y-97558566D01*
X182560000Y-97558566D01*
X182560000Y-97941433D01*
X182562692Y-97964634D01*
X182562692Y-97964636D01*
X182602602Y-98055024D01*
X182604597Y-98059542D01*
X182677958Y-98132903D01*
X182772866Y-98174808D01*
X182796068Y-98177500D01*
X182796069Y-98177500D01*
X184053931Y-98177500D01*
X184053932Y-98177500D01*
X184077134Y-98174808D01*
X184172042Y-98132903D01*
X184245403Y-98059542D01*
X184287308Y-97964634D01*
X184290000Y-97941432D01*
X184290000Y-97558568D01*
X184287308Y-97535366D01*
X184273696Y-97504538D01*
X184260754Y-97475225D01*
X184245403Y-97440458D01*
X184172042Y-97367097D01*
X184172039Y-97367095D01*
X184172038Y-97367095D01*
X184077135Y-97325192D01*
X184053933Y-97322500D01*
X184053932Y-97322500D01*
X183801500Y-97322500D01*
X183734461Y-97302815D01*
X183688706Y-97250011D01*
X183677500Y-97198500D01*
X183677500Y-96890871D01*
X183697185Y-96823832D01*
X183749092Y-96778491D01*
X183815744Y-96747411D01*
X183897411Y-96665744D01*
X183946221Y-96561071D01*
X183952500Y-96513375D01*
X183952499Y-95886626D01*
X183946221Y-95838929D01*
X183897411Y-95734256D01*
X183815744Y-95652589D01*
X183759882Y-95626540D01*
X183711072Y-95603779D01*
X183711068Y-95603778D01*
X183663377Y-95597500D01*
X183186628Y-95597500D01*
X183138929Y-95603778D01*
X183034255Y-95652589D01*
X182952590Y-95734254D01*
X182903779Y-95838927D01*
X182903778Y-95838931D01*
X182897500Y-95886623D01*
X182897500Y-96513371D01*
X182903778Y-96561070D01*
X182942192Y-96643447D01*
X182952589Y-96665744D01*
X183034256Y-96747411D01*
X183100901Y-96778488D01*
X183100905Y-96778490D01*
X183153344Y-96824663D01*
X183172500Y-96890872D01*
X183172500Y-97198500D01*
X183152815Y-97265539D01*
X183100011Y-97311294D01*
X183048500Y-97322500D01*
X182796066Y-97322500D01*
X182772865Y-97325192D01*
X182772863Y-97325192D01*
X182677961Y-97367095D01*
X182677956Y-97367098D01*
X182604598Y-97440456D01*
X182604595Y-97440461D01*
X182562692Y-97535363D01*
X182562692Y-97535365D01*
X182560000Y-97558566D01*
X167925655Y-97558566D01*
X167731270Y-97364181D01*
X167697785Y-97302858D01*
X167702769Y-97233166D01*
X167744641Y-97177233D01*
X167810105Y-97152816D01*
X167818951Y-97152500D01*
X170550223Y-97152500D01*
X170550225Y-97152500D01*
X170643030Y-97114059D01*
X171514059Y-96243030D01*
X171552500Y-96150225D01*
X171552500Y-96147273D01*
X180499500Y-96147273D01*
X180499500Y-96252727D01*
X180526793Y-96354587D01*
X180579520Y-96445913D01*
X180654087Y-96520480D01*
X180745413Y-96573207D01*
X180847273Y-96600500D01*
X180847275Y-96600500D01*
X180952725Y-96600500D01*
X180952727Y-96600500D01*
X181054587Y-96573207D01*
X181098795Y-96547683D01*
X181166692Y-96531211D01*
X181232719Y-96554063D01*
X181273175Y-96602666D01*
X181292192Y-96643447D01*
X181302589Y-96665744D01*
X181384256Y-96747411D01*
X181488929Y-96796221D01*
X181536625Y-96802500D01*
X182013374Y-96802499D01*
X182061071Y-96796221D01*
X182165744Y-96747411D01*
X182247411Y-96665744D01*
X182296221Y-96561071D01*
X182302500Y-96513375D01*
X182302499Y-95886626D01*
X182296221Y-95838929D01*
X182247411Y-95734256D01*
X182165744Y-95652589D01*
X182109882Y-95626540D01*
X182061072Y-95603779D01*
X182061068Y-95603778D01*
X182013377Y-95597500D01*
X181536628Y-95597500D01*
X181488929Y-95603778D01*
X181384255Y-95652589D01*
X181302590Y-95734254D01*
X181273175Y-95797334D01*
X181227002Y-95849773D01*
X181159808Y-95868924D01*
X181098793Y-95852315D01*
X181054589Y-95826794D01*
X181054588Y-95826793D01*
X181054587Y-95826793D01*
X180952727Y-95799500D01*
X180847273Y-95799500D01*
X180745413Y-95826793D01*
X180745410Y-95826794D01*
X180654085Y-95879521D01*
X180579521Y-95954085D01*
X180526794Y-96045410D01*
X180526793Y-96045413D01*
X180499500Y-96147273D01*
X171552500Y-96147273D01*
X171552500Y-96049775D01*
X171552500Y-94114172D01*
X184647500Y-94114172D01*
X184647500Y-94810820D01*
X184647501Y-94810826D01*
X184658191Y-94884204D01*
X184694240Y-94957943D01*
X184713525Y-94997392D01*
X184802607Y-95086474D01*
X184802608Y-95086474D01*
X184802610Y-95086476D01*
X184915796Y-95141809D01*
X184989173Y-95152500D01*
X187210826Y-95152499D01*
X187284204Y-95141809D01*
X187397390Y-95086476D01*
X187436865Y-95047001D01*
X187476548Y-95007319D01*
X187537871Y-94973834D01*
X187564229Y-94971000D01*
X188004443Y-94971000D01*
X188004445Y-94971000D01*
X188133774Y-94936347D01*
X188249727Y-94869401D01*
X189605309Y-93513819D01*
X189666632Y-93480334D01*
X189692990Y-93477500D01*
X190762559Y-93477500D01*
X190769957Y-93476028D01*
X190799748Y-93470102D01*
X190841922Y-93441922D01*
X190870102Y-93399748D01*
X190877500Y-93362558D01*
X190877500Y-91637442D01*
X190870102Y-91600252D01*
X190862219Y-91588454D01*
X190841922Y-91558077D01*
X190799749Y-91529898D01*
X190762559Y-91522500D01*
X190762558Y-91522500D01*
X189037442Y-91522500D01*
X189037441Y-91522500D01*
X189000250Y-91529898D01*
X188958077Y-91558077D01*
X188929898Y-91600250D01*
X188922500Y-91637441D01*
X188922500Y-92707010D01*
X188902815Y-92774049D01*
X188886181Y-92794691D01*
X187763191Y-93917681D01*
X187736263Y-93932384D01*
X187710445Y-93948977D01*
X187704244Y-93949868D01*
X187701868Y-93951166D01*
X187675510Y-93954000D01*
X187564229Y-93954000D01*
X187497190Y-93934315D01*
X187476548Y-93917681D01*
X187397392Y-93838525D01*
X187284202Y-93783190D01*
X187210827Y-93772500D01*
X184989174Y-93772500D01*
X184915795Y-93783191D01*
X184802607Y-93838525D01*
X184713525Y-93927607D01*
X184658190Y-94040797D01*
X184647500Y-94114172D01*
X171552500Y-94114172D01*
X171552500Y-93055950D01*
X171561144Y-93026509D01*
X171566912Y-93000000D01*
X175897498Y-93000000D01*
X175899139Y-93017193D01*
X175899269Y-93019307D01*
X175899500Y-93026867D01*
X175899500Y-93086615D01*
X175914684Y-93182482D01*
X175914684Y-93182483D01*
X175915286Y-93186288D01*
X175917422Y-93208650D01*
X175920474Y-93219046D01*
X175921723Y-93226929D01*
X175921725Y-93226937D01*
X175926597Y-93257699D01*
X175939775Y-93298255D01*
X175980127Y-93422445D01*
X176058768Y-93576788D01*
X176068498Y-93590180D01*
X176071898Y-93594860D01*
X176072516Y-93596058D01*
X176075831Y-93600273D01*
X176160586Y-93716928D01*
X176160588Y-93716930D01*
X176193285Y-93749627D01*
X176202082Y-93760813D01*
X176219978Y-93776320D01*
X176283075Y-93839417D01*
X176338946Y-93880009D01*
X176343246Y-93883133D01*
X176360486Y-93898072D01*
X176376658Y-93907408D01*
X176423212Y-93941232D01*
X176525610Y-93993405D01*
X176542004Y-94002871D01*
X176548807Y-94005225D01*
X176577555Y-94019873D01*
X176742299Y-94073402D01*
X176913389Y-94100500D01*
X176913390Y-94100500D01*
X176942304Y-94100500D01*
X176947541Y-94101253D01*
X176963349Y-94100500D01*
X177086607Y-94100500D01*
X177086611Y-94100500D01*
X177139632Y-94092102D01*
X177156902Y-94091280D01*
X177179609Y-94085770D01*
X177257701Y-94073402D01*
X177337579Y-94047447D01*
X177360593Y-94041865D01*
X177374968Y-94035299D01*
X177422445Y-94019873D01*
X177538493Y-93960743D01*
X177543213Y-93958465D01*
X177551251Y-93954795D01*
X177551256Y-93954791D01*
X177556375Y-93951836D01*
X177556539Y-93952121D01*
X177562145Y-93948692D01*
X177576788Y-93941232D01*
X177716928Y-93839414D01*
X177839414Y-93716928D01*
X177860383Y-93688065D01*
X177866625Y-93681522D01*
X177878013Y-93663801D01*
X177941232Y-93576788D01*
X177969167Y-93521961D01*
X177979943Y-93505196D01*
X177988130Y-93484743D01*
X178019873Y-93422445D01*
X178049179Y-93332250D01*
X178057843Y-93310611D01*
X178060222Y-93298263D01*
X178073402Y-93257701D01*
X178100500Y-93086611D01*
X178100500Y-92913389D01*
X178073402Y-92742299D01*
X178060223Y-92701739D01*
X178057843Y-92689389D01*
X178049179Y-92667749D01*
X178019873Y-92577555D01*
X177988130Y-92515256D01*
X177979943Y-92494804D01*
X177969163Y-92478030D01*
X177941232Y-92423212D01*
X177878010Y-92336195D01*
X177866625Y-92318478D01*
X177860377Y-92311925D01*
X177855514Y-92305232D01*
X177839414Y-92283072D01*
X177716928Y-92160586D01*
X177651948Y-92113375D01*
X177576792Y-92058770D01*
X177576784Y-92058766D01*
X177562141Y-92051305D01*
X177553970Y-92047141D01*
X177551251Y-92045205D01*
X177540836Y-92040448D01*
X177538468Y-92039242D01*
X177538450Y-92039234D01*
X177422449Y-91980128D01*
X177381718Y-91966894D01*
X177381718Y-91966893D01*
X177374968Y-91964699D01*
X177360593Y-91958135D01*
X177337580Y-91952552D01*
X177333074Y-91951088D01*
X177257706Y-91926599D01*
X177257698Y-91926597D01*
X177184583Y-91915015D01*
X177184583Y-91915016D01*
X177179604Y-91914227D01*
X177156902Y-91908720D01*
X177139630Y-91907897D01*
X177132916Y-91906834D01*
X177132914Y-91906833D01*
X177132912Y-91906833D01*
X177086615Y-91899500D01*
X177086611Y-91899500D01*
X176963349Y-91899500D01*
X176947541Y-91898747D01*
X176942304Y-91899500D01*
X176913389Y-91899500D01*
X176885678Y-91903889D01*
X176742301Y-91926597D01*
X176577561Y-91980124D01*
X176577545Y-91980131D01*
X176556438Y-91990883D01*
X176556439Y-91990884D01*
X176548797Y-91994777D01*
X176542004Y-91997129D01*
X176525626Y-92006584D01*
X176522721Y-92008065D01*
X176522719Y-92008065D01*
X176423214Y-92058766D01*
X176381913Y-92088772D01*
X176381912Y-92088771D01*
X176376638Y-92092602D01*
X176360486Y-92101928D01*
X176343268Y-92116847D01*
X176338951Y-92119984D01*
X176338945Y-92119990D01*
X176283071Y-92160586D01*
X176223103Y-92220553D01*
X176223102Y-92220552D01*
X176219949Y-92223704D01*
X176202082Y-92239187D01*
X176193297Y-92250357D01*
X176188070Y-92255585D01*
X176160591Y-92283066D01*
X176160585Y-92283073D01*
X176077212Y-92397821D01*
X176077213Y-92397822D01*
X176075808Y-92399754D01*
X176072516Y-92403942D01*
X176071902Y-92405132D01*
X176068507Y-92409806D01*
X176068504Y-92409808D01*
X176058771Y-92423205D01*
X175980128Y-92577552D01*
X175926597Y-92742301D01*
X175921725Y-92773063D01*
X175921725Y-92773065D01*
X175920476Y-92780948D01*
X175917422Y-92791350D01*
X175915288Y-92813697D01*
X175914685Y-92817504D01*
X175914684Y-92817516D01*
X175899500Y-92913389D01*
X175899500Y-92973123D01*
X175898939Y-92984908D01*
X175897858Y-92996222D01*
X175897858Y-92996226D01*
X175897498Y-93000000D01*
X171566912Y-93000000D01*
X171567668Y-92996523D01*
X171571422Y-92991507D01*
X171572185Y-92988911D01*
X171588815Y-92968273D01*
X172118270Y-92438817D01*
X172179593Y-92405333D01*
X172205951Y-92402499D01*
X172413371Y-92402499D01*
X172413374Y-92402499D01*
X172461071Y-92396221D01*
X172565744Y-92347411D01*
X172647411Y-92265744D01*
X172696221Y-92161071D01*
X172702500Y-92113375D01*
X172702499Y-91486626D01*
X172702499Y-91486623D01*
X173297500Y-91486623D01*
X173297500Y-92113371D01*
X173303778Y-92161070D01*
X173345247Y-92250000D01*
X173352589Y-92265744D01*
X173434256Y-92347411D01*
X173538929Y-92396221D01*
X173586625Y-92402500D01*
X174063374Y-92402499D01*
X174111071Y-92396221D01*
X174215744Y-92347411D01*
X174297411Y-92265744D01*
X174346221Y-92161071D01*
X174352500Y-92113375D01*
X174352500Y-92053100D01*
X174372185Y-91986061D01*
X174424989Y-91940306D01*
X174476500Y-91929100D01*
X175195570Y-91929100D01*
X175195571Y-91929100D01*
X175224664Y-91917049D01*
X175279775Y-91894222D01*
X176308578Y-90865419D01*
X176369901Y-90831934D01*
X176396259Y-90829100D01*
X178048500Y-90829100D01*
X178115539Y-90848785D01*
X178161294Y-90901589D01*
X178172500Y-90953100D01*
X178172500Y-91003933D01*
X178175192Y-91027134D01*
X178175192Y-91027136D01*
X178217095Y-91122038D01*
X178217097Y-91122042D01*
X178290458Y-91195403D01*
X178385366Y-91237308D01*
X178408568Y-91240000D01*
X178408569Y-91240000D01*
X178791431Y-91240000D01*
X178791432Y-91240000D01*
X178814634Y-91237308D01*
X178909542Y-91195403D01*
X178982903Y-91122042D01*
X179024360Y-91028149D01*
X179700000Y-91028149D01*
X179702899Y-91064989D01*
X179702900Y-91064995D01*
X179748716Y-91222693D01*
X179748717Y-91222696D01*
X179832314Y-91364052D01*
X179832321Y-91364061D01*
X179948438Y-91480178D01*
X179948447Y-91480185D01*
X180089801Y-91563781D01*
X180247514Y-91609600D01*
X180247511Y-91609600D01*
X180249998Y-91609795D01*
X180250000Y-91609795D01*
X180750000Y-91609795D01*
X180750001Y-91609795D01*
X180752486Y-91609600D01*
X180910198Y-91563781D01*
X181051552Y-91480185D01*
X181051561Y-91480178D01*
X181167678Y-91364061D01*
X181167685Y-91364052D01*
X181251282Y-91222696D01*
X181251283Y-91222693D01*
X181297099Y-91064995D01*
X181297100Y-91064989D01*
X181299999Y-91028149D01*
X181300000Y-91028134D01*
X181300000Y-90625000D01*
X180750000Y-90625000D01*
X180750000Y-91609795D01*
X180250000Y-91609795D01*
X180250000Y-90625000D01*
X179700000Y-90625000D01*
X179700000Y-91028149D01*
X179024360Y-91028149D01*
X179024808Y-91027134D01*
X179027500Y-91003932D01*
X179027500Y-89746068D01*
X179024808Y-89722866D01*
X179024359Y-89721850D01*
X178993330Y-89651574D01*
X178982903Y-89627958D01*
X178909542Y-89554597D01*
X178909539Y-89554595D01*
X178909538Y-89554595D01*
X178814635Y-89512692D01*
X178791433Y-89510000D01*
X178791432Y-89510000D01*
X178408568Y-89510000D01*
X178408566Y-89510000D01*
X178385365Y-89512692D01*
X178385363Y-89512692D01*
X178290461Y-89554595D01*
X178290456Y-89554598D01*
X178217098Y-89627956D01*
X178217095Y-89627961D01*
X178175192Y-89722863D01*
X178175192Y-89722865D01*
X178172500Y-89746066D01*
X178172500Y-90246900D01*
X178152815Y-90313939D01*
X178100011Y-90359694D01*
X178048500Y-90370900D01*
X176204426Y-90370900D01*
X176202384Y-90371746D01*
X176202378Y-90371749D01*
X176193336Y-90375495D01*
X176120225Y-90405778D01*
X176077831Y-90448171D01*
X176065352Y-90455829D01*
X176045192Y-90461294D01*
X176026858Y-90471306D01*
X176012148Y-90470253D01*
X175997917Y-90474112D01*
X175978001Y-90467810D01*
X175957166Y-90466320D01*
X175941529Y-90456271D01*
X175931302Y-90453035D01*
X175928781Y-90450000D01*
X175275000Y-90450000D01*
X175275000Y-91199640D01*
X175255315Y-91266679D01*
X175238682Y-91287321D01*
X175091420Y-91434582D01*
X175030100Y-91468066D01*
X175003741Y-91470900D01*
X174440126Y-91470900D01*
X174373087Y-91451215D01*
X174327744Y-91399305D01*
X174298698Y-91337017D01*
X174297411Y-91334256D01*
X174215744Y-91252589D01*
X174159882Y-91226540D01*
X174111072Y-91203779D01*
X174111068Y-91203778D01*
X174063377Y-91197500D01*
X173586628Y-91197500D01*
X173538929Y-91203778D01*
X173434255Y-91252589D01*
X173352590Y-91334254D01*
X173303779Y-91438927D01*
X173303778Y-91438931D01*
X173297500Y-91486623D01*
X172702499Y-91486623D01*
X172696221Y-91438929D01*
X172647411Y-91334256D01*
X172565744Y-91252589D01*
X172509882Y-91226540D01*
X172461072Y-91203779D01*
X172461068Y-91203778D01*
X172413377Y-91197500D01*
X171936628Y-91197500D01*
X171888929Y-91203778D01*
X171784255Y-91252589D01*
X171702590Y-91334254D01*
X171653779Y-91438927D01*
X171653778Y-91438931D01*
X171647500Y-91486623D01*
X171647500Y-92113376D01*
X171649063Y-92125248D01*
X171638292Y-92194283D01*
X171613804Y-92229105D01*
X171156970Y-92685941D01*
X171085942Y-92756968D01*
X171085941Y-92756969D01*
X171047500Y-92849773D01*
X171047500Y-95944049D01*
X171027815Y-96011088D01*
X171011181Y-96031730D01*
X170431730Y-96611181D01*
X170370407Y-96644666D01*
X170344049Y-96647500D01*
X164855951Y-96647500D01*
X164788912Y-96627815D01*
X164768270Y-96611181D01*
X161993030Y-93835941D01*
X161900226Y-93797500D01*
X161900225Y-93797500D01*
X160550225Y-93797500D01*
X160449775Y-93797500D01*
X160449773Y-93797500D01*
X160356970Y-93835941D01*
X160226270Y-93966641D01*
X160164947Y-94000125D01*
X160095255Y-93995141D01*
X160039322Y-93953269D01*
X160031202Y-93940960D01*
X160029192Y-93937478D01*
X159995480Y-93879087D01*
X159920913Y-93804520D01*
X159829587Y-93751793D01*
X159727727Y-93724500D01*
X159622273Y-93724500D01*
X159520413Y-93751793D01*
X159520412Y-93751793D01*
X159427057Y-93805691D01*
X159359156Y-93822162D01*
X159293130Y-93799310D01*
X159277377Y-93785984D01*
X159270914Y-93779521D01*
X159270913Y-93779520D01*
X159191408Y-93733618D01*
X159179589Y-93726794D01*
X159179588Y-93726793D01*
X159179587Y-93726793D01*
X159077727Y-93699500D01*
X158972273Y-93699500D01*
X158870413Y-93726793D01*
X158870410Y-93726794D01*
X158779085Y-93779521D01*
X158704522Y-93854084D01*
X158651791Y-93945415D01*
X158649698Y-93950470D01*
X158616897Y-93996244D01*
X158575000Y-94032987D01*
X158575000Y-96492010D01*
X158585943Y-96490570D01*
X158654978Y-96501336D01*
X158707234Y-96547716D01*
X158726119Y-96614985D01*
X158714511Y-96665913D01*
X158703779Y-96688926D01*
X158703778Y-96688931D01*
X158697500Y-96736622D01*
X158697500Y-97213371D01*
X158703778Y-97261070D01*
X158747523Y-97354881D01*
X158752589Y-97365744D01*
X158834256Y-97447411D01*
X158938929Y-97496221D01*
X158986625Y-97502500D01*
X159613374Y-97502499D01*
X159661071Y-97496221D01*
X159765744Y-97447411D01*
X159847411Y-97365744D01*
X159878490Y-97299094D01*
X159889952Y-97286076D01*
X159897159Y-97270297D01*
X159912564Y-97260396D01*
X159924663Y-97246656D01*
X159941546Y-97241771D01*
X159955937Y-97232523D01*
X159990872Y-97227500D01*
X160082105Y-97227500D01*
X160149144Y-97247185D01*
X160194899Y-97299989D01*
X160204809Y-97333621D01*
X160207482Y-97351969D01*
X160207484Y-97351974D01*
X160259152Y-97457663D01*
X160285958Y-97484469D01*
X160319443Y-97545792D01*
X160314459Y-97615484D01*
X160272587Y-97671417D01*
X160247619Y-97684460D01*
X160248059Y-97685403D01*
X160241507Y-97688457D01*
X160097271Y-97777424D01*
X160097267Y-97777427D01*
X159977427Y-97897267D01*
X159977424Y-97897271D01*
X159888457Y-98041507D01*
X159888452Y-98041517D01*
X159883977Y-98055024D01*
X159844202Y-98112467D01*
X159779686Y-98139288D01*
X159713867Y-98128398D01*
X159661075Y-98103780D01*
X159661068Y-98103778D01*
X159613376Y-98097500D01*
X158986628Y-98097500D01*
X158938929Y-98103778D01*
X158834255Y-98152589D01*
X158752588Y-98234256D01*
X158746366Y-98243143D01*
X158743886Y-98241406D01*
X158737814Y-98254703D01*
X158722400Y-98264608D01*
X158710288Y-98278359D01*
X158693408Y-98283240D01*
X158679036Y-98292477D01*
X158644101Y-98297500D01*
X158569664Y-98297500D01*
X158502625Y-98277815D01*
X158458264Y-98227961D01*
X158440848Y-98192338D01*
X158440848Y-98192337D01*
X158357663Y-98109152D01*
X158251974Y-98057483D01*
X158232395Y-98054630D01*
X158183453Y-98047500D01*
X158183448Y-98047500D01*
X158176500Y-98047500D01*
X158109461Y-98027815D01*
X158063706Y-97975011D01*
X158052500Y-97923500D01*
X158052500Y-96617278D01*
X158072185Y-96550239D01*
X158124989Y-96504484D01*
X158168152Y-96498015D01*
X158175000Y-96492010D01*
X158175000Y-94032987D01*
X158118368Y-94040444D01*
X157972413Y-94100899D01*
X157847075Y-94197075D01*
X157750897Y-94322415D01*
X157746838Y-94329448D01*
X157745351Y-94328589D01*
X157707664Y-94375356D01*
X157671352Y-94392631D01*
X157654494Y-94397500D01*
X157602594Y-94397500D01*
X157536234Y-94410700D01*
X157480992Y-94447611D01*
X157462508Y-94452950D01*
X157446032Y-94452876D01*
X157430312Y-94457799D01*
X157411817Y-94452725D01*
X157392639Y-94452640D01*
X157378820Y-94443672D01*
X157362932Y-94439314D01*
X157350116Y-94425046D01*
X157334028Y-94414606D01*
X157327249Y-94399588D01*
X157316243Y-94387334D01*
X157310706Y-94362933D01*
X157305285Y-94350922D01*
X157306350Y-94343737D01*
X157304100Y-94333819D01*
X157304100Y-92213363D01*
X157323785Y-92146324D01*
X157376589Y-92100569D01*
X157396012Y-92093587D01*
X157399688Y-92092602D01*
X157403607Y-92091552D01*
X157523893Y-92022105D01*
X157622105Y-91923893D01*
X157691552Y-91803607D01*
X157727500Y-91669447D01*
X157727500Y-91530553D01*
X157719289Y-91499909D01*
X157720952Y-91430064D01*
X157760114Y-91372201D01*
X157824342Y-91344696D01*
X157893244Y-91356282D01*
X157906381Y-91363814D01*
X157906968Y-91364057D01*
X157906970Y-91364059D01*
X157999775Y-91402500D01*
X158100225Y-91402500D01*
X162194049Y-91402500D01*
X162261088Y-91422185D01*
X162281730Y-91438819D01*
X164828520Y-93985609D01*
X164862005Y-94046932D01*
X164857021Y-94116624D01*
X164841157Y-94146176D01*
X164780250Y-94230006D01*
X164703072Y-94381474D01*
X164703071Y-94381477D01*
X164650542Y-94543148D01*
X164623949Y-94711047D01*
X164623949Y-94881054D01*
X164650542Y-95048953D01*
X164703071Y-95210624D01*
X164703072Y-95210627D01*
X164774087Y-95350000D01*
X164780250Y-95362095D01*
X164880171Y-95499624D01*
X165000376Y-95619829D01*
X165137905Y-95719750D01*
X165166371Y-95734254D01*
X165289372Y-95796927D01*
X165289375Y-95796928D01*
X165370210Y-95823192D01*
X165451048Y-95849458D01*
X165528810Y-95861774D01*
X165618946Y-95876051D01*
X165618951Y-95876051D01*
X165788952Y-95876051D01*
X165870347Y-95863158D01*
X165956850Y-95849458D01*
X166118525Y-95796927D01*
X166269993Y-95719750D01*
X166407522Y-95619829D01*
X166527727Y-95499624D01*
X166627648Y-95362095D01*
X166704825Y-95210627D01*
X166757356Y-95048952D01*
X166775191Y-94936346D01*
X166783949Y-94881054D01*
X166783949Y-94711047D01*
X166764780Y-94590025D01*
X166757356Y-94543150D01*
X166728157Y-94453285D01*
X166704826Y-94381477D01*
X166704825Y-94381474D01*
X166627647Y-94230006D01*
X166527727Y-94092478D01*
X166407522Y-93972273D01*
X166269993Y-93872352D01*
X166234146Y-93854087D01*
X166118525Y-93795174D01*
X166118522Y-93795173D01*
X165956851Y-93742644D01*
X165788952Y-93716051D01*
X165788947Y-93716051D01*
X165618951Y-93716051D01*
X165618946Y-93716051D01*
X165451047Y-93742644D01*
X165409106Y-93756271D01*
X165339265Y-93758265D01*
X165283109Y-93726020D01*
X164355411Y-92798322D01*
X166950001Y-92798322D01*
X166960144Y-92897607D01*
X167013452Y-93058481D01*
X167013457Y-93058492D01*
X167102424Y-93202728D01*
X167102427Y-93202732D01*
X167222267Y-93322572D01*
X167222271Y-93322575D01*
X167366507Y-93411542D01*
X167366518Y-93411547D01*
X167527393Y-93464855D01*
X167626683Y-93474999D01*
X167650000Y-93474998D01*
X167650000Y-92750000D01*
X166950001Y-92750000D01*
X166950001Y-92798322D01*
X164355411Y-92798322D01*
X162511038Y-90953949D01*
X164272940Y-90953949D01*
X165270937Y-90953949D01*
X165238024Y-91010956D01*
X165203949Y-91138123D01*
X165203949Y-91269775D01*
X165238024Y-91396942D01*
X165270937Y-91453949D01*
X164272940Y-91453949D01*
X164287214Y-91544077D01*
X164357866Y-91761519D01*
X164461660Y-91965225D01*
X164596046Y-92150191D01*
X164757706Y-92311851D01*
X164942672Y-92446237D01*
X165146378Y-92550031D01*
X165363820Y-92620683D01*
X165453949Y-92634958D01*
X165453949Y-91636961D01*
X165510956Y-91669874D01*
X165638123Y-91703949D01*
X165769775Y-91703949D01*
X165896942Y-91669874D01*
X165953949Y-91636961D01*
X165953949Y-92634957D01*
X166044077Y-92620683D01*
X166167110Y-92580707D01*
X166261519Y-92550031D01*
X166465225Y-92446237D01*
X166650187Y-92311854D01*
X166743339Y-92218702D01*
X166804662Y-92185217D01*
X166874354Y-92190201D01*
X166918702Y-92218702D01*
X166950000Y-92250000D01*
X167650000Y-92250000D01*
X167650000Y-91525000D01*
X168150000Y-91525000D01*
X168150000Y-93474999D01*
X168173308Y-93474999D01*
X168173322Y-93474998D01*
X168272607Y-93464855D01*
X168433481Y-93411547D01*
X168433492Y-93411542D01*
X168577728Y-93322575D01*
X168577732Y-93322572D01*
X168697572Y-93202732D01*
X168697575Y-93202728D01*
X168786542Y-93058492D01*
X168789597Y-93051941D01*
X168791874Y-93053002D01*
X168824899Y-93005287D01*
X168889410Y-92978452D01*
X168958188Y-92990755D01*
X168974656Y-93000629D01*
X168983157Y-93006667D01*
X169017338Y-93040848D01*
X169062054Y-93062708D01*
X169070307Y-93068570D01*
X169085922Y-93088378D01*
X169104542Y-93105390D01*
X169107401Y-93115624D01*
X169113563Y-93123440D01*
X169115667Y-93145210D01*
X169122500Y-93169663D01*
X169122500Y-93626770D01*
X169102815Y-93693809D01*
X169050011Y-93739564D01*
X169036818Y-93744701D01*
X168881477Y-93795173D01*
X168881474Y-93795174D01*
X168730006Y-93872352D01*
X168681751Y-93907412D01*
X168592478Y-93972273D01*
X168592476Y-93972275D01*
X168592475Y-93972275D01*
X168472275Y-94092475D01*
X168472275Y-94092476D01*
X168472273Y-94092478D01*
X168443077Y-94132663D01*
X168372352Y-94230006D01*
X168295174Y-94381474D01*
X168295173Y-94381477D01*
X168242644Y-94543148D01*
X168216051Y-94711047D01*
X168216051Y-94881054D01*
X168242644Y-95048953D01*
X168295173Y-95210624D01*
X168295174Y-95210627D01*
X168366189Y-95350000D01*
X168372352Y-95362095D01*
X168472273Y-95499624D01*
X168592478Y-95619829D01*
X168730007Y-95719750D01*
X168758473Y-95734254D01*
X168881474Y-95796927D01*
X168881477Y-95796928D01*
X168962312Y-95823192D01*
X169043150Y-95849458D01*
X169120912Y-95861774D01*
X169211048Y-95876051D01*
X169211053Y-95876051D01*
X169381054Y-95876051D01*
X169462449Y-95863158D01*
X169548952Y-95849458D01*
X169710627Y-95796927D01*
X169862095Y-95719750D01*
X169999624Y-95619829D01*
X170119829Y-95499624D01*
X170219750Y-95362095D01*
X170296927Y-95210627D01*
X170349458Y-95048952D01*
X170367293Y-94936346D01*
X170376051Y-94881054D01*
X170376051Y-94711047D01*
X170356882Y-94590025D01*
X170349458Y-94543150D01*
X170320259Y-94453285D01*
X170296928Y-94381477D01*
X170296927Y-94381474D01*
X170219749Y-94230006D01*
X170119829Y-94092478D01*
X169999624Y-93972273D01*
X169862095Y-93872352D01*
X169862094Y-93872351D01*
X169862092Y-93872350D01*
X169845204Y-93863745D01*
X169794409Y-93815770D01*
X169777500Y-93753261D01*
X169777500Y-93169663D01*
X169797185Y-93102624D01*
X169847039Y-93058262D01*
X169882662Y-93040848D01*
X169965848Y-92957662D01*
X169995485Y-92897038D01*
X170042612Y-92845457D01*
X170106885Y-92827500D01*
X170543114Y-92827500D01*
X170543116Y-92827500D01*
X170626410Y-92805181D01*
X170701090Y-92762065D01*
X171062065Y-92401090D01*
X171105181Y-92326410D01*
X171127500Y-92243116D01*
X171127500Y-92156884D01*
X171127500Y-91337017D01*
X171147185Y-91269978D01*
X171163819Y-91249336D01*
X171602335Y-90810820D01*
X172050952Y-90362202D01*
X172112273Y-90328719D01*
X172181964Y-90333703D01*
X172237898Y-90375575D01*
X172246014Y-90387879D01*
X172279520Y-90445913D01*
X172354087Y-90520480D01*
X172445413Y-90573207D01*
X172547273Y-90600500D01*
X172547275Y-90600500D01*
X172652724Y-90600500D01*
X172652727Y-90600500D01*
X172747294Y-90575161D01*
X172817139Y-90576824D01*
X172875001Y-90615986D01*
X172891765Y-90642532D01*
X172902588Y-90665743D01*
X172902589Y-90665744D01*
X172984256Y-90747411D01*
X173088929Y-90796221D01*
X173136625Y-90802500D01*
X173613374Y-90802499D01*
X173661071Y-90796221D01*
X173765744Y-90747411D01*
X173847411Y-90665744D01*
X173895658Y-90562277D01*
X173941830Y-90509839D01*
X174009024Y-90490687D01*
X174075905Y-90510903D01*
X174121240Y-90564068D01*
X174129529Y-90595790D01*
X174130129Y-90595671D01*
X174131409Y-90602107D01*
X174181981Y-90764396D01*
X174269927Y-90909877D01*
X174390122Y-91030072D01*
X174535604Y-91118019D01*
X174535603Y-91118019D01*
X174697894Y-91168590D01*
X174697893Y-91168590D01*
X174768408Y-91174998D01*
X174768426Y-91174999D01*
X174774999Y-91174998D01*
X174775000Y-91174998D01*
X174775000Y-89205264D01*
X174765254Y-89187420D01*
X174770233Y-89117728D01*
X174774036Y-89108646D01*
X174788290Y-89078078D01*
X174796221Y-89061071D01*
X174802500Y-89013375D01*
X174802499Y-88386626D01*
X174796221Y-88338929D01*
X174747411Y-88234256D01*
X174665744Y-88152589D01*
X174599091Y-88121508D01*
X174561072Y-88103779D01*
X174561068Y-88103778D01*
X174513377Y-88097500D01*
X174036628Y-88097500D01*
X173988929Y-88103778D01*
X173884255Y-88152589D01*
X173802590Y-88234254D01*
X173753779Y-88338927D01*
X173753778Y-88338931D01*
X173747500Y-88386623D01*
X173747500Y-89013371D01*
X173753778Y-89061070D01*
X173796243Y-89152136D01*
X173802589Y-89165744D01*
X173884256Y-89247411D01*
X173950905Y-89278490D01*
X173963923Y-89289952D01*
X173979703Y-89297159D01*
X173989603Y-89312564D01*
X174003344Y-89324663D01*
X174008228Y-89341546D01*
X174017477Y-89355937D01*
X174022500Y-89390872D01*
X174022500Y-89569047D01*
X174002815Y-89636086D01*
X173986181Y-89656728D01*
X173965713Y-89677196D01*
X173904390Y-89710681D01*
X173834698Y-89705697D01*
X173790351Y-89677196D01*
X173765745Y-89652590D01*
X173765744Y-89652589D01*
X173709882Y-89626540D01*
X173661072Y-89603779D01*
X173661068Y-89603778D01*
X173613377Y-89597500D01*
X173136628Y-89597500D01*
X173088929Y-89603778D01*
X172984255Y-89652589D01*
X172902590Y-89734254D01*
X172902589Y-89734255D01*
X172902589Y-89734256D01*
X172897081Y-89746069D01*
X172891765Y-89757469D01*
X172845592Y-89809908D01*
X172778398Y-89829059D01*
X172747291Y-89824838D01*
X172652727Y-89799500D01*
X172547273Y-89799500D01*
X172547271Y-89799500D01*
X172458592Y-89823261D01*
X172388742Y-89821598D01*
X172330880Y-89782435D01*
X172303377Y-89718206D01*
X172302500Y-89703486D01*
X172302500Y-89366979D01*
X172319113Y-89304978D01*
X172320544Y-89302500D01*
X172348207Y-89254587D01*
X172375500Y-89152727D01*
X172375500Y-89047273D01*
X172356488Y-88976318D01*
X172358151Y-88906473D01*
X172397313Y-88848610D01*
X172404219Y-88843305D01*
X172407654Y-88840851D01*
X172407662Y-88840848D01*
X172490848Y-88757662D01*
X172542517Y-88651972D01*
X172552500Y-88583453D01*
X172552499Y-88016548D01*
X172542517Y-87948028D01*
X172490848Y-87842338D01*
X172490847Y-87842337D01*
X172490847Y-87842336D01*
X172407662Y-87759151D01*
X172372039Y-87741736D01*
X172360059Y-87730790D01*
X172345297Y-87724049D01*
X172334795Y-87707708D01*
X172320457Y-87694608D01*
X172315904Y-87678312D01*
X172307523Y-87665271D01*
X172302500Y-87630336D01*
X172302500Y-87469663D01*
X172322185Y-87402624D01*
X172372039Y-87358262D01*
X172407662Y-87340848D01*
X172416323Y-87332187D01*
X172454997Y-87293514D01*
X172516320Y-87260029D01*
X172586012Y-87265013D01*
X172630359Y-87293514D01*
X172687935Y-87351090D01*
X172748910Y-87412065D01*
X172823590Y-87455181D01*
X172906884Y-87477500D01*
X172906887Y-87477500D01*
X172913273Y-87479211D01*
X172968860Y-87511305D01*
X172990458Y-87532903D01*
X173085366Y-87574808D01*
X173108568Y-87577500D01*
X173108569Y-87577500D01*
X174216431Y-87577500D01*
X174216432Y-87577500D01*
X174239634Y-87574808D01*
X174334542Y-87532903D01*
X174407903Y-87459542D01*
X174449808Y-87364634D01*
X174452500Y-87341432D01*
X174452500Y-86958568D01*
X174449808Y-86935366D01*
X174444402Y-86923123D01*
X174419923Y-86867682D01*
X174407903Y-86840458D01*
X174334542Y-86767097D01*
X174334539Y-86767095D01*
X174334538Y-86767095D01*
X174239635Y-86725192D01*
X174216433Y-86722500D01*
X174216432Y-86722500D01*
X173108568Y-86722500D01*
X173108566Y-86722500D01*
X173085360Y-86725192D01*
X173078478Y-86727065D01*
X173008622Y-86725668D01*
X172958249Y-86695094D01*
X172701091Y-86437936D01*
X172701090Y-86437935D01*
X172626410Y-86394819D01*
X172626405Y-86394817D01*
X172545011Y-86373007D01*
X172489425Y-86340914D01*
X172407663Y-86259152D01*
X172301974Y-86207483D01*
X172284842Y-86204987D01*
X172233453Y-86197500D01*
X172233447Y-86197500D01*
X171716548Y-86197500D01*
X171672706Y-86203887D01*
X171648028Y-86207483D01*
X171648026Y-86207483D01*
X171648025Y-86207484D01*
X171542338Y-86259151D01*
X171515529Y-86285960D01*
X171454205Y-86319444D01*
X171384514Y-86314458D01*
X171328581Y-86272586D01*
X171321449Y-86261956D01*
X171232708Y-86113679D01*
X171224143Y-86080647D01*
X171215129Y-86047705D01*
X171215379Y-86046850D01*
X171215171Y-86046045D01*
X171219354Y-86033314D01*
X171233570Y-85984902D01*
X171311544Y-85858488D01*
X171314597Y-85851941D01*
X171316874Y-85853002D01*
X171349899Y-85805287D01*
X171414410Y-85778452D01*
X171483188Y-85790755D01*
X171515530Y-85814041D01*
X171542336Y-85840847D01*
X171648025Y-85892516D01*
X171648026Y-85892516D01*
X171648028Y-85892517D01*
X171716547Y-85902500D01*
X172233452Y-85902499D01*
X172301972Y-85892517D01*
X172407662Y-85840848D01*
X172490848Y-85757662D01*
X172520485Y-85697038D01*
X172567612Y-85645457D01*
X172631885Y-85627500D01*
X172952063Y-85627500D01*
X173002148Y-85638065D01*
X173064652Y-85665662D01*
X173085366Y-85674808D01*
X173108568Y-85677500D01*
X173108569Y-85677500D01*
X174216431Y-85677500D01*
X174216432Y-85677500D01*
X174239634Y-85674808D01*
X174334542Y-85632903D01*
X174407903Y-85559542D01*
X174449808Y-85464634D01*
X174452500Y-85441432D01*
X174452500Y-85058568D01*
X174449808Y-85035366D01*
X174447551Y-85030255D01*
X174428855Y-84987912D01*
X174407903Y-84940458D01*
X174334542Y-84867097D01*
X174334539Y-84867095D01*
X174334538Y-84867095D01*
X174239635Y-84825192D01*
X174216433Y-84822500D01*
X174216432Y-84822500D01*
X173108568Y-84822500D01*
X173108566Y-84822500D01*
X173085365Y-84825192D01*
X173085363Y-84825192D01*
X172990461Y-84867095D01*
X172990456Y-84867098D01*
X172921374Y-84936181D01*
X172894446Y-84950884D01*
X172868628Y-84967477D01*
X172862427Y-84968368D01*
X172860051Y-84969666D01*
X172833693Y-84972500D01*
X172631885Y-84972500D01*
X172564846Y-84952815D01*
X172520484Y-84902960D01*
X172490848Y-84842338D01*
X172490846Y-84842336D01*
X172490846Y-84842335D01*
X172407663Y-84759152D01*
X172301974Y-84707483D01*
X172284842Y-84704987D01*
X172233453Y-84697500D01*
X172233447Y-84697500D01*
X171716548Y-84697500D01*
X171672706Y-84703887D01*
X171648028Y-84707483D01*
X171648026Y-84707483D01*
X171648025Y-84707484D01*
X171542338Y-84759151D01*
X171515529Y-84785960D01*
X171454205Y-84819444D01*
X171384514Y-84814458D01*
X171328581Y-84772586D01*
X171315542Y-84747618D01*
X171314597Y-84748059D01*
X171311542Y-84741507D01*
X171222575Y-84597271D01*
X171222572Y-84597267D01*
X171102732Y-84477427D01*
X171102728Y-84477424D01*
X170958492Y-84388457D01*
X170958481Y-84388452D01*
X170797606Y-84335144D01*
X170698322Y-84325000D01*
X170675000Y-84325000D01*
X170675000Y-89274999D01*
X170698308Y-89274999D01*
X170698322Y-89274998D01*
X170797607Y-89264855D01*
X170958481Y-89211547D01*
X170958492Y-89211542D01*
X171102728Y-89122575D01*
X171102732Y-89122572D01*
X171222572Y-89002732D01*
X171222575Y-89002728D01*
X171311542Y-88858492D01*
X171314597Y-88851941D01*
X171316874Y-88853002D01*
X171329815Y-88834304D01*
X171349800Y-88805367D01*
X171349861Y-88805341D01*
X171349899Y-88805287D01*
X171382037Y-88791918D01*
X171414283Y-88778466D01*
X171414348Y-88778477D01*
X171414410Y-88778452D01*
X171449206Y-88784676D01*
X171483074Y-88790699D01*
X171483139Y-88790746D01*
X171483188Y-88790755D01*
X171512116Y-88810754D01*
X171513853Y-88812363D01*
X171542338Y-88840848D01*
X171547133Y-88843192D01*
X171558003Y-88853261D01*
X171572023Y-88876755D01*
X171588909Y-88898280D01*
X171589667Y-88906322D01*
X171593807Y-88913260D01*
X171592899Y-88940605D01*
X171595467Y-88967842D01*
X171593511Y-88976322D01*
X171574500Y-89047273D01*
X171574500Y-89152727D01*
X171601793Y-89254587D01*
X171629455Y-89302499D01*
X171630887Y-89304978D01*
X171647500Y-89366979D01*
X171647500Y-89787983D01*
X171627815Y-89855022D01*
X171611181Y-89875664D01*
X170537936Y-90948908D01*
X170537934Y-90948911D01*
X170494819Y-91023589D01*
X170494819Y-91023590D01*
X170477969Y-91086476D01*
X170472500Y-91106885D01*
X170472500Y-92012983D01*
X170463855Y-92042423D01*
X170457332Y-92072410D01*
X170453577Y-92077425D01*
X170452815Y-92080022D01*
X170436181Y-92100664D01*
X170400664Y-92136181D01*
X170339341Y-92169666D01*
X170312983Y-92172500D01*
X170106885Y-92172500D01*
X170039846Y-92152815D01*
X169995484Y-92102960D01*
X169965848Y-92042338D01*
X169965846Y-92042336D01*
X169965846Y-92042335D01*
X169882663Y-91959152D01*
X169776974Y-91907483D01*
X169759842Y-91904987D01*
X169708453Y-91897500D01*
X169708447Y-91897500D01*
X169191548Y-91897500D01*
X169147706Y-91903887D01*
X169123028Y-91907483D01*
X169123026Y-91907483D01*
X169123025Y-91907484D01*
X169017338Y-91959151D01*
X168990529Y-91985960D01*
X168929205Y-92019444D01*
X168859514Y-92014458D01*
X168803581Y-91972586D01*
X168790542Y-91947618D01*
X168789597Y-91948059D01*
X168786542Y-91941507D01*
X168697575Y-91797271D01*
X168697572Y-91797267D01*
X168577732Y-91677427D01*
X168577728Y-91677424D01*
X168433492Y-91588457D01*
X168433481Y-91588452D01*
X168272606Y-91535144D01*
X168173322Y-91525000D01*
X168150000Y-91525000D01*
X167650000Y-91525000D01*
X167650000Y-91524999D01*
X167626693Y-91525000D01*
X167626674Y-91525001D01*
X167527392Y-91535144D01*
X167366518Y-91588452D01*
X167366513Y-91588454D01*
X167316086Y-91619559D01*
X167248693Y-91637999D01*
X167182030Y-91617076D01*
X167137260Y-91563435D01*
X167128516Y-91494622D01*
X167134958Y-91453949D01*
X166136961Y-91453949D01*
X166169874Y-91396942D01*
X166203949Y-91269775D01*
X166203949Y-91138123D01*
X166169874Y-91010956D01*
X166136961Y-90953949D01*
X167134958Y-90953949D01*
X167120683Y-90863820D01*
X167050031Y-90646378D01*
X166946237Y-90442672D01*
X166811851Y-90257706D01*
X166650191Y-90096046D01*
X166465225Y-89961660D01*
X166261517Y-89857866D01*
X166044073Y-89787214D01*
X165953949Y-89772939D01*
X165953949Y-90770937D01*
X165896942Y-90738024D01*
X165769775Y-90703949D01*
X165638123Y-90703949D01*
X165510956Y-90738024D01*
X165453949Y-90770937D01*
X165453949Y-89772939D01*
X165453948Y-89772939D01*
X165363824Y-89787214D01*
X165146380Y-89857866D01*
X164942672Y-89961660D01*
X164757706Y-90096046D01*
X164596046Y-90257706D01*
X164461660Y-90442672D01*
X164357866Y-90646378D01*
X164287214Y-90863820D01*
X164272940Y-90953949D01*
X162511038Y-90953949D01*
X162493030Y-90935941D01*
X162400226Y-90897500D01*
X162400225Y-90897500D01*
X162358951Y-90897500D01*
X162291912Y-90877815D01*
X162246157Y-90825011D01*
X162236213Y-90755853D01*
X162265238Y-90692297D01*
X162271270Y-90685819D01*
X162383884Y-90573205D01*
X162514059Y-90443030D01*
X162514062Y-90443022D01*
X162519763Y-90434491D01*
X162573374Y-90389684D01*
X162642699Y-90380974D01*
X162705727Y-90411127D01*
X162730255Y-90441378D01*
X162777892Y-90523889D01*
X162777894Y-90523892D01*
X162777895Y-90523893D01*
X162876107Y-90622105D01*
X162876108Y-90622106D01*
X162876110Y-90622107D01*
X162918149Y-90646378D01*
X162996393Y-90691552D01*
X163130553Y-90727500D01*
X163130555Y-90727500D01*
X163269445Y-90727500D01*
X163269447Y-90727500D01*
X163403607Y-90691552D01*
X163523893Y-90622105D01*
X163622105Y-90523893D01*
X163691552Y-90403607D01*
X163727500Y-90269447D01*
X163727500Y-90130553D01*
X163691552Y-89996393D01*
X163651840Y-89927610D01*
X163622107Y-89876110D01*
X163622103Y-89876105D01*
X163523895Y-89777897D01*
X163523893Y-89777895D01*
X163513997Y-89772181D01*
X163491098Y-89758960D01*
X163482815Y-89750273D01*
X163471897Y-89745287D01*
X163459151Y-89725454D01*
X163442883Y-89708392D01*
X163439667Y-89695136D01*
X163434123Y-89686509D01*
X163429100Y-89651574D01*
X163429100Y-89546260D01*
X163448785Y-89479221D01*
X163465419Y-89458579D01*
X164325676Y-88598322D01*
X169475001Y-88598322D01*
X169485144Y-88697607D01*
X169538452Y-88858481D01*
X169538457Y-88858492D01*
X169627424Y-89002728D01*
X169627427Y-89002732D01*
X169747267Y-89122572D01*
X169747271Y-89122575D01*
X169891507Y-89211542D01*
X169891518Y-89211547D01*
X170052393Y-89264855D01*
X170151683Y-89274999D01*
X170175000Y-89274998D01*
X170175000Y-88550000D01*
X169475001Y-88550000D01*
X169475001Y-88598322D01*
X164325676Y-88598322D01*
X164922321Y-88001677D01*
X169475000Y-88001677D01*
X169475000Y-88050000D01*
X170175000Y-88050000D01*
X170175000Y-87050000D01*
X169475001Y-87050000D01*
X169475001Y-87098322D01*
X169485144Y-87197607D01*
X169538452Y-87358481D01*
X169538457Y-87358492D01*
X169616429Y-87484903D01*
X169634870Y-87552295D01*
X169616429Y-87615097D01*
X169538457Y-87741507D01*
X169538452Y-87741518D01*
X169485144Y-87902393D01*
X169475000Y-88001677D01*
X164922321Y-88001677D01*
X166422321Y-86501677D01*
X169475000Y-86501677D01*
X169475000Y-86550000D01*
X170175000Y-86550000D01*
X170175000Y-85550000D01*
X169475001Y-85550000D01*
X169475001Y-85598322D01*
X169485144Y-85697607D01*
X169538452Y-85858481D01*
X169538457Y-85858492D01*
X169616429Y-85984903D01*
X169634870Y-86052295D01*
X169616429Y-86115097D01*
X169538457Y-86241507D01*
X169538452Y-86241518D01*
X169485144Y-86402393D01*
X169475000Y-86501677D01*
X166422321Y-86501677D01*
X167922321Y-85001677D01*
X169475000Y-85001677D01*
X169475000Y-85050000D01*
X170175000Y-85050000D01*
X170175000Y-84324999D01*
X170151693Y-84325000D01*
X170151674Y-84325001D01*
X170052392Y-84335144D01*
X169891518Y-84388452D01*
X169891507Y-84388457D01*
X169747271Y-84477424D01*
X169747267Y-84477427D01*
X169627427Y-84597267D01*
X169627424Y-84597271D01*
X169538457Y-84741507D01*
X169538452Y-84741518D01*
X169485144Y-84902393D01*
X169475000Y-85001677D01*
X167922321Y-85001677D01*
X168013151Y-84910847D01*
X169051783Y-83872215D01*
X170094222Y-82829776D01*
X170129100Y-82745571D01*
X170129100Y-82654431D01*
X170129100Y-81714172D01*
X170422500Y-81714172D01*
X170422500Y-83085825D01*
X170433191Y-83159204D01*
X170488525Y-83272392D01*
X170577607Y-83361474D01*
X170577608Y-83361474D01*
X170577610Y-83361476D01*
X170690796Y-83416809D01*
X170764173Y-83427500D01*
X172835826Y-83427499D01*
X172909204Y-83416809D01*
X173022390Y-83361476D01*
X173111476Y-83272390D01*
X173166809Y-83159204D01*
X173177500Y-83085827D01*
X173177499Y-81714174D01*
X173177499Y-81714172D01*
X174422500Y-81714172D01*
X174422500Y-83085825D01*
X174433191Y-83159204D01*
X174488525Y-83272392D01*
X174577607Y-83361474D01*
X174577608Y-83361474D01*
X174577610Y-83361476D01*
X174690796Y-83416809D01*
X174764173Y-83427500D01*
X175436000Y-83427499D01*
X175503039Y-83447183D01*
X175548794Y-83499987D01*
X175560000Y-83551499D01*
X175560000Y-84698500D01*
X175540315Y-84765539D01*
X175487511Y-84811294D01*
X175436000Y-84822500D01*
X175383566Y-84822500D01*
X175360365Y-84825192D01*
X175360363Y-84825192D01*
X175265461Y-84867095D01*
X175265456Y-84867098D01*
X175192098Y-84940456D01*
X175192095Y-84940461D01*
X175150192Y-85035363D01*
X175150192Y-85035365D01*
X175147500Y-85058566D01*
X175147500Y-85388221D01*
X175127815Y-85455260D01*
X175086622Y-85494952D01*
X175023449Y-85532312D01*
X175023438Y-85532321D01*
X174907321Y-85648438D01*
X174907314Y-85648447D01*
X174823718Y-85789801D01*
X174777899Y-85947513D01*
X174777704Y-85949998D01*
X174777705Y-85950000D01*
X175813500Y-85950000D01*
X175880539Y-85969685D01*
X175926294Y-86022489D01*
X175937500Y-86074000D01*
X175937500Y-86326000D01*
X175917815Y-86393039D01*
X175865011Y-86438794D01*
X175813500Y-86450000D01*
X174777705Y-86450000D01*
X174777704Y-86450001D01*
X174777899Y-86452486D01*
X174823718Y-86610198D01*
X174907314Y-86751552D01*
X174907321Y-86751561D01*
X175023438Y-86867678D01*
X175023444Y-86867682D01*
X175086620Y-86905044D01*
X175134304Y-86956113D01*
X175147500Y-87011777D01*
X175147500Y-87341433D01*
X175150192Y-87364634D01*
X175150192Y-87364636D01*
X175190171Y-87455180D01*
X175192097Y-87459542D01*
X175265458Y-87532903D01*
X175360366Y-87574808D01*
X175383568Y-87577500D01*
X175548500Y-87577500D01*
X175615539Y-87597185D01*
X175661294Y-87649989D01*
X175672500Y-87701500D01*
X175672500Y-88009127D01*
X175652815Y-88076166D01*
X175600906Y-88121508D01*
X175534257Y-88152587D01*
X175452590Y-88234254D01*
X175403779Y-88338927D01*
X175403778Y-88338931D01*
X175397500Y-88386623D01*
X175397500Y-89013371D01*
X175403779Y-89061074D01*
X175405328Y-89066388D01*
X175405189Y-89136257D01*
X175367298Y-89194960D01*
X175303685Y-89223859D01*
X175284385Y-89224781D01*
X175284385Y-89225000D01*
X175275000Y-89225000D01*
X175275000Y-89950000D01*
X175924999Y-89950000D01*
X175924999Y-89868417D01*
X175918591Y-89797897D01*
X175918590Y-89797892D01*
X175868018Y-89635603D01*
X175780390Y-89490649D01*
X175762554Y-89423095D01*
X175784071Y-89356621D01*
X175838111Y-89312333D01*
X175886504Y-89302499D01*
X176163374Y-89302499D01*
X176211071Y-89296221D01*
X176315744Y-89247411D01*
X176397411Y-89165744D01*
X176446221Y-89061071D01*
X176452500Y-89013375D01*
X176452499Y-88386626D01*
X176446221Y-88338929D01*
X176397411Y-88234256D01*
X176315744Y-88152589D01*
X176249094Y-88121509D01*
X176236076Y-88110047D01*
X176220297Y-88102841D01*
X176210396Y-88087435D01*
X176196656Y-88075337D01*
X176191771Y-88058453D01*
X176182523Y-88044063D01*
X176177500Y-88009128D01*
X176177500Y-87871066D01*
X179122500Y-87871066D01*
X179122500Y-89128933D01*
X179125192Y-89152134D01*
X179125192Y-89152136D01*
X179167095Y-89247038D01*
X179167097Y-89247042D01*
X179240458Y-89320403D01*
X179335366Y-89362308D01*
X179358568Y-89365000D01*
X179358569Y-89365000D01*
X179630718Y-89365000D01*
X179697757Y-89384685D01*
X179743512Y-89437489D01*
X179753456Y-89506647D01*
X179749795Y-89523594D01*
X179702899Y-89685010D01*
X179700000Y-89721850D01*
X179700000Y-90125000D01*
X180250000Y-90125000D01*
X180750000Y-90125000D01*
X181300000Y-90125000D01*
X181300000Y-89721865D01*
X181299999Y-89721850D01*
X181297100Y-89685010D01*
X181297099Y-89685004D01*
X181251283Y-89527306D01*
X181251282Y-89527303D01*
X181167685Y-89385947D01*
X181167678Y-89385938D01*
X181051561Y-89269821D01*
X181051552Y-89269814D01*
X180910196Y-89186217D01*
X180910193Y-89186216D01*
X180752494Y-89140400D01*
X180752497Y-89140400D01*
X180750000Y-89140203D01*
X180750000Y-90125000D01*
X180250000Y-90125000D01*
X180250000Y-89140203D01*
X180247503Y-89140400D01*
X180136095Y-89172768D01*
X180066225Y-89172569D01*
X180007555Y-89134627D01*
X179978712Y-89070988D01*
X179977500Y-89053692D01*
X179977500Y-87871069D01*
X179977500Y-87871068D01*
X179974808Y-87847866D01*
X179972366Y-87842336D01*
X179935637Y-87759151D01*
X179932903Y-87752958D01*
X179859542Y-87679597D01*
X179859538Y-87679593D01*
X179856417Y-87677455D01*
X179852051Y-87672106D01*
X179851417Y-87671472D01*
X179851481Y-87671407D01*
X179812237Y-87623326D01*
X179802500Y-87575160D01*
X179802500Y-86030950D01*
X179811145Y-86001506D01*
X179817668Y-85971524D01*
X179821422Y-85966508D01*
X179822185Y-85963911D01*
X179838810Y-85943278D01*
X179954963Y-85827124D01*
X180016282Y-85793642D01*
X180018347Y-85793211D01*
X180112204Y-85774543D01*
X180244600Y-85719702D01*
X180363754Y-85640086D01*
X180465086Y-85538754D01*
X180544702Y-85419600D01*
X180599543Y-85287204D01*
X180627500Y-85146652D01*
X180627500Y-84453348D01*
X180599543Y-84312796D01*
X180564229Y-84227542D01*
X180545423Y-84182139D01*
X180545422Y-84182137D01*
X180544707Y-84180410D01*
X180544698Y-84180393D01*
X180517155Y-84139172D01*
X181172500Y-84139172D01*
X181172500Y-85460825D01*
X181183191Y-85534204D01*
X181238525Y-85647392D01*
X181327607Y-85736474D01*
X181327608Y-85736474D01*
X181327610Y-85736476D01*
X181405474Y-85774541D01*
X181440798Y-85791810D01*
X181449996Y-85794652D01*
X181449334Y-85796791D01*
X181500899Y-85820451D01*
X181507210Y-85826338D01*
X182435821Y-86754949D01*
X182469306Y-86816272D01*
X182464322Y-86885964D01*
X182435822Y-86930311D01*
X182363524Y-87002609D01*
X182308190Y-87115797D01*
X182297500Y-87189172D01*
X182297500Y-87885820D01*
X182299930Y-87902500D01*
X182308191Y-87959204D01*
X182362704Y-88070713D01*
X182363525Y-88072392D01*
X182452607Y-88161474D01*
X182452608Y-88161474D01*
X182452610Y-88161476D01*
X182565796Y-88216809D01*
X182639173Y-88227500D01*
X183960826Y-88227499D01*
X184034204Y-88216809D01*
X184147390Y-88161476D01*
X184236476Y-88072390D01*
X184291809Y-87959204D01*
X184302500Y-87885827D01*
X184302499Y-87189174D01*
X184291809Y-87115796D01*
X184236476Y-87002610D01*
X184236474Y-87002608D01*
X184236474Y-87002607D01*
X184147392Y-86913525D01*
X184034202Y-86858190D01*
X183960828Y-86847500D01*
X183960827Y-86847500D01*
X183907519Y-86847500D01*
X183840480Y-86827815D01*
X183794725Y-86775011D01*
X183787744Y-86755593D01*
X183773847Y-86703726D01*
X183756448Y-86673590D01*
X183710919Y-86594732D01*
X183706903Y-86587776D01*
X183706898Y-86587770D01*
X182663818Y-85544690D01*
X182630333Y-85483367D01*
X182627499Y-85457018D01*
X182627499Y-84139174D01*
X182616809Y-84065796D01*
X182561476Y-83952610D01*
X182561474Y-83952608D01*
X182561474Y-83952607D01*
X182472392Y-83863525D01*
X182359202Y-83808190D01*
X182285827Y-83797500D01*
X181514179Y-83797500D01*
X181440796Y-83808191D01*
X181327607Y-83863525D01*
X181238525Y-83952607D01*
X181183190Y-84065797D01*
X181172500Y-84139172D01*
X180517155Y-84139172D01*
X180465086Y-84061246D01*
X180465083Y-84061242D01*
X180363757Y-83959916D01*
X180363753Y-83959913D01*
X180244606Y-83880301D01*
X180244596Y-83880296D01*
X180112204Y-83825457D01*
X180112196Y-83825455D01*
X179971656Y-83797500D01*
X179971652Y-83797500D01*
X179828348Y-83797500D01*
X179828343Y-83797500D01*
X179687803Y-83825455D01*
X179687795Y-83825457D01*
X179555403Y-83880296D01*
X179555393Y-83880301D01*
X179436246Y-83959913D01*
X179436242Y-83959916D01*
X179334916Y-84061242D01*
X179334913Y-84061246D01*
X179255301Y-84180393D01*
X179255296Y-84180403D01*
X179200457Y-84312795D01*
X179200455Y-84312803D01*
X179172500Y-84453343D01*
X179172500Y-85146656D01*
X179200455Y-85287196D01*
X179200457Y-85287204D01*
X179255296Y-85419596D01*
X179255301Y-85419606D01*
X179334913Y-85538753D01*
X179334915Y-85538756D01*
X179344351Y-85548191D01*
X179377838Y-85609512D01*
X179372856Y-85679204D01*
X179344357Y-85723554D01*
X179335941Y-85731970D01*
X179297500Y-85824773D01*
X179297500Y-87575160D01*
X179277815Y-87642199D01*
X179243583Y-87677455D01*
X179240461Y-87679593D01*
X179167098Y-87752956D01*
X179167095Y-87752961D01*
X179125192Y-87847863D01*
X179125192Y-87847865D01*
X179122500Y-87871066D01*
X176177500Y-87871066D01*
X176177500Y-87701500D01*
X176197185Y-87634461D01*
X176249989Y-87588706D01*
X176301500Y-87577500D01*
X176491431Y-87577500D01*
X176491432Y-87577500D01*
X176514634Y-87574808D01*
X176609542Y-87532903D01*
X176628626Y-87513819D01*
X176689949Y-87480334D01*
X176716307Y-87477500D01*
X177193114Y-87477500D01*
X177193116Y-87477500D01*
X177276410Y-87455181D01*
X177351090Y-87412065D01*
X177762065Y-87001090D01*
X177805181Y-86926410D01*
X177827500Y-86843116D01*
X177827500Y-86756884D01*
X177827500Y-85456884D01*
X177805181Y-85373590D01*
X177762065Y-85298910D01*
X177701090Y-85237935D01*
X177451090Y-84987935D01*
X177376410Y-84944819D01*
X177376411Y-84944819D01*
X177344173Y-84936181D01*
X177293116Y-84922500D01*
X177293114Y-84922500D01*
X176716307Y-84922500D01*
X176649268Y-84902815D01*
X176628626Y-84886181D01*
X176609543Y-84867098D01*
X176609542Y-84867097D01*
X176609539Y-84867095D01*
X176609538Y-84867095D01*
X176514635Y-84825192D01*
X176491433Y-84822500D01*
X176491432Y-84822500D01*
X176439000Y-84822500D01*
X176371961Y-84802815D01*
X176326206Y-84750011D01*
X176315000Y-84698500D01*
X176315000Y-83551499D01*
X176334685Y-83484460D01*
X176387489Y-83438705D01*
X176439000Y-83427499D01*
X176835826Y-83427499D01*
X176909204Y-83416809D01*
X177022390Y-83361476D01*
X177111476Y-83272390D01*
X177166809Y-83159204D01*
X177177500Y-83085827D01*
X177177500Y-83032500D01*
X177197185Y-82965461D01*
X177249989Y-82919706D01*
X177301500Y-82908500D01*
X184438010Y-82908500D01*
X184505049Y-82928185D01*
X184525691Y-82944819D01*
X186736557Y-85155685D01*
X186770042Y-85217008D01*
X186765058Y-85286700D01*
X186736558Y-85331046D01*
X186690729Y-85376875D01*
X186690725Y-85376880D01*
X186583753Y-85536973D01*
X186583746Y-85536986D01*
X186510066Y-85714867D01*
X186510062Y-85714881D01*
X186472500Y-85903720D01*
X186472500Y-86396279D01*
X186510062Y-86585118D01*
X186510066Y-86585132D01*
X186583746Y-86763013D01*
X186583753Y-86763026D01*
X186690725Y-86923119D01*
X186690728Y-86923123D01*
X186826874Y-87059269D01*
X186828068Y-87060249D01*
X186828525Y-87060920D01*
X186831187Y-87063582D01*
X186830682Y-87064086D01*
X186867404Y-87117994D01*
X186869275Y-87187839D01*
X186837086Y-87243785D01*
X185693101Y-88387770D01*
X185693099Y-88387773D01*
X185653148Y-88456970D01*
X185626153Y-88503724D01*
X185591500Y-88633055D01*
X185591500Y-90723500D01*
X185571815Y-90790539D01*
X185519011Y-90836294D01*
X185467500Y-90847500D01*
X184989179Y-90847500D01*
X184915796Y-90858191D01*
X184802607Y-90913525D01*
X184760954Y-90955180D01*
X184734025Y-90969884D01*
X184708207Y-90986477D01*
X184702007Y-90987368D01*
X184699631Y-90988666D01*
X184673272Y-90991500D01*
X184599489Y-90991500D01*
X184532450Y-90971815D01*
X184511808Y-90955181D01*
X184338818Y-90782191D01*
X184305333Y-90720868D01*
X184302499Y-90694510D01*
X184302499Y-90114174D01*
X184299858Y-90096046D01*
X184291809Y-90040796D01*
X184236476Y-89927610D01*
X184236474Y-89927608D01*
X184236474Y-89927607D01*
X184147392Y-89838525D01*
X184034202Y-89783190D01*
X183960827Y-89772500D01*
X182639174Y-89772500D01*
X182565795Y-89783191D01*
X182452607Y-89838525D01*
X182363525Y-89927607D01*
X182308190Y-90040797D01*
X182297500Y-90114172D01*
X182297500Y-90810820D01*
X182299976Y-90827815D01*
X182308191Y-90884204D01*
X182346185Y-90961922D01*
X182363525Y-90997392D01*
X182452607Y-91086474D01*
X182452608Y-91086474D01*
X182452610Y-91086476D01*
X182565796Y-91141809D01*
X182639173Y-91152500D01*
X183219509Y-91152499D01*
X183286548Y-91172183D01*
X183307190Y-91188818D01*
X183629329Y-91510956D01*
X183930599Y-91812226D01*
X184025274Y-91906901D01*
X184141226Y-91973847D01*
X184270555Y-92008500D01*
X184404446Y-92008500D01*
X184604885Y-92008500D01*
X184671924Y-92028185D01*
X184705271Y-92065658D01*
X184707554Y-92064029D01*
X184713524Y-92072391D01*
X184802607Y-92161474D01*
X184802608Y-92161474D01*
X184802610Y-92161476D01*
X184915796Y-92216809D01*
X184989173Y-92227500D01*
X187210826Y-92227499D01*
X187284204Y-92216809D01*
X187397390Y-92161476D01*
X187486476Y-92072390D01*
X187541809Y-91959204D01*
X187552500Y-91885827D01*
X187552499Y-91189174D01*
X187541809Y-91115796D01*
X187486476Y-91002610D01*
X187486474Y-91002608D01*
X187486474Y-91002607D01*
X187397392Y-90913525D01*
X187284202Y-90858190D01*
X187210828Y-90847500D01*
X187210827Y-90847500D01*
X186732500Y-90847500D01*
X186665461Y-90827815D01*
X186619706Y-90775011D01*
X186608500Y-90723500D01*
X186608500Y-88961990D01*
X186628185Y-88894951D01*
X186644819Y-88874309D01*
X187250701Y-88268427D01*
X187856901Y-87662227D01*
X187923847Y-87546274D01*
X187932543Y-87513819D01*
X187932662Y-87513376D01*
X187932662Y-87513374D01*
X187933216Y-87511305D01*
X187958500Y-87416945D01*
X187958500Y-87202140D01*
X187978185Y-87135101D01*
X188013610Y-87099038D01*
X188065918Y-87064086D01*
X188073120Y-87059274D01*
X188209274Y-86923120D01*
X188316250Y-86763020D01*
X188361440Y-86653919D01*
X188405279Y-86599519D01*
X188471573Y-86577453D01*
X188539272Y-86594732D01*
X188586883Y-86645868D01*
X188600000Y-86701374D01*
X188600000Y-86949970D01*
X188600001Y-86949987D01*
X188610494Y-87052697D01*
X188665641Y-87219119D01*
X188665643Y-87219124D01*
X188757684Y-87368345D01*
X188881654Y-87492315D01*
X189030875Y-87584356D01*
X189030880Y-87584358D01*
X189197302Y-87639505D01*
X189197309Y-87639506D01*
X189300019Y-87649999D01*
X189699999Y-87649999D01*
X189700000Y-87649998D01*
X189700000Y-86583012D01*
X189757007Y-86615925D01*
X189884174Y-86650000D01*
X190015826Y-86650000D01*
X190142993Y-86615925D01*
X190200000Y-86583012D01*
X190200000Y-87649999D01*
X190599972Y-87649999D01*
X190599986Y-87649998D01*
X190702697Y-87639505D01*
X190869119Y-87584358D01*
X190869124Y-87584356D01*
X191018345Y-87492315D01*
X191142315Y-87368345D01*
X191234356Y-87219124D01*
X191234358Y-87219119D01*
X191289505Y-87052697D01*
X191289506Y-87052690D01*
X191299999Y-86949986D01*
X191300000Y-86949973D01*
X191300000Y-86400000D01*
X190383012Y-86400000D01*
X190415925Y-86342993D01*
X190450000Y-86215826D01*
X190450000Y-86084174D01*
X190415925Y-85957007D01*
X190383012Y-85900000D01*
X191299999Y-85900000D01*
X191299999Y-85350028D01*
X191299998Y-85350013D01*
X191289505Y-85247302D01*
X191234358Y-85080880D01*
X191234356Y-85080875D01*
X191142315Y-84931654D01*
X191018345Y-84807684D01*
X190869124Y-84715643D01*
X190869119Y-84715641D01*
X190702697Y-84660494D01*
X190702690Y-84660493D01*
X190599986Y-84650000D01*
X190200000Y-84650000D01*
X190200000Y-85716988D01*
X190142993Y-85684075D01*
X190015826Y-85650000D01*
X189884174Y-85650000D01*
X189757007Y-85684075D01*
X189700000Y-85716988D01*
X189700000Y-84650000D01*
X189300028Y-84650000D01*
X189300012Y-84650001D01*
X189197302Y-84660494D01*
X189030880Y-84715641D01*
X189030875Y-84715643D01*
X188881654Y-84807684D01*
X188757684Y-84931654D01*
X188665643Y-85080875D01*
X188665641Y-85080880D01*
X188610494Y-85247302D01*
X188610493Y-85247309D01*
X188600000Y-85350013D01*
X188600000Y-85598623D01*
X188580315Y-85665662D01*
X188527511Y-85711417D01*
X188458353Y-85721361D01*
X188394797Y-85692336D01*
X188361439Y-85646076D01*
X188316251Y-85536982D01*
X188316246Y-85536973D01*
X188209274Y-85376880D01*
X188209271Y-85376876D01*
X188073124Y-85240729D01*
X188013607Y-85200960D01*
X187968803Y-85147347D01*
X187962419Y-85128786D01*
X187958500Y-85113569D01*
X187958500Y-85083055D01*
X187923847Y-84953726D01*
X187920557Y-84948028D01*
X187856901Y-84837773D01*
X185012227Y-81993099D01*
X184954250Y-81959626D01*
X184896275Y-81926153D01*
X184791308Y-81898028D01*
X184766945Y-81891500D01*
X184766944Y-81891500D01*
X177301499Y-81891500D01*
X177234460Y-81871815D01*
X177188705Y-81819011D01*
X177177499Y-81767500D01*
X177177499Y-81714174D01*
X177176691Y-81708627D01*
X177166809Y-81640796D01*
X177111476Y-81527610D01*
X177111474Y-81527608D01*
X177111474Y-81527607D01*
X177022392Y-81438525D01*
X177015316Y-81435066D01*
X176909204Y-81383191D01*
X176909202Y-81383190D01*
X176835827Y-81372500D01*
X174764174Y-81372500D01*
X174690795Y-81383191D01*
X174577607Y-81438525D01*
X174488525Y-81527607D01*
X174433190Y-81640797D01*
X174422500Y-81714172D01*
X173177499Y-81714172D01*
X173166809Y-81640796D01*
X173111476Y-81527610D01*
X173111474Y-81527608D01*
X173111474Y-81527607D01*
X173091164Y-81507297D01*
X173057679Y-81445974D01*
X173062663Y-81376282D01*
X173071462Y-81357609D01*
X173073206Y-81354588D01*
X173073207Y-81354587D01*
X173100500Y-81252727D01*
X173100500Y-81147273D01*
X173073207Y-81045413D01*
X173025047Y-80961998D01*
X173008575Y-80894100D01*
X173025047Y-80838001D01*
X173073207Y-80754587D01*
X173100500Y-80652727D01*
X173100500Y-80547273D01*
X173073207Y-80445413D01*
X173020480Y-80354087D01*
X172945913Y-80279520D01*
X172854587Y-80226793D01*
X172752727Y-80199500D01*
X172647273Y-80199500D01*
X172545413Y-80226793D01*
X172545410Y-80226794D01*
X172454085Y-80279521D01*
X172379522Y-80354084D01*
X172379520Y-80354086D01*
X172379520Y-80354087D01*
X172357385Y-80392425D01*
X172306820Y-80440639D01*
X172238212Y-80453861D01*
X172173348Y-80427893D01*
X172142615Y-80392426D01*
X172120480Y-80354087D01*
X172045913Y-80279520D01*
X171954587Y-80226793D01*
X171852727Y-80199500D01*
X171747273Y-80199500D01*
X171645413Y-80226793D01*
X171645410Y-80226794D01*
X171554085Y-80279521D01*
X171479522Y-80354084D01*
X171479520Y-80354086D01*
X171479520Y-80354087D01*
X171457385Y-80392425D01*
X171406820Y-80440639D01*
X171338212Y-80453861D01*
X171273348Y-80427893D01*
X171242615Y-80392426D01*
X171220480Y-80354087D01*
X171145913Y-80279520D01*
X171054587Y-80226793D01*
X170952727Y-80199500D01*
X170847273Y-80199500D01*
X170745413Y-80226793D01*
X170745410Y-80226794D01*
X170654085Y-80279521D01*
X170579521Y-80354085D01*
X170526794Y-80445410D01*
X170526793Y-80445413D01*
X170499500Y-80547273D01*
X170499500Y-80652727D01*
X170524579Y-80746322D01*
X170526793Y-80754586D01*
X170526794Y-80754589D01*
X170574951Y-80838000D01*
X170591424Y-80905901D01*
X170574951Y-80962000D01*
X170526794Y-81045410D01*
X170526793Y-81045413D01*
X170499500Y-81147273D01*
X170499500Y-81252727D01*
X170503976Y-81269429D01*
X170526793Y-81354586D01*
X170526793Y-81354587D01*
X170528541Y-81357614D01*
X170529239Y-81360492D01*
X170529904Y-81362097D01*
X170529653Y-81362200D01*
X170545015Y-81425514D01*
X170522164Y-81491541D01*
X170508838Y-81507296D01*
X170488523Y-81527610D01*
X170433190Y-81640797D01*
X170422500Y-81714172D01*
X170129100Y-81714172D01*
X170129100Y-81269429D01*
X170117953Y-81242517D01*
X170094222Y-81185225D01*
X169321630Y-80412633D01*
X169288145Y-80351310D01*
X169293129Y-80281618D01*
X169294750Y-80277499D01*
X169309314Y-80242338D01*
X169359936Y-80120126D01*
X169397500Y-79931275D01*
X169397500Y-79738725D01*
X169359936Y-79549874D01*
X169309496Y-79428101D01*
X169286253Y-79371986D01*
X169286246Y-79371973D01*
X169179274Y-79211880D01*
X169179271Y-79211876D01*
X169043123Y-79075728D01*
X169043119Y-79075725D01*
X168883026Y-78968753D01*
X168883013Y-78968746D01*
X168705132Y-78895066D01*
X168705128Y-78895064D01*
X168705126Y-78895064D01*
X168705122Y-78895063D01*
X168705118Y-78895062D01*
X168516279Y-78857500D01*
X168516275Y-78857500D01*
X168323725Y-78857500D01*
X168323720Y-78857500D01*
X168134881Y-78895062D01*
X168134867Y-78895066D01*
X167956986Y-78968746D01*
X167956973Y-78968753D01*
X167796880Y-79075725D01*
X167796876Y-79075728D01*
X167660728Y-79211876D01*
X167660725Y-79211880D01*
X167553753Y-79371973D01*
X167553746Y-79371986D01*
X167480066Y-79549867D01*
X167480062Y-79549881D01*
X167442500Y-79738720D01*
X167442500Y-79931279D01*
X167480062Y-80120118D01*
X167480066Y-80120132D01*
X167553746Y-80298013D01*
X167553753Y-80298026D01*
X167660725Y-80458119D01*
X167660728Y-80458123D01*
X167796876Y-80594271D01*
X167796880Y-80594274D01*
X167956973Y-80701246D01*
X167956986Y-80701253D01*
X168085745Y-80754586D01*
X168134874Y-80774936D01*
X168320045Y-80811768D01*
X168323720Y-80812499D01*
X168323724Y-80812500D01*
X168323725Y-80812500D01*
X168516276Y-80812500D01*
X168516277Y-80812499D01*
X168705126Y-80774936D01*
X168862499Y-80709749D01*
X168931969Y-80702281D01*
X168994448Y-80733556D01*
X168997633Y-80736630D01*
X169634581Y-81373578D01*
X169668066Y-81434901D01*
X169670900Y-81461259D01*
X169670900Y-82553742D01*
X169651215Y-82620781D01*
X169634580Y-82641424D01*
X169585429Y-82690574D01*
X169524106Y-82724058D01*
X169454414Y-82719073D01*
X169398481Y-82677201D01*
X169374065Y-82611737D01*
X169376132Y-82578701D01*
X169378262Y-82567993D01*
X169397500Y-82471275D01*
X169397500Y-82278725D01*
X169359936Y-82089874D01*
X169323473Y-82001844D01*
X169286253Y-81911986D01*
X169286246Y-81911973D01*
X169179274Y-81751880D01*
X169179271Y-81751876D01*
X169043123Y-81615728D01*
X169043119Y-81615725D01*
X168883026Y-81508753D01*
X168883013Y-81508746D01*
X168705132Y-81435066D01*
X168705128Y-81435064D01*
X168705126Y-81435064D01*
X168705122Y-81435063D01*
X168705118Y-81435062D01*
X168516279Y-81397500D01*
X168516275Y-81397500D01*
X168323725Y-81397500D01*
X168323720Y-81397500D01*
X168134881Y-81435062D01*
X168134867Y-81435066D01*
X167956986Y-81508746D01*
X167956973Y-81508753D01*
X167796880Y-81615725D01*
X167796876Y-81615728D01*
X167660728Y-81751876D01*
X167660725Y-81751880D01*
X167553753Y-81911973D01*
X167553746Y-81911986D01*
X167480066Y-82089867D01*
X167480062Y-82089881D01*
X167442500Y-82278720D01*
X167442500Y-82471279D01*
X167480062Y-82660118D01*
X167480066Y-82660132D01*
X167553746Y-82838013D01*
X167553753Y-82838026D01*
X167660725Y-82998119D01*
X167660728Y-82998123D01*
X167665076Y-83002471D01*
X167698561Y-83063794D01*
X167693577Y-83133486D01*
X167665076Y-83177833D01*
X162237181Y-88605729D01*
X162175858Y-88639214D01*
X162106166Y-88634230D01*
X162050233Y-88592358D01*
X162025816Y-88526894D01*
X162025500Y-88518048D01*
X162025500Y-88447275D01*
X162025500Y-88447273D01*
X161998207Y-88345413D01*
X161945480Y-88254087D01*
X161870913Y-88179520D01*
X161779587Y-88126793D01*
X161711564Y-88108566D01*
X161651904Y-88072202D01*
X161621375Y-88009355D01*
X161629670Y-87939980D01*
X161655974Y-87901114D01*
X166094059Y-83463030D01*
X166132500Y-83370225D01*
X166132500Y-83370223D01*
X166133731Y-83367252D01*
X166177572Y-83312848D01*
X166200840Y-83300143D01*
X166343013Y-83241253D01*
X166343013Y-83241252D01*
X166343020Y-83241250D01*
X166503120Y-83134274D01*
X166639274Y-82998120D01*
X166746250Y-82838020D01*
X166819936Y-82660126D01*
X166857500Y-82471275D01*
X166857500Y-82278725D01*
X166819936Y-82089874D01*
X166783473Y-82001844D01*
X166746253Y-81911986D01*
X166746246Y-81911973D01*
X166639274Y-81751880D01*
X166639271Y-81751876D01*
X166503123Y-81615728D01*
X166503119Y-81615725D01*
X166343026Y-81508753D01*
X166343013Y-81508746D01*
X166165132Y-81435066D01*
X166165128Y-81435064D01*
X166165126Y-81435064D01*
X166165122Y-81435063D01*
X166165118Y-81435062D01*
X165976279Y-81397500D01*
X165976275Y-81397500D01*
X165783725Y-81397500D01*
X165783720Y-81397500D01*
X165594881Y-81435062D01*
X165594867Y-81435066D01*
X165416986Y-81508746D01*
X165416973Y-81508753D01*
X165256880Y-81615725D01*
X165256876Y-81615728D01*
X165120728Y-81751876D01*
X165120725Y-81751880D01*
X165079602Y-81813425D01*
X165025989Y-81858230D01*
X164956664Y-81866937D01*
X164893637Y-81836782D01*
X164856918Y-81777339D01*
X164852500Y-81744534D01*
X164852500Y-81270950D01*
X164872185Y-81203911D01*
X164888815Y-81183273D01*
X165325767Y-80746320D01*
X165387088Y-80712837D01*
X165456779Y-80717821D01*
X165460898Y-80719442D01*
X165545747Y-80754587D01*
X165594874Y-80774936D01*
X165780045Y-80811768D01*
X165783720Y-80812499D01*
X165783724Y-80812500D01*
X165783725Y-80812500D01*
X165976276Y-80812500D01*
X165976277Y-80812499D01*
X166165126Y-80774936D01*
X166343020Y-80701250D01*
X166503120Y-80594274D01*
X166639274Y-80458120D01*
X166746250Y-80298020D01*
X166819936Y-80120126D01*
X166857500Y-79931275D01*
X166857500Y-79738725D01*
X166819936Y-79549874D01*
X166769496Y-79428101D01*
X166746253Y-79371986D01*
X166746246Y-79371973D01*
X166639274Y-79211880D01*
X166639271Y-79211876D01*
X166503123Y-79075728D01*
X166503119Y-79075725D01*
X166343026Y-78968753D01*
X166343013Y-78968746D01*
X166165132Y-78895066D01*
X166165128Y-78895064D01*
X166165126Y-78895064D01*
X166165122Y-78895063D01*
X166165118Y-78895062D01*
X165976279Y-78857500D01*
X165976275Y-78857500D01*
X165783725Y-78857500D01*
X165783720Y-78857500D01*
X165594881Y-78895062D01*
X165594867Y-78895066D01*
X165416986Y-78968746D01*
X165416973Y-78968753D01*
X165256880Y-79075725D01*
X165256876Y-79075728D01*
X165120728Y-79211876D01*
X165120725Y-79211880D01*
X165013753Y-79371973D01*
X165013746Y-79371986D01*
X164940066Y-79549867D01*
X164940062Y-79549881D01*
X164902500Y-79738720D01*
X164902500Y-79931279D01*
X164940062Y-80120118D01*
X164940064Y-80120126D01*
X164944229Y-80130181D01*
X164995557Y-80254098D01*
X165003026Y-80323568D01*
X164971751Y-80386047D01*
X164968677Y-80389232D01*
X164456970Y-80900941D01*
X164385942Y-80971968D01*
X164385941Y-80971969D01*
X164347500Y-81064773D01*
X164347500Y-81714602D01*
X164327815Y-81781641D01*
X164275011Y-81827396D01*
X164205853Y-81837340D01*
X164142297Y-81808315D01*
X164120398Y-81783494D01*
X164100857Y-81754249D01*
X164099274Y-81751880D01*
X164099273Y-81751879D01*
X164099271Y-81751876D01*
X163963123Y-81615728D01*
X163963119Y-81615725D01*
X163803026Y-81508753D01*
X163803013Y-81508746D01*
X163625132Y-81435066D01*
X163625128Y-81435064D01*
X163625126Y-81435064D01*
X163625122Y-81435063D01*
X163625118Y-81435062D01*
X163436279Y-81397500D01*
X163436275Y-81397500D01*
X163243725Y-81397500D01*
X163243720Y-81397500D01*
X163054881Y-81435062D01*
X163054867Y-81435066D01*
X162876986Y-81508746D01*
X162876973Y-81508753D01*
X162716880Y-81615725D01*
X162716876Y-81615728D01*
X162580728Y-81751876D01*
X162580725Y-81751880D01*
X162579599Y-81753566D01*
X162578781Y-81754249D01*
X162576862Y-81756588D01*
X162576418Y-81756223D01*
X162525985Y-81798368D01*
X162456659Y-81807072D01*
X162393633Y-81776915D01*
X162356917Y-81717470D01*
X162352500Y-81684670D01*
X162352500Y-81230950D01*
X162372185Y-81163911D01*
X162388815Y-81143273D01*
X162785767Y-80746320D01*
X162847088Y-80712837D01*
X162916779Y-80717821D01*
X162920898Y-80719442D01*
X163005747Y-80754587D01*
X163054874Y-80774936D01*
X163240045Y-80811768D01*
X163243720Y-80812499D01*
X163243724Y-80812500D01*
X163243725Y-80812500D01*
X163436276Y-80812500D01*
X163436277Y-80812499D01*
X163625126Y-80774936D01*
X163803020Y-80701250D01*
X163963120Y-80594274D01*
X164099274Y-80458120D01*
X164206250Y-80298020D01*
X164279936Y-80120126D01*
X164317500Y-79931275D01*
X164317500Y-79738725D01*
X164279936Y-79549874D01*
X164229496Y-79428101D01*
X164206253Y-79371986D01*
X164206246Y-79371973D01*
X164099274Y-79211880D01*
X164099271Y-79211876D01*
X163963123Y-79075728D01*
X163963119Y-79075725D01*
X163803026Y-78968753D01*
X163803013Y-78968746D01*
X163625132Y-78895066D01*
X163625128Y-78895064D01*
X163625126Y-78895064D01*
X163625122Y-78895063D01*
X163625118Y-78895062D01*
X163436279Y-78857500D01*
X163436275Y-78857500D01*
X163243725Y-78857500D01*
X163243720Y-78857500D01*
X163054881Y-78895062D01*
X163054867Y-78895066D01*
X162876986Y-78968746D01*
X162876973Y-78968753D01*
X162716880Y-79075725D01*
X162716876Y-79075728D01*
X162580728Y-79211876D01*
X162580725Y-79211880D01*
X162473753Y-79371973D01*
X162473746Y-79371986D01*
X162400066Y-79549867D01*
X162400062Y-79549881D01*
X162362500Y-79738720D01*
X162362500Y-79931279D01*
X162400062Y-80120118D01*
X162400064Y-80120126D01*
X162404229Y-80130181D01*
X162455557Y-80254098D01*
X162463026Y-80323568D01*
X162431751Y-80386047D01*
X162428677Y-80389232D01*
X161961792Y-80856118D01*
X161961788Y-80856122D01*
X161956970Y-80860941D01*
X161885941Y-80931970D01*
X161869800Y-80970937D01*
X161858762Y-80984715D01*
X161844006Y-80995022D01*
X161832709Y-81009041D01*
X161815955Y-81014616D01*
X161801483Y-81024726D01*
X161783494Y-81025419D01*
X161766414Y-81031104D01*
X161748736Y-81030473D01*
X161697828Y-81025000D01*
X161086962Y-81025000D01*
X161019923Y-81005315D01*
X160974168Y-80952511D01*
X160964224Y-80883353D01*
X160993249Y-80819797D01*
X161052027Y-80782023D01*
X161062771Y-80779383D01*
X161071904Y-80777565D01*
X161085126Y-80774936D01*
X161263020Y-80701250D01*
X161423120Y-80594274D01*
X161559274Y-80458120D01*
X161666250Y-80298020D01*
X161739936Y-80120126D01*
X161777500Y-79931275D01*
X161777500Y-79738725D01*
X161739936Y-79549874D01*
X161689496Y-79428101D01*
X161666253Y-79371986D01*
X161666246Y-79371973D01*
X161559274Y-79211880D01*
X161559271Y-79211876D01*
X161423123Y-79075728D01*
X161423119Y-79075725D01*
X161263026Y-78968753D01*
X161263013Y-78968746D01*
X161085132Y-78895066D01*
X161085128Y-78895064D01*
X161085126Y-78895064D01*
X161085122Y-78895063D01*
X161085118Y-78895062D01*
X160896279Y-78857500D01*
X160896275Y-78857500D01*
X160703725Y-78857500D01*
X160703720Y-78857500D01*
X160514881Y-78895062D01*
X160514867Y-78895066D01*
X160336986Y-78968746D01*
X160336973Y-78968753D01*
X160176880Y-79075725D01*
X160176876Y-79075728D01*
X160040728Y-79211876D01*
X160040722Y-79211884D01*
X160000962Y-79271390D01*
X159947350Y-79316196D01*
X159897860Y-79326500D01*
X159873055Y-79326500D01*
X159760778Y-79356584D01*
X159760777Y-79356583D01*
X159743726Y-79361152D01*
X159627773Y-79428099D01*
X159627770Y-79428101D01*
X158925691Y-80130181D01*
X158864368Y-80163666D01*
X158838010Y-80166500D01*
X158744502Y-80166500D01*
X158677463Y-80146815D01*
X158631708Y-80094011D01*
X158621764Y-80024853D01*
X158650789Y-79961297D01*
X158679404Y-79936962D01*
X158702731Y-79922573D01*
X158822572Y-79802732D01*
X158822575Y-79802728D01*
X158911542Y-79658492D01*
X158911547Y-79658481D01*
X158964855Y-79497606D01*
X158974999Y-79398322D01*
X158975000Y-79398309D01*
X158975000Y-79375000D01*
X157025001Y-79375000D01*
X157025001Y-79398322D01*
X157035144Y-79497607D01*
X157088452Y-79658481D01*
X157088457Y-79658492D01*
X157177424Y-79802728D01*
X157177427Y-79802732D01*
X157297267Y-79922572D01*
X157297271Y-79922575D01*
X157441507Y-80011542D01*
X157448059Y-80014597D01*
X157446997Y-80016872D01*
X157494721Y-80049909D01*
X157521548Y-80114424D01*
X157509238Y-80183200D01*
X157485960Y-80215529D01*
X157459151Y-80242338D01*
X157407483Y-80348025D01*
X157406600Y-80354087D01*
X157397500Y-80416547D01*
X157397500Y-80416551D01*
X157397500Y-80416552D01*
X157397500Y-80933451D01*
X157400507Y-80954087D01*
X157407483Y-81001972D01*
X157407484Y-81001974D01*
X157459152Y-81107663D01*
X157465123Y-81116026D01*
X157462813Y-81117674D01*
X157488662Y-81164996D01*
X157491500Y-81191372D01*
X157491500Y-81708627D01*
X157471815Y-81775666D01*
X157465121Y-81783972D01*
X157465123Y-81783974D01*
X157459152Y-81792336D01*
X157407482Y-81898028D01*
X157397411Y-81967152D01*
X157368267Y-82030653D01*
X157362388Y-82036955D01*
X156298910Y-83100435D01*
X156237936Y-83161408D01*
X156237934Y-83161411D01*
X156194819Y-83236089D01*
X156192686Y-83244049D01*
X156172981Y-83317591D01*
X156172500Y-83319385D01*
X156172500Y-85512982D01*
X156152815Y-85580021D01*
X156136181Y-85600663D01*
X154687680Y-87049163D01*
X154626357Y-87082648D01*
X154556665Y-87077664D01*
X154525467Y-87057614D01*
X154524630Y-87058811D01*
X154515747Y-87052591D01*
X154515745Y-87052590D01*
X154515744Y-87052589D01*
X154428223Y-87011777D01*
X154411072Y-87003779D01*
X154411068Y-87003778D01*
X154363377Y-86997500D01*
X153886628Y-86997500D01*
X153838929Y-87003778D01*
X153734255Y-87052589D01*
X153652590Y-87134254D01*
X153603779Y-87238927D01*
X153603778Y-87238931D01*
X153597500Y-87286623D01*
X153597500Y-87913371D01*
X153603778Y-87961070D01*
X153652588Y-88065742D01*
X153656069Y-88070713D01*
X153678398Y-88136918D01*
X153661884Y-88203838D01*
X153608448Y-88296392D01*
X153608448Y-88296393D01*
X153572500Y-88430553D01*
X153572500Y-88512983D01*
X153552815Y-88580022D01*
X153536181Y-88600664D01*
X152500664Y-89636181D01*
X152439341Y-89669666D01*
X152412983Y-89672500D01*
X148253663Y-89672500D01*
X148186624Y-89652815D01*
X148140869Y-89600011D01*
X148130925Y-89530853D01*
X148159950Y-89467297D01*
X148189513Y-89442383D01*
X148209877Y-89430072D01*
X148330072Y-89309877D01*
X148418019Y-89164395D01*
X148468590Y-89002105D01*
X148469871Y-88995670D01*
X148471425Y-88995979D01*
X148494126Y-88938490D01*
X148550848Y-88897693D01*
X148620622Y-88894038D01*
X148681295Y-88928687D01*
X148704340Y-88962275D01*
X148734755Y-89027499D01*
X148752589Y-89065744D01*
X148834256Y-89147411D01*
X148938929Y-89196221D01*
X148986625Y-89202500D01*
X149463374Y-89202499D01*
X149511071Y-89196221D01*
X149615744Y-89147411D01*
X149697411Y-89065744D01*
X149697412Y-89065741D01*
X149703633Y-89056858D01*
X149704780Y-89057661D01*
X149743294Y-89013915D01*
X149810486Y-88994759D01*
X149841601Y-88998980D01*
X149847273Y-89000500D01*
X149847275Y-89000500D01*
X149952725Y-89000500D01*
X149952727Y-89000500D01*
X150054587Y-88973207D01*
X150145913Y-88920480D01*
X150220480Y-88845913D01*
X150273207Y-88754587D01*
X150300500Y-88652727D01*
X150300500Y-88547273D01*
X150273207Y-88445413D01*
X150220480Y-88354087D01*
X150145913Y-88279520D01*
X150073517Y-88237722D01*
X150054589Y-88226794D01*
X150054588Y-88226793D01*
X150054587Y-88226793D01*
X149952727Y-88199500D01*
X149847273Y-88199500D01*
X149847268Y-88199500D01*
X149841598Y-88201020D01*
X149771748Y-88199354D01*
X149713887Y-88160189D01*
X149698446Y-88135734D01*
X149697410Y-88134255D01*
X149615744Y-88052589D01*
X149579320Y-88035604D01*
X149549094Y-88021509D01*
X149536076Y-88010047D01*
X149520297Y-88002841D01*
X149510396Y-87987435D01*
X149496656Y-87975337D01*
X149491771Y-87958453D01*
X149482523Y-87944063D01*
X149477500Y-87909128D01*
X149477500Y-87890871D01*
X149497185Y-87823832D01*
X149549092Y-87778491D01*
X149615744Y-87747411D01*
X149697411Y-87665744D01*
X149746221Y-87561071D01*
X149752500Y-87513375D01*
X149752499Y-86886626D01*
X149746221Y-86838929D01*
X149697411Y-86734256D01*
X149615744Y-86652589D01*
X149559882Y-86626540D01*
X149511072Y-86603779D01*
X149511068Y-86603778D01*
X149463377Y-86597500D01*
X148986628Y-86597500D01*
X148938929Y-86603778D01*
X148834255Y-86652589D01*
X148752590Y-86734254D01*
X148703779Y-86838927D01*
X148703778Y-86838931D01*
X148697500Y-86886623D01*
X148697500Y-87513371D01*
X148703778Y-87561070D01*
X148740354Y-87639506D01*
X148752589Y-87665744D01*
X148834256Y-87747411D01*
X148882544Y-87769928D01*
X148900905Y-87778490D01*
X148913923Y-87789952D01*
X148929703Y-87797159D01*
X148939603Y-87812564D01*
X148953344Y-87824663D01*
X148958228Y-87841546D01*
X148967477Y-87855937D01*
X148972500Y-87890872D01*
X148972500Y-87909127D01*
X148952815Y-87976166D01*
X148900906Y-88021508D01*
X148834257Y-88052587D01*
X148752590Y-88134254D01*
X148704341Y-88237722D01*
X148658167Y-88290161D01*
X148590974Y-88309312D01*
X148524093Y-88289095D01*
X148478759Y-88235930D01*
X148470472Y-88204209D01*
X148469871Y-88204329D01*
X148468590Y-88197892D01*
X148418018Y-88035603D01*
X148330072Y-87890122D01*
X148209878Y-87769928D01*
X148209874Y-87769925D01*
X148140529Y-87728004D01*
X148093342Y-87676476D01*
X148081504Y-87607617D01*
X148092301Y-87569477D01*
X148096221Y-87561071D01*
X148102500Y-87513375D01*
X148102499Y-86886626D01*
X148096221Y-86838929D01*
X148047411Y-86734256D01*
X147965744Y-86652589D01*
X147965743Y-86652588D01*
X147874094Y-86609850D01*
X147821655Y-86563677D01*
X147802500Y-86497469D01*
X147802500Y-85921882D01*
X147822185Y-85854843D01*
X147874989Y-85809088D01*
X147908619Y-85799178D01*
X147959204Y-85791809D01*
X148072390Y-85736476D01*
X148161476Y-85647390D01*
X148216809Y-85534204D01*
X148227500Y-85460827D01*
X148227499Y-84453343D01*
X151772500Y-84453343D01*
X151772500Y-85146656D01*
X151800455Y-85287196D01*
X151800457Y-85287204D01*
X151855296Y-85419596D01*
X151855301Y-85419606D01*
X151934913Y-85538753D01*
X151934915Y-85538756D01*
X151955179Y-85559019D01*
X151988666Y-85620341D01*
X151991500Y-85646702D01*
X151991500Y-87130545D01*
X151979882Y-87182949D01*
X151953779Y-87238925D01*
X151953778Y-87238930D01*
X151947500Y-87286623D01*
X151947500Y-87913371D01*
X151953778Y-87961070D01*
X151973694Y-88003779D01*
X152002589Y-88065744D01*
X152084256Y-88147411D01*
X152188929Y-88196221D01*
X152236625Y-88202500D01*
X152713374Y-88202499D01*
X152761071Y-88196221D01*
X152865744Y-88147411D01*
X152947411Y-88065744D01*
X152996221Y-87961071D01*
X153002500Y-87913375D01*
X153002499Y-87680664D01*
X153006726Y-87648565D01*
X153008500Y-87641945D01*
X153008500Y-85646702D01*
X153028185Y-85579663D01*
X153044821Y-85559019D01*
X153065084Y-85538756D01*
X153065086Y-85538754D01*
X153144702Y-85419600D01*
X153161439Y-85379191D01*
X153205278Y-85324789D01*
X153271572Y-85302723D01*
X153339271Y-85320001D01*
X153386883Y-85371137D01*
X153400000Y-85426642D01*
X153400000Y-85474969D01*
X153400001Y-85474987D01*
X153410494Y-85577697D01*
X153465641Y-85744119D01*
X153465643Y-85744124D01*
X153557684Y-85893345D01*
X153681654Y-86017315D01*
X153830875Y-86109356D01*
X153830880Y-86109358D01*
X153997302Y-86164505D01*
X153997309Y-86164506D01*
X154100019Y-86174999D01*
X154249999Y-86174999D01*
X154250000Y-86174998D01*
X154250000Y-85080330D01*
X154269745Y-85100075D01*
X154355255Y-85149444D01*
X154450630Y-85175000D01*
X154549370Y-85175000D01*
X154644745Y-85149444D01*
X154730255Y-85100075D01*
X154750000Y-85080330D01*
X154750000Y-86174999D01*
X154899972Y-86174999D01*
X154899986Y-86174998D01*
X155002697Y-86164505D01*
X155169119Y-86109358D01*
X155169124Y-86109356D01*
X155318345Y-86017315D01*
X155442315Y-85893345D01*
X155534356Y-85744124D01*
X155534358Y-85744119D01*
X155589505Y-85577697D01*
X155589506Y-85577690D01*
X155599999Y-85474986D01*
X155600000Y-85474973D01*
X155600000Y-85050000D01*
X154780330Y-85050000D01*
X154800075Y-85030255D01*
X154849444Y-84944745D01*
X154875000Y-84849370D01*
X154875000Y-84750630D01*
X154849444Y-84655255D01*
X154800075Y-84569745D01*
X154780330Y-84550000D01*
X155599999Y-84550000D01*
X155599999Y-84125028D01*
X155599998Y-84125013D01*
X155589505Y-84022302D01*
X155534358Y-83855880D01*
X155534356Y-83855875D01*
X155442315Y-83706654D01*
X155318345Y-83582684D01*
X155169124Y-83490643D01*
X155169119Y-83490641D01*
X155002697Y-83435494D01*
X155002690Y-83435493D01*
X154899986Y-83425000D01*
X154750000Y-83425000D01*
X154750000Y-84519670D01*
X154730255Y-84499925D01*
X154644745Y-84450556D01*
X154549370Y-84425000D01*
X154450630Y-84425000D01*
X154355255Y-84450556D01*
X154269745Y-84499925D01*
X154250000Y-84519670D01*
X154250000Y-83425000D01*
X154100027Y-83425000D01*
X154100012Y-83425001D01*
X153997302Y-83435494D01*
X153830880Y-83490641D01*
X153830875Y-83490643D01*
X153681654Y-83582684D01*
X153557684Y-83706654D01*
X153465643Y-83855875D01*
X153465641Y-83855880D01*
X153410494Y-84022302D01*
X153410493Y-84022309D01*
X153400000Y-84125013D01*
X153400000Y-84173353D01*
X153380315Y-84240392D01*
X153327511Y-84286147D01*
X153258353Y-84296091D01*
X153194797Y-84267066D01*
X153161439Y-84220806D01*
X153144703Y-84180403D01*
X153144702Y-84180400D01*
X153144700Y-84180397D01*
X153144698Y-84180393D01*
X153065086Y-84061246D01*
X153065083Y-84061242D01*
X152963757Y-83959916D01*
X152963753Y-83959913D01*
X152844606Y-83880301D01*
X152844596Y-83880296D01*
X152712204Y-83825457D01*
X152712196Y-83825455D01*
X152571656Y-83797500D01*
X152571652Y-83797500D01*
X152428348Y-83797500D01*
X152428343Y-83797500D01*
X152287803Y-83825455D01*
X152287795Y-83825457D01*
X152155403Y-83880296D01*
X152155393Y-83880301D01*
X152036246Y-83959913D01*
X152036242Y-83959916D01*
X151934916Y-84061242D01*
X151934913Y-84061246D01*
X151855301Y-84180393D01*
X151855296Y-84180403D01*
X151800457Y-84312795D01*
X151800455Y-84312803D01*
X151772500Y-84453343D01*
X148227499Y-84453343D01*
X148227499Y-84139174D01*
X148216809Y-84065796D01*
X148161476Y-83952610D01*
X148161474Y-83952608D01*
X148161474Y-83952607D01*
X148072392Y-83863525D01*
X147959202Y-83808190D01*
X147885827Y-83797500D01*
X147114179Y-83797500D01*
X147040796Y-83808191D01*
X146927607Y-83863525D01*
X146838525Y-83952607D01*
X146783190Y-84065797D01*
X146774364Y-84126377D01*
X146745220Y-84189878D01*
X146686371Y-84227542D01*
X146616501Y-84227410D01*
X146557794Y-84189525D01*
X146533729Y-84146817D01*
X146519408Y-84102744D01*
X146440804Y-83948475D01*
X146339032Y-83808397D01*
X146216602Y-83685967D01*
X146076524Y-83584195D01*
X145922257Y-83505591D01*
X145757589Y-83452087D01*
X145757581Y-83452085D01*
X145750000Y-83450884D01*
X145750000Y-84519670D01*
X145730255Y-84499925D01*
X145644745Y-84450556D01*
X145549370Y-84425000D01*
X145450630Y-84425000D01*
X145355255Y-84450556D01*
X145269745Y-84499925D01*
X145250000Y-84519670D01*
X145250000Y-83450884D01*
X145249999Y-83450884D01*
X145242418Y-83452085D01*
X145242410Y-83452087D01*
X145077742Y-83505591D01*
X144923475Y-83584195D01*
X144783397Y-83685967D01*
X144660967Y-83808397D01*
X144559195Y-83948475D01*
X144480591Y-84102742D01*
X144427085Y-84267415D01*
X144400000Y-84438428D01*
X144400000Y-84550000D01*
X145219670Y-84550000D01*
X145199925Y-84569745D01*
X145150556Y-84655255D01*
X145125000Y-84750630D01*
X145125000Y-84849370D01*
X145150556Y-84944745D01*
X145199925Y-85030255D01*
X145219670Y-85050000D01*
X144400000Y-85050000D01*
X144400000Y-85161571D01*
X144427085Y-85332584D01*
X144480591Y-85497257D01*
X144559195Y-85651524D01*
X144660967Y-85791602D01*
X144783397Y-85914032D01*
X144923475Y-86015804D01*
X145077744Y-86094408D01*
X145242415Y-86147914D01*
X145242414Y-86147914D01*
X145249999Y-86149115D01*
X145250000Y-86149114D01*
X145250000Y-85080330D01*
X145269745Y-85100075D01*
X145355255Y-85149444D01*
X145450630Y-85175000D01*
X145549370Y-85175000D01*
X145644745Y-85149444D01*
X145730255Y-85100075D01*
X145750000Y-85080330D01*
X145750000Y-86149115D01*
X145757584Y-86147914D01*
X145922255Y-86094408D01*
X146076524Y-86015804D01*
X146216602Y-85914032D01*
X146339032Y-85791602D01*
X146440804Y-85651524D01*
X146519409Y-85497253D01*
X146533729Y-85453182D01*
X146573165Y-85395506D01*
X146637524Y-85368307D01*
X146706370Y-85380221D01*
X146757847Y-85427465D01*
X146774364Y-85473621D01*
X146783190Y-85534201D01*
X146783190Y-85534202D01*
X146783191Y-85534204D01*
X146831441Y-85632901D01*
X146838525Y-85647392D01*
X146927607Y-85736474D01*
X146927608Y-85736474D01*
X146927610Y-85736476D01*
X147040796Y-85791809D01*
X147091380Y-85799179D01*
X147154877Y-85828321D01*
X147192542Y-85887169D01*
X147197500Y-85921882D01*
X147197500Y-86587983D01*
X147177815Y-86655022D01*
X147161181Y-86675664D01*
X147102590Y-86734254D01*
X147053779Y-86838927D01*
X147053778Y-86838931D01*
X147047500Y-86886623D01*
X147047500Y-87513371D01*
X147053778Y-87561071D01*
X147057702Y-87569485D01*
X147068193Y-87638563D01*
X147039672Y-87702346D01*
X147009470Y-87728004D01*
X146940125Y-87769925D01*
X146940121Y-87769928D01*
X146819927Y-87890122D01*
X146731980Y-88035604D01*
X146681409Y-88197893D01*
X146675000Y-88268427D01*
X146675000Y-88350000D01*
X147451000Y-88350000D01*
X147518039Y-88369685D01*
X147563794Y-88422489D01*
X147575000Y-88474000D01*
X147575000Y-88726000D01*
X147555315Y-88793039D01*
X147502511Y-88838794D01*
X147451000Y-88850000D01*
X146675001Y-88850000D01*
X146675001Y-88931582D01*
X146681408Y-89002102D01*
X146681409Y-89002107D01*
X146731981Y-89164396D01*
X146819927Y-89309877D01*
X146940122Y-89430072D01*
X146960487Y-89442383D01*
X147007674Y-89493911D01*
X147019513Y-89562770D01*
X146992244Y-89627099D01*
X146934526Y-89666473D01*
X146896337Y-89672500D01*
X145901500Y-89672500D01*
X145834461Y-89652815D01*
X145788706Y-89600011D01*
X145777500Y-89548500D01*
X145777500Y-89157441D01*
X145773286Y-89136257D01*
X145770102Y-89120252D01*
X145762347Y-89108646D01*
X145741922Y-89078077D01*
X145699749Y-89049898D01*
X145662559Y-89042500D01*
X145662558Y-89042500D01*
X143937442Y-89042500D01*
X143937441Y-89042500D01*
X143900250Y-89049898D01*
X143858077Y-89078077D01*
X143829898Y-89120250D01*
X143822500Y-89157441D01*
X143822500Y-90882558D01*
X143829898Y-90919749D01*
X143858077Y-90961922D01*
X143900250Y-90990101D01*
X143900252Y-90990102D01*
X143928205Y-90995662D01*
X143937441Y-90997500D01*
X143937442Y-90997500D01*
X145662559Y-90997500D01*
X145669957Y-90996028D01*
X145699748Y-90990102D01*
X145741922Y-90961922D01*
X145770102Y-90919748D01*
X145777500Y-90882558D01*
X145777500Y-90451500D01*
X145797185Y-90384461D01*
X145849989Y-90338706D01*
X145901500Y-90327500D01*
X146616049Y-90327500D01*
X146683088Y-90347185D01*
X146728843Y-90399989D01*
X146738787Y-90469147D01*
X146709762Y-90532703D01*
X146703730Y-90539181D01*
X145506506Y-91736403D01*
X145445183Y-91769888D01*
X145375491Y-91764904D01*
X145349934Y-91751824D01*
X145263026Y-91693753D01*
X145263013Y-91693746D01*
X145085132Y-91620066D01*
X145085128Y-91620064D01*
X145085126Y-91620064D01*
X145085122Y-91620063D01*
X145085118Y-91620062D01*
X144896279Y-91582500D01*
X144896275Y-91582500D01*
X144703725Y-91582500D01*
X144703720Y-91582500D01*
X144514881Y-91620062D01*
X144514867Y-91620066D01*
X144336986Y-91693746D01*
X144336973Y-91693753D01*
X144176880Y-91800725D01*
X144176876Y-91800728D01*
X144040728Y-91936876D01*
X144040725Y-91936880D01*
X143933753Y-92096973D01*
X143933746Y-92096986D01*
X143860066Y-92274867D01*
X143860062Y-92274881D01*
X143822500Y-92463720D01*
X143822500Y-92656279D01*
X143860062Y-92845118D01*
X143860066Y-92845132D01*
X143933746Y-93023013D01*
X143933753Y-93023026D01*
X144040725Y-93183119D01*
X144040728Y-93183123D01*
X144176876Y-93319271D01*
X144176880Y-93319274D01*
X144336973Y-93426246D01*
X144336986Y-93426253D01*
X144478175Y-93484735D01*
X144514874Y-93499936D01*
X144566424Y-93510189D01*
X144613013Y-93519457D01*
X144674924Y-93551841D01*
X144709498Y-93612557D01*
X144705759Y-93682327D01*
X144664893Y-93738999D01*
X144608220Y-93763547D01*
X144483872Y-93783242D01*
X144483869Y-93783242D01*
X144281782Y-93848904D01*
X144092442Y-93945379D01*
X143920540Y-94070272D01*
X143920535Y-94070276D01*
X143770276Y-94220535D01*
X143770272Y-94220540D01*
X143645379Y-94392442D01*
X143548904Y-94581782D01*
X143483242Y-94783870D01*
X143483242Y-94783873D01*
X143472769Y-94850000D01*
X143000500Y-94850000D01*
X143000500Y-78124500D01*
X143020185Y-78057461D01*
X143072989Y-78011706D01*
X143124500Y-78000500D01*
X156999793Y-78000500D01*
X157000207Y-78000500D01*
X157392481Y-78000500D01*
X157459520Y-78020185D01*
G37*
%TD.AperFunction*%
%TD*%
M02*
